{"glyphs":{"0":{"ha":899,"x_min":76,"x_max":822,"o":"m 346 -6 q 199 24 260 -6 q 108 114 139 54 q 76 260 76 174 l 76 760 q 108 912 76 850 q 202 1005 140 974 q 347 1036 264 1036 l 561 1036 q 706 1003 649 1036 q 793 909 764 971 q 822 760 822 847 l 822 260 q 753 63 822 131 q 561 -6 685 -6 l 346 -6 m 394 179 l 506 179 q 590 207 563 179 q 617 290 617 235 l 617 740 q 589 826 617 801 q 514 851 561 851 l 388 851 q 309 824 336 851 q 282 740 282 796 l 282 292 q 311 206 282 233 q 394 179 340 179 z "},"1":{"ha":517,"x_min":43,"x_max":431,"o":"m 225 0 l 225 840 l 43 817 l 43 949 l 247 1038 l 431 1038 l 431 0 l 225 0 z "},"2":{"ha":814,"x_min":64,"x_max":765,"o":"m 64 0 l 64 165 l 407 506 q 475 581 449 546 q 515 649 501 615 q 528 722 528 683 q 513 787 528 760 q 466 828 499 814 q 376 842 433 842 l 88 842 l 88 1003 q 235 1026 154 1015 q 417 1036 317 1036 q 606 1003 538 1036 q 704 907 675 969 q 733 756 733 844 q 715 629 733 686 q 660 520 696 572 q 568 415 624 468 l 338 186 l 765 186 l 765 0 l 64 0 z "},"3":{"ha":804,"x_min":53,"x_max":739,"o":"m 446 -8 q 234 -1 335 -8 q 53 21 133 7 l 53 186 l 368 186 q 461 194 425 186 q 515 224 497 203 q 532 282 532 244 l 532 325 q 514 384 532 363 q 466 416 496 406 q 397 428 436 426 l 144 438 l 144 596 l 389 610 q 486 632 451 613 q 521 699 521 651 l 521 733 q 484 815 521 789 q 361 842 447 842 l 75 842 l 75 1006 q 247 1028 154 1018 q 443 1036 340 1039 q 596 1006 533 1035 q 691 922 658 978 q 724 782 724 865 l 724 706 q 715 635 724 667 q 688 580 706 603 q 646 541 669 557 q 596 517 622 525 q 651 490 625 510 q 696 444 676 471 q 727 379 715 417 q 739 297 739 342 l 739 244 q 661 56 739 121 q 446 -8 583 -8 z "},"4":{"ha":860,"x_min":32,"x_max":832,"o":"m 521 1 l 521 218 l 71 218 l 32 315 l 365 1028 l 575 1028 l 276 393 l 521 393 l 521 593 l 561 711 l 726 711 l 726 393 l 832 393 l 832 251 l 726 218 l 726 1 l 521 1 z "},"5":{"ha":843,"x_min":82,"x_max":782,"o":"m 436 -7 q 258 0 351 -7 q 82 15 165 7 l 82 178 l 444 178 q 523 194 494 178 q 563 238 551 211 q 575 294 575 265 l 575 365 q 551 442 575 414 q 469 471 526 471 l 389 471 q 320 452 343 471 q 290 394 297 433 l 96 394 l 125 1028 l 742 1028 l 742 843 l 301 843 l 290 599 q 348 633 311 621 q 431 644 385 644 l 543 644 q 676 613 624 644 q 756 526 729 581 q 782 403 782 471 l 782 251 q 742 104 782 161 q 625 20 701 47 q 436 -7 549 -7 z "},"6":{"ha":843,"x_min":71,"x_max":782,"o":"m 378 -7 q 245 16 303 -7 q 149 95 188 39 q 90 250 110 151 q 71 500 71 349 q 97 754 71 651 q 173 919 122 857 q 295 1009 224 982 q 458 1036 367 1036 q 596 1031 526 1036 q 721 1014 665 1025 l 721 851 l 478 851 q 325 787 374 851 q 276 596 276 722 q 345 610 310 606 q 422 617 381 615 q 508 619 463 619 q 670 591 610 619 q 756 509 731 563 q 782 383 782 456 l 782 236 q 749 96 782 149 q 659 18 717 43 q 528 -7 601 -7 l 378 -7 m 419 178 l 481 178 q 532 188 511 178 q 565 219 553 197 q 576 276 576 242 l 576 344 q 563 406 576 385 q 522 436 550 428 q 451 444 494 444 l 276 444 q 285 313 276 365 q 311 232 293 261 q 356 190 329 203 q 419 178 382 178 z "},"7":{"ha":769,"x_min":32,"x_max":735,"o":"m 164 0 l 469 822 l 32 822 l 32 1028 l 681 1028 l 735 940 l 394 0 l 164 0 z "},"8":{"ha":872,"x_min":81,"x_max":792,"o":"m 351 -6 q 249 4 299 -6 q 162 38 200 14 q 102 106 124 63 q 81 218 81 150 l 81 358 q 94 433 81 399 q 134 492 108 467 q 194 524 160 517 q 131 573 151 544 q 106 635 111 601 q 101 704 101 668 l 101 821 q 134 947 101 900 q 222 1015 167 994 q 342 1036 278 1036 l 536 1036 q 656 1015 603 1036 q 740 947 708 994 q 772 821 772 900 l 772 704 q 768 661 772 686 q 753 610 764 636 q 725 565 743 583 q 681 540 707 547 q 751 499 728 531 q 783 431 775 468 q 792 363 792 393 l 792 218 q 758 78 792 126 q 667 13 724 31 q 539 -6 610 -6 l 351 -6 m 388 168 l 490 168 q 567 191 547 168 q 586 256 586 214 l 586 347 q 563 415 586 392 q 490 438 540 438 l 386 438 q 350 432 368 438 q 318 415 332 426 q 295 387 304 404 q 286 347 286 369 l 286 256 q 313 188 286 208 q 388 168 339 168 m 386 613 l 488 613 q 540 625 522 613 q 564 659 557 638 q 571 707 571 681 l 571 772 q 549 844 571 828 q 490 861 526 861 l 388 861 q 322 843 343 861 q 301 772 301 825 l 301 707 q 322 633 301 654 q 386 613 342 613 z "},"9":{"ha":843,"x_min":65,"x_max":776,"o":"m 388 -7 q 251 -1 319 -7 q 126 15 182 4 l 126 178 l 368 178 q 521 242 472 178 q 569 433 569 307 q 502 418 539 424 q 425 411 465 413 q 338 410 385 410 q 176 438 236 410 q 91 519 117 467 q 65 646 65 572 l 65 793 q 97 933 65 879 q 187 1010 129 986 q 319 1035 244 1035 l 468 1035 q 601 1012 543 1035 q 697 933 658 989 q 756 778 736 878 q 776 528 776 679 q 750 274 776 378 q 674 109 724 171 q 551 20 624 47 q 388 -7 479 -7 m 396 585 l 569 585 q 561 715 569 664 q 535 797 553 767 q 492 838 518 826 q 428 850 465 850 l 365 850 q 315 840 336 850 q 282 810 293 831 q 271 751 271 789 l 271 685 q 284 623 271 644 q 325 593 297 601 q 396 585 353 585 z "},"A":{"ha":951,"x_min":24,"x_max":928,"o":"m 24 0 l 346 1028 l 606 1028 l 928 0 l 714 0 l 649 215 l 299 215 l 235 0 l 24 0 m 347 400 l 600 400 l 474 851 l 347 400 z "},"Á":{"ha":951,"x_min":24,"x_max":928,"o":"m 24 0 l 346 1028 l 606 1028 l 928 0 l 714 0 l 649 215 l 299 215 l 235 0 l 24 0 m 347 400 l 600 400 l 474 851 l 347 400 z "},"Ă":{"ha":951,"x_min":24,"x_max":928,"o":"m 24 0 l 346 1028 l 606 1028 l 928 0 l 714 0 l 649 215 l 299 215 l 235 0 l 24 0 m 347 400 l 600 400 l 474 851 l 347 400 z "},"Ắ":{"ha":951,"x_min":24,"x_max":928,"o":"m 24 0 l 346 1028 l 606 1028 l 928 0 l 714 0 l 649 215 l 299 215 l 235 0 l 24 0 m 347 400 l 600 400 l 474 851 l 347 400 m 367 1236 q 397 1169 367 1188 q 464 1151 428 1151 q 534 1170 507 1151 q 561 1236 561 1189 l 660 1236 q 635 1141 660 1178 q 568 1086 611 1104 q 464 1068 525 1068 q 362 1086 406 1068 q 294 1141 318 1104 q 271 1236 271 1178 l 367 1236 m 404 1268 l 518 1463 l 685 1463 l 525 1268 l 404 1268 z "},"Ặ":{"ha":951,"x_min":24,"x_max":928,"o":"m 24 0 l 346 1028 l 606 1028 l 928 0 l 714 0 l 649 215 l 299 215 l 235 0 l 24 0 m 347 400 l 600 400 l 474 851 l 347 400 z "},"Ằ":{"ha":951,"x_min":24,"x_max":928,"o":"m 24 0 l 346 1028 l 606 1028 l 928 0 l 714 0 l 649 215 l 299 215 l 235 0 l 24 0 m 347 400 l 600 400 l 474 851 l 347 400 m 367 1236 q 397 1169 367 1188 q 464 1151 428 1151 q 534 1170 507 1151 q 561 1236 561 1189 l 660 1236 q 635 1141 660 1178 q 568 1086 611 1104 q 464 1068 525 1068 q 362 1086 406 1068 q 294 1141 318 1104 q 271 1236 271 1178 l 367 1236 m 414 1268 l 254 1463 l 421 1463 l 535 1268 l 414 1268 z "},"Ẳ":{"ha":951,"x_min":24,"x_max":928,"o":"m 24 0 l 346 1028 l 606 1028 l 928 0 l 714 0 l 649 215 l 299 215 l 235 0 l 24 0 m 347 400 l 600 400 l 474 851 l 347 400 m 464 1068 q 362 1086 406 1068 q 294 1141 318 1104 q 271 1236 271 1178 l 367 1236 q 397 1169 367 1188 q 464 1151 428 1151 q 534 1170 507 1151 q 561 1236 561 1189 l 660 1236 q 635 1141 660 1178 q 568 1086 611 1104 q 464 1068 525 1068 m 435 1208 l 435 1300 q 479 1325 468 1310 q 490 1356 490 1340 q 480 1383 490 1372 q 443 1393 469 1393 q 422 1391 433 1393 q 399 1385 410 1389 l 399 1465 q 432 1474 414 1471 q 471 1476 450 1476 q 567 1446 536 1476 q 597 1363 597 1415 q 559 1270 597 1307 q 435 1208 521 1233 z "},"Ẵ":{"ha":951,"x_min":24,"x_max":928,"o":"m 24 0 l 346 1028 l 606 1028 l 928 0 l 714 0 l 649 215 l 299 215 l 235 0 l 24 0 m 347 400 l 600 400 l 474 851 l 347 400 m 367 1236 q 397 1169 367 1188 q 464 1151 428 1151 q 534 1170 507 1151 q 561 1236 561 1189 l 660 1236 q 635 1141 660 1178 q 568 1086 611 1104 q 464 1068 525 1068 q 362 1086 406 1068 q 294 1141 318 1104 q 271 1236 271 1178 l 367 1236 m 243 1288 q 265 1376 247 1346 q 308 1416 282 1406 q 365 1426 335 1426 q 428 1417 399 1426 q 482 1397 457 1407 q 529 1388 507 1388 q 569 1399 556 1388 q 583 1433 583 1411 l 686 1433 q 667 1347 682 1378 q 628 1302 653 1315 q 567 1289 603 1289 q 504 1299 535 1289 q 448 1319 474 1310 q 401 1328 422 1328 q 363 1317 376 1328 q 346 1288 349 1306 l 243 1288 z "},"Â":{"ha":951,"x_min":24,"x_max":928,"o":"m 24 0 l 346 1028 l 606 1028 l 928 0 l 714 0 l 649 215 l 299 215 l 235 0 l 24 0 m 347 400 l 600 400 l 474 851 l 347 400 z "},"Ấ":{"ha":951,"x_min":24,"x_max":928,"o":"m 24 0 l 346 1028 l 606 1028 l 928 0 l 714 0 l 649 215 l 299 215 l 235 0 l 24 0 m 347 400 l 600 400 l 474 851 l 347 400 m 408 1250 l 549 1250 l 685 1099 l 565 1099 l 475 1158 l 378 1099 l 257 1099 l 408 1250 m 667 1390 l 833 1390 l 725 1217 l 604 1217 l 667 1390 z "},"Ậ":{"ha":951,"x_min":24,"x_max":928,"o":"m 24 0 l 346 1028 l 606 1028 l 928 0 l 714 0 l 649 215 l 299 215 l 235 0 l 24 0 m 347 400 l 600 400 l 474 851 l 347 400 z "},"Ầ":{"ha":951,"x_min":24,"x_max":928,"o":"m 24 0 l 346 1028 l 606 1028 l 928 0 l 714 0 l 649 215 l 299 215 l 235 0 l 24 0 m 347 400 l 600 400 l 474 851 l 347 400 m 408 1250 l 549 1250 l 685 1099 l 565 1099 l 475 1158 l 378 1099 l 257 1099 l 408 1250 m 115 1390 l 282 1390 l 346 1217 l 225 1217 l 115 1390 z "},"Ẩ":{"ha":951,"x_min":24,"x_max":928,"o":"m 24 0 l 346 1028 l 606 1028 l 928 0 l 714 0 l 649 215 l 299 215 l 235 0 l 24 0 m 347 400 l 600 400 l 474 851 l 347 400 m 257 1099 l 408 1250 l 549 1250 l 685 1099 l 565 1099 l 475 1158 l 378 1099 l 257 1099 m 638 1175 l 638 1265 q 672 1285 663 1272 q 681 1311 681 1299 q 673 1335 681 1328 q 646 1343 665 1343 q 624 1341 636 1343 q 601 1335 613 1339 l 601 1406 q 635 1414 617 1411 q 674 1417 653 1417 q 753 1392 728 1417 q 778 1325 778 1368 q 744 1233 778 1269 q 638 1175 711 1197 z "},"Ẫ":{"ha":951,"x_min":24,"x_max":928,"o":"m 24 0 l 346 1028 l 606 1028 l 928 0 l 714 0 l 649 215 l 299 215 l 235 0 l 24 0 m 347 400 l 600 400 l 474 851 l 347 400 m 243 1307 q 265 1395 247 1365 q 308 1436 282 1425 q 365 1447 335 1447 q 427 1438 399 1447 q 481 1418 456 1428 q 529 1408 506 1408 q 569 1420 556 1408 q 583 1454 583 1432 l 686 1454 q 667 1366 682 1397 q 628 1322 653 1335 q 567 1310 603 1310 q 501 1319 533 1310 q 440 1339 468 1329 q 390 1349 413 1349 q 359 1337 371 1349 q 346 1307 347 1325 l 243 1307 m 549 1250 l 685 1099 l 565 1099 l 475 1158 l 378 1099 l 257 1099 l 408 1250 l 549 1250 z "},"Ȁ":{"ha":951,"x_min":24,"x_max":928,"o":"m 24 0 l 346 1028 l 606 1028 l 928 0 l 714 0 l 649 215 l 299 215 l 235 0 l 24 0 m 347 400 l 600 400 l 474 851 l 347 400 m 558 1099 l 400 1293 l 565 1293 l 681 1099 l 558 1099 m 311 1099 l 151 1293 l 318 1293 l 432 1099 l 311 1099 z "},"Ä":{"ha":951,"x_min":24,"x_max":928,"o":"m 24 0 l 346 1028 l 606 1028 l 928 0 l 714 0 l 649 215 l 299 215 l 235 0 l 24 0 m 347 400 l 600 400 l 474 851 l 347 400 m 564 1107 q 536 1136 536 1107 l 536 1271 q 564 1301 536 1301 l 660 1301 q 681 1293 674 1301 q 688 1271 688 1285 l 688 1136 q 660 1107 688 1107 l 564 1107 m 269 1107 q 240 1136 240 1107 l 240 1271 q 269 1301 240 1301 l 365 1301 q 386 1293 379 1301 q 393 1271 393 1285 l 393 1136 q 365 1107 393 1107 l 269 1107 z "},"Ạ":{"ha":951,"x_min":24,"x_max":928,"o":"m 24 0 l 346 1028 l 606 1028 l 928 0 l 714 0 l 649 215 l 299 215 l 235 0 l 24 0 m 347 400 l 600 400 l 474 851 l 347 400 z "},"À":{"ha":951,"x_min":24,"x_max":928,"o":"m 24 0 l 346 1028 l 606 1028 l 928 0 l 714 0 l 649 215 l 299 215 l 235 0 l 24 0 m 347 400 l 600 400 l 474 851 l 347 400 z "},"Ả":{"ha":951,"x_min":24,"x_max":928,"o":"m 24 0 l 346 1028 l 606 1028 l 928 0 l 714 0 l 649 215 l 299 215 l 235 0 l 24 0 m 347 400 l 600 400 l 474 851 l 347 400 z "},"Ȃ":{"ha":951,"x_min":24,"x_max":928,"o":"m 24 0 l 346 1028 l 606 1028 l 928 0 l 714 0 l 649 215 l 299 215 l 235 0 l 24 0 m 347 400 l 600 400 l 474 851 l 347 400 z "},"Ā":{"ha":951,"x_min":24,"x_max":928,"o":"m 24 0 l 346 1028 l 606 1028 l 928 0 l 714 0 l 649 215 l 299 215 l 235 0 l 24 0 m 347 400 l 600 400 l 474 851 l 347 400 z "},"Ą":{"ha":951,"x_min":24,"x_max":928,"o":"m 24 0 l 346 1028 l 606 1028 l 928 0 l 714 0 l 649 215 l 299 215 l 235 0 l 24 0 m 347 400 l 600 400 l 474 851 l 347 400 z "},"Å":{"ha":951,"x_min":24,"x_max":928,"o":"m 24 0 l 346 1028 l 606 1028 l 928 0 l 714 0 l 649 215 l 299 215 l 235 0 l 24 0 m 347 400 l 600 400 l 474 851 l 347 400 z "},"Ǻ":{"ha":951,"x_min":24,"x_max":928,"o":"m 24 0 l 346 1028 l 606 1028 l 928 0 l 714 0 l 649 215 l 299 215 l 235 0 l 24 0 m 347 400 l 600 400 l 474 851 l 347 400 z "},"Ã":{"ha":951,"x_min":24,"x_max":928,"o":"m 24 0 l 346 1028 l 606 1028 l 928 0 l 714 0 l 649 215 l 299 215 l 235 0 l 24 0 m 347 400 l 600 400 l 474 851 l 347 400 z "},"Æ":{"ha":1363,"x_min":24,"x_max":1300,"o":"m 903 -7 q 726 27 788 -7 q 653 158 664 61 l 653 214 l 351 214 l 225 0 l 24 0 l 440 763 q 555 921 494 863 q 695 1003 615 979 q 883 1028 775 1028 q 1115 1022 1006 1028 q 1300 1010 1224 1015 l 1300 838 l 921 838 q 856 818 875 838 q 838 761 838 799 l 838 604 l 1235 593 l 1235 431 l 838 419 l 838 278 q 852 218 838 238 q 891 192 867 199 q 943 186 915 186 l 1300 186 l 1300 15 q 1115 0 1213 7 q 903 -7 1018 -7 m 443 389 l 653 389 l 653 781 l 443 389 z "},"Ǽ":{"ha":1363,"x_min":24,"x_max":1300,"o":"m 903 -7 q 726 27 788 -7 q 653 158 664 61 l 653 214 l 351 214 l 225 0 l 24 0 l 440 763 q 555 921 494 863 q 695 1003 615 979 q 883 1028 775 1028 q 1115 1022 1006 1028 q 1300 1010 1224 1015 l 1300 838 l 921 838 q 856 818 875 838 q 838 761 838 799 l 838 604 l 1235 593 l 1235 431 l 838 419 l 838 278 q 852 218 838 238 q 891 192 867 199 q 943 186 915 186 l 1300 186 l 1300 15 q 1115 0 1213 7 q 903 -7 1018 -7 m 443 389 l 653 389 l 653 781 l 443 389 z "},"B":{"ha":871,"x_min":89,"x_max":819,"o":"m 89 0 l 89 1028 l 493 1028 q 716 958 646 1028 q 786 758 786 888 q 769 651 786 697 q 719 574 751 604 q 643 533 688 544 q 708 507 676 525 q 765 458 739 489 q 805 384 790 428 q 819 283 819 340 q 784 117 819 179 q 680 27 749 54 q 511 0 611 0 l 89 0 m 294 185 l 506 185 q 568 199 542 185 q 609 242 594 213 q 624 319 624 271 q 608 388 624 360 q 567 431 593 415 q 506 446 540 446 l 294 446 l 294 185 m 294 604 l 494 604 q 565 637 539 604 q 590 722 590 669 q 563 817 592 790 q 492 843 533 843 l 294 843 l 294 604 z "},"Ḃ":{"ha":871,"x_min":89,"x_max":819,"o":"m 89 0 l 89 1028 l 493 1028 q 716 958 646 1028 q 786 758 786 888 q 769 651 786 697 q 719 574 751 604 q 643 533 688 544 q 708 507 676 525 q 765 458 739 489 q 805 384 790 428 q 819 283 819 340 q 784 117 819 179 q 680 27 749 54 q 511 0 611 0 l 89 0 m 294 185 l 506 185 q 568 199 542 185 q 609 242 594 213 q 624 319 624 271 q 608 388 624 360 q 567 431 593 415 q 506 446 540 446 l 294 446 l 294 185 m 294 604 l 494 604 q 565 637 539 604 q 590 722 590 669 q 563 817 592 790 q 492 843 533 843 l 294 843 l 294 604 z "},"C":{"ha":814,"x_min":63,"x_max":758,"o":"m 435 -8 q 276 13 344 -8 q 159 89 207 33 q 87 248 111 144 q 63 517 63 351 q 88 778 63 676 q 163 937 114 881 q 281 1015 211 993 q 438 1038 350 1038 q 567 1030 507 1038 q 676 1012 628 1022 q 758 989 725 1001 l 758 829 q 691 840 733 835 q 594 849 649 846 q 481 853 540 853 q 381 840 422 853 q 316 791 340 826 q 280 689 292 756 q 268 515 268 622 q 278 346 268 413 q 313 242 289 279 q 377 191 336 206 q 481 176 418 176 q 652 181 586 176 q 758 190 718 185 l 758 32 q 672 10 721 19 q 565 -3 624 1 q 435 -8 507 -8 z "},"Ć":{"ha":814,"x_min":63,"x_max":758,"o":"m 435 -8 q 276 13 344 -8 q 159 89 207 33 q 87 248 111 144 q 63 517 63 351 q 88 778 63 676 q 163 937 114 881 q 281 1015 211 993 q 438 1038 350 1038 q 567 1030 507 1038 q 676 1012 628 1022 q 758 989 725 1001 l 758 829 q 691 840 733 835 q 594 849 649 846 q 481 853 540 853 q 381 840 422 853 q 316 791 340 826 q 280 689 292 756 q 268 515 268 622 q 278 346 268 413 q 313 242 289 279 q 377 191 336 206 q 481 176 418 176 q 652 181 586 176 q 758 190 718 185 l 758 32 q 672 10 721 19 q 565 -3 624 1 q 435 -8 507 -8 z "},"Č":{"ha":814,"x_min":63,"x_max":758,"o":"m 435 -8 q 276 13 344 -8 q 159 89 207 33 q 87 248 111 144 q 63 517 63 351 q 88 778 63 676 q 163 937 114 881 q 281 1015 211 993 q 438 1038 350 1038 q 567 1030 507 1038 q 676 1012 628 1022 q 758 989 725 1001 l 758 829 q 691 840 733 835 q 594 849 649 846 q 481 853 540 853 q 381 840 422 853 q 316 791 340 826 q 280 689 292 756 q 268 515 268 622 q 278 346 268 413 q 313 242 289 279 q 377 191 336 206 q 481 176 418 176 q 652 181 586 176 q 758 190 718 185 l 758 32 q 672 10 721 19 q 565 -3 624 1 q 435 -8 507 -8 z "},"Ç":{"ha":814,"x_min":63,"x_max":758,"o":"m 435 -8 q 276 13 344 -8 q 159 89 207 33 q 87 248 111 144 q 63 517 63 351 q 88 778 63 676 q 163 937 114 881 q 281 1015 211 993 q 438 1038 350 1038 q 567 1030 507 1038 q 676 1012 628 1022 q 758 989 725 1001 l 758 829 q 691 840 733 835 q 594 849 649 846 q 481 853 540 853 q 381 840 422 853 q 316 791 340 826 q 280 689 292 756 q 268 515 268 622 q 278 346 268 413 q 313 242 289 279 q 377 191 336 206 q 481 176 418 176 q 652 181 586 176 q 758 190 718 185 l 758 32 q 672 10 721 19 q 565 -3 624 1 q 435 -8 507 -8 z "},"Ḉ":{"ha":814,"x_min":63,"x_max":758,"o":"m 435 -8 q 276 13 344 -8 q 159 89 207 33 q 87 248 111 144 q 63 517 63 351 q 88 778 63 676 q 163 937 114 881 q 281 1015 211 993 q 438 1038 350 1038 q 567 1030 507 1038 q 676 1012 628 1022 q 758 989 725 1001 l 758 829 q 691 840 733 835 q 594 849 649 846 q 481 853 540 853 q 381 840 422 853 q 316 791 340 826 q 280 689 292 756 q 268 515 268 622 q 278 346 268 413 q 313 242 289 279 q 377 191 336 206 q 481 176 418 176 q 652 181 586 176 q 758 190 718 185 l 758 32 q 672 10 721 19 q 565 -3 624 1 q 435 -8 507 -8 z "},"Ĉ":{"ha":814,"x_min":63,"x_max":758,"o":"m 435 -8 q 276 13 344 -8 q 159 89 207 33 q 87 248 111 144 q 63 517 63 351 q 88 778 63 676 q 163 937 114 881 q 281 1015 211 993 q 438 1038 350 1038 q 567 1030 507 1038 q 676 1012 628 1022 q 758 989 725 1001 l 758 829 q 691 840 733 835 q 594 849 649 846 q 481 853 540 853 q 381 840 422 853 q 316 791 340 826 q 280 689 292 756 q 268 515 268 622 q 278 346 268 413 q 313 242 289 279 q 377 191 336 206 q 481 176 418 176 q 652 181 586 176 q 758 190 718 185 l 758 32 q 672 10 721 19 q 565 -3 624 1 q 435 -8 507 -8 z "},"Ċ":{"ha":814,"x_min":63,"x_max":758,"o":"m 435 -8 q 276 13 344 -8 q 159 89 207 33 q 87 248 111 144 q 63 517 63 351 q 88 778 63 676 q 163 937 114 881 q 281 1015 211 993 q 438 1038 350 1038 q 567 1030 507 1038 q 676 1012 628 1022 q 758 989 725 1001 l 758 829 q 691 840 733 835 q 594 849 649 846 q 481 853 540 853 q 381 840 422 853 q 316 791 340 826 q 280 689 292 756 q 268 515 268 622 q 278 346 268 413 q 313 242 289 279 q 377 191 336 206 q 481 176 418 176 q 652 181 586 176 q 758 190 718 185 l 758 32 q 672 10 721 19 q 565 -3 624 1 q 435 -8 507 -8 z "},"D":{"ha":944,"x_min":89,"x_max":882,"o":"m 89 0 l 89 1028 l 524 1028 q 697 991 628 1028 q 808 885 767 954 q 865 722 849 817 q 882 514 882 628 q 842 226 882 340 q 724 56 803 113 q 524 0 644 0 l 89 0 m 294 185 l 503 185 q 604 222 567 185 q 659 332 642 258 q 676 514 676 406 q 665 678 676 614 q 633 779 654 743 q 578 829 611 815 q 503 843 546 843 l 294 843 l 294 185 z "},"Ð":{"ha":944,"x_min":17,"x_max":882,"o":"m 17 450 l 17 585 l 460 585 l 460 450 l 17 450 m 89 0 l 89 1028 l 524 1028 q 697 991 628 1028 q 808 885 767 954 q 865 722 849 817 q 882 514 882 628 q 842 226 882 340 q 724 56 803 113 q 524 0 644 0 l 89 0 m 294 185 l 503 185 q 604 222 567 185 q 659 332 642 258 q 676 514 676 406 q 665 678 676 614 q 633 779 654 743 q 578 829 611 815 q 503 843 546 843 l 294 843 l 294 185 z "},"Ď":{"ha":944,"x_min":89,"x_max":882,"o":"m 89 0 l 89 1028 l 524 1028 q 697 991 628 1028 q 808 885 767 954 q 865 722 849 817 q 882 514 882 628 q 842 226 882 340 q 724 56 803 113 q 524 0 644 0 l 89 0 m 294 185 l 503 185 q 604 222 567 185 q 659 332 642 258 q 676 514 676 406 q 665 678 676 614 q 633 779 654 743 q 578 829 611 815 q 503 843 546 843 l 294 843 l 294 185 z "},"Đ":{"ha":944,"x_min":17,"x_max":882,"o":"m 17 450 l 17 585 l 460 585 l 460 450 l 17 450 m 89 0 l 89 1028 l 524 1028 q 697 991 628 1028 q 808 885 767 954 q 865 722 849 817 q 882 514 882 628 q 842 226 882 340 q 724 56 803 113 q 524 0 644 0 l 89 0 m 294 185 l 503 185 q 604 222 567 185 q 659 332 642 258 q 676 514 676 406 q 665 678 676 614 q 633 779 654 743 q 578 829 611 815 q 503 843 546 843 l 294 843 l 294 185 z "},"Ḋ":{"ha":944,"x_min":89,"x_max":882,"o":"m 89 0 l 89 1028 l 524 1028 q 697 991 628 1028 q 808 885 767 954 q 865 722 849 817 q 882 514 882 628 q 842 226 882 340 q 724 56 803 113 q 524 0 644 0 l 89 0 m 294 185 l 503 185 q 604 222 567 185 q 659 332 642 258 q 676 514 676 406 q 665 678 676 614 q 633 779 654 743 q 578 829 611 815 q 503 843 546 843 l 294 843 l 294 185 z "},"Ḍ":{"ha":944,"x_min":89,"x_max":882,"o":"m 89 0 l 89 1028 l 524 1028 q 697 991 628 1028 q 808 885 767 954 q 865 722 849 817 q 882 514 882 628 q 842 226 882 340 q 724 56 803 113 q 524 0 644 0 l 89 0 m 294 185 l 503 185 q 604 222 567 185 q 659 332 642 258 q 676 514 676 406 q 665 678 676 614 q 633 779 654 743 q 578 829 611 815 q 503 843 546 843 l 294 843 l 294 185 z "},"Ḏ":{"ha":944,"x_min":89,"x_max":882,"o":"m 89 0 l 89 1028 l 524 1028 q 697 991 628 1028 q 808 885 767 954 q 865 722 849 817 q 882 514 882 628 q 842 226 882 340 q 724 56 803 113 q 524 0 644 0 l 89 0 m 294 185 l 503 185 q 604 222 567 185 q 659 332 642 258 q 676 514 676 406 q 665 678 676 614 q 633 779 654 743 q 578 829 611 815 q 503 843 546 843 l 294 843 l 294 185 z "},"E":{"ha":829,"x_min":89,"x_max":768,"o":"m 339 -7 q 263 -1 306 -7 q 180 28 219 6 q 115 95 140 50 q 89 219 89 140 l 89 793 q 110 907 89 861 q 165 979 131 953 q 242 1017 200 1006 q 324 1028 283 1028 q 508 1025 428 1028 q 651 1019 588 1022 q 768 1010 715 1015 l 768 838 l 385 838 q 318 817 342 838 q 294 753 294 796 l 294 604 l 701 593 l 701 431 l 294 419 l 294 278 q 306 222 294 242 q 338 194 318 201 q 381 186 358 186 l 768 186 l 768 14 q 633 3 707 7 q 483 -4 558 -1 q 339 -7 407 -7 z "},"É":{"ha":829,"x_min":89,"x_max":768,"o":"m 339 -7 q 263 -1 306 -7 q 180 28 219 6 q 115 95 140 50 q 89 219 89 140 l 89 793 q 110 907 89 861 q 165 979 131 953 q 242 1017 200 1006 q 324 1028 283 1028 q 508 1025 428 1028 q 651 1019 588 1022 q 768 1010 715 1015 l 768 838 l 385 838 q 318 817 342 838 q 294 753 294 796 l 294 604 l 701 593 l 701 431 l 294 419 l 294 278 q 306 222 294 242 q 338 194 318 201 q 381 186 358 186 l 768 186 l 768 14 q 633 3 707 7 q 483 -4 558 -1 q 339 -7 407 -7 z "},"Ĕ":{"ha":829,"x_min":89,"x_max":768,"o":"m 339 -7 q 263 -1 306 -7 q 180 28 219 6 q 115 95 140 50 q 89 219 89 140 l 89 793 q 110 907 89 861 q 165 979 131 953 q 242 1017 200 1006 q 324 1028 283 1028 q 508 1025 428 1028 q 651 1019 588 1022 q 768 1010 715 1015 l 768 838 l 385 838 q 318 817 342 838 q 294 753 294 796 l 294 604 l 701 593 l 701 431 l 294 419 l 294 278 q 306 222 294 242 q 338 194 318 201 q 381 186 358 186 l 768 186 l 768 14 q 633 3 707 7 q 483 -4 558 -1 q 339 -7 407 -7 z "},"Ě":{"ha":829,"x_min":89,"x_max":768,"o":"m 339 -7 q 263 -1 306 -7 q 180 28 219 6 q 115 95 140 50 q 89 219 89 140 l 89 793 q 110 907 89 861 q 165 979 131 953 q 242 1017 200 1006 q 324 1028 283 1028 q 508 1025 428 1028 q 651 1019 588 1022 q 768 1010 715 1015 l 768 838 l 385 838 q 318 817 342 838 q 294 753 294 796 l 294 604 l 701 593 l 701 431 l 294 419 l 294 278 q 306 222 294 242 q 338 194 318 201 q 381 186 358 186 l 768 186 l 768 14 q 633 3 707 7 q 483 -4 558 -1 q 339 -7 407 -7 z "},"Ḝ":{"ha":829,"x_min":89,"x_max":768,"o":"m 339 -7 q 263 -1 306 -7 q 180 28 219 6 q 115 95 140 50 q 89 219 89 140 l 89 793 q 110 907 89 861 q 165 979 131 953 q 242 1017 200 1006 q 324 1028 283 1028 q 508 1025 428 1028 q 651 1019 588 1022 q 768 1010 715 1015 l 768 838 l 385 838 q 318 817 342 838 q 294 753 294 796 l 294 604 l 701 593 l 701 431 l 294 419 l 294 278 q 306 222 294 242 q 338 194 318 201 q 381 186 358 186 l 768 186 l 768 14 q 633 3 707 7 q 483 -4 558 -1 q 339 -7 407 -7 z "},"Ê":{"ha":829,"x_min":89,"x_max":768,"o":"m 339 -7 q 263 -1 306 -7 q 180 28 219 6 q 115 95 140 50 q 89 219 89 140 l 89 793 q 110 907 89 861 q 165 979 131 953 q 242 1017 200 1006 q 324 1028 283 1028 q 508 1025 428 1028 q 651 1019 588 1022 q 768 1010 715 1015 l 768 838 l 385 838 q 318 817 342 838 q 294 753 294 796 l 294 604 l 701 593 l 701 431 l 294 419 l 294 278 q 306 222 294 242 q 338 194 318 201 q 381 186 358 186 l 768 186 l 768 14 q 633 3 707 7 q 483 -4 558 -1 q 339 -7 407 -7 z "},"Ế":{"ha":829,"x_min":89,"x_max":794,"o":"m 339 -7 q 263 -1 306 -7 q 180 28 219 6 q 115 95 140 50 q 89 219 89 140 l 89 793 q 110 907 89 861 q 165 979 131 953 q 242 1017 200 1006 q 324 1028 283 1028 q 508 1025 428 1028 q 651 1019 588 1022 q 768 1010 715 1015 l 768 838 l 385 838 q 318 817 342 838 q 294 753 294 796 l 294 604 l 701 593 l 701 431 l 294 419 l 294 278 q 306 222 294 242 q 338 194 318 201 q 381 186 358 186 l 768 186 l 768 14 q 633 3 707 7 q 483 -4 558 -1 q 339 -7 407 -7 m 369 1250 l 510 1250 l 646 1099 l 526 1099 l 436 1158 l 339 1099 l 218 1099 l 369 1250 m 628 1390 l 794 1390 l 686 1217 l 565 1217 l 628 1390 z "},"Ệ":{"ha":829,"x_min":89,"x_max":768,"o":"m 339 -7 q 263 -1 306 -7 q 180 28 219 6 q 115 95 140 50 q 89 219 89 140 l 89 793 q 110 907 89 861 q 165 979 131 953 q 242 1017 200 1006 q 324 1028 283 1028 q 508 1025 428 1028 q 651 1019 588 1022 q 768 1010 715 1015 l 768 838 l 385 838 q 318 817 342 838 q 294 753 294 796 l 294 604 l 701 593 l 701 431 l 294 419 l 294 278 q 306 222 294 242 q 338 194 318 201 q 381 186 358 186 l 768 186 l 768 14 q 633 3 707 7 q 483 -4 558 -1 q 339 -7 407 -7 z "},"Ề":{"ha":829,"x_min":76,"x_max":768,"o":"m 339 -7 q 263 -1 306 -7 q 180 28 219 6 q 115 95 140 50 q 89 219 89 140 l 89 793 q 110 907 89 861 q 165 979 131 953 q 242 1017 200 1006 q 324 1028 283 1028 q 508 1025 428 1028 q 651 1019 588 1022 q 768 1010 715 1015 l 768 838 l 385 838 q 318 817 342 838 q 294 753 294 796 l 294 604 l 701 593 l 701 431 l 294 419 l 294 278 q 306 222 294 242 q 338 194 318 201 q 381 186 358 186 l 768 186 l 768 14 q 633 3 707 7 q 483 -4 558 -1 q 339 -7 407 -7 m 369 1250 l 510 1250 l 646 1099 l 526 1099 l 436 1158 l 339 1099 l 218 1099 l 369 1250 m 76 1390 l 243 1390 l 307 1217 l 186 1217 l 76 1390 z "},"Ể":{"ha":829,"x_min":89,"x_max":768,"o":"m 339 -7 q 263 -1 306 -7 q 180 28 219 6 q 115 95 140 50 q 89 219 89 140 l 89 793 q 110 907 89 861 q 165 979 131 953 q 242 1017 200 1006 q 324 1028 283 1028 q 508 1025 428 1028 q 651 1019 588 1022 q 768 1010 715 1015 l 768 838 l 385 838 q 318 817 342 838 q 294 753 294 796 l 294 604 l 701 593 l 701 431 l 294 419 l 294 278 q 306 222 294 242 q 338 194 318 201 q 381 186 358 186 l 768 186 l 768 14 q 633 3 707 7 q 483 -4 558 -1 q 339 -7 407 -7 m 218 1099 l 369 1250 l 510 1250 l 646 1099 l 526 1099 l 436 1158 l 339 1099 l 218 1099 m 599 1175 l 599 1265 q 633 1285 624 1272 q 642 1311 642 1299 q 634 1335 642 1328 q 607 1343 626 1343 q 585 1341 597 1343 q 563 1335 574 1339 l 563 1406 q 596 1414 578 1411 q 635 1417 614 1417 q 714 1392 689 1417 q 739 1325 739 1368 q 706 1233 739 1269 q 599 1175 672 1197 z "},"Ễ":{"ha":829,"x_min":89,"x_max":768,"o":"m 339 -7 q 263 -1 306 -7 q 180 28 219 6 q 115 95 140 50 q 89 219 89 140 l 89 793 q 110 907 89 861 q 165 979 131 953 q 242 1017 200 1006 q 324 1028 283 1028 q 508 1025 428 1028 q 651 1019 588 1022 q 768 1010 715 1015 l 768 838 l 385 838 q 318 817 342 838 q 294 753 294 796 l 294 604 l 701 593 l 701 431 l 294 419 l 294 278 q 306 222 294 242 q 338 194 318 201 q 381 186 358 186 l 768 186 l 768 14 q 633 3 707 7 q 483 -4 558 -1 q 339 -7 407 -7 m 204 1307 q 226 1395 208 1365 q 269 1436 243 1425 q 326 1447 296 1447 q 388 1438 360 1447 q 442 1418 417 1428 q 490 1408 467 1408 q 531 1420 517 1408 q 544 1454 544 1432 l 647 1454 q 628 1366 643 1397 q 589 1322 614 1335 q 528 1310 564 1310 q 462 1319 494 1310 q 401 1339 429 1329 q 351 1349 374 1349 q 320 1337 332 1349 q 307 1307 308 1325 l 204 1307 m 510 1250 l 646 1099 l 526 1099 l 436 1158 l 339 1099 l 218 1099 l 369 1250 l 510 1250 z "},"Ȅ":{"ha":829,"x_min":89,"x_max":768,"o":"m 339 -7 q 263 -1 306 -7 q 180 28 219 6 q 115 95 140 50 q 89 219 89 140 l 89 793 q 110 907 89 861 q 165 979 131 953 q 242 1017 200 1006 q 324 1028 283 1028 q 508 1025 428 1028 q 651 1019 588 1022 q 768 1010 715 1015 l 768 838 l 385 838 q 318 817 342 838 q 294 753 294 796 l 294 604 l 701 593 l 701 431 l 294 419 l 294 278 q 306 222 294 242 q 338 194 318 201 q 381 186 358 186 l 768 186 l 768 14 q 633 3 707 7 q 483 -4 558 -1 q 339 -7 407 -7 m 519 1099 l 361 1293 l 526 1293 l 642 1099 l 519 1099 m 272 1099 l 113 1293 l 279 1293 l 393 1099 l 272 1099 z "},"Ë":{"ha":829,"x_min":89,"x_max":768,"o":"m 339 -7 q 263 -1 306 -7 q 180 28 219 6 q 115 95 140 50 q 89 219 89 140 l 89 793 q 110 907 89 861 q 165 979 131 953 q 242 1017 200 1006 q 324 1028 283 1028 q 508 1025 428 1028 q 651 1019 588 1022 q 768 1010 715 1015 l 768 838 l 385 838 q 318 817 342 838 q 294 753 294 796 l 294 604 l 701 593 l 701 431 l 294 419 l 294 278 q 306 222 294 242 q 338 194 318 201 q 381 186 358 186 l 768 186 l 768 14 q 633 3 707 7 q 483 -4 558 -1 q 339 -7 407 -7 m 525 1107 q 497 1136 497 1107 l 497 1271 q 525 1301 497 1301 l 621 1301 q 642 1293 635 1301 q 649 1271 649 1285 l 649 1136 q 621 1107 649 1107 l 525 1107 m 231 1107 q 201 1136 201 1107 l 201 1271 q 231 1301 201 1301 l 326 1301 q 347 1293 340 1301 q 354 1271 354 1285 l 354 1136 q 326 1107 354 1107 l 231 1107 z "},"Ė":{"ha":829,"x_min":89,"x_max":768,"o":"m 339 -7 q 263 -1 306 -7 q 180 28 219 6 q 115 95 140 50 q 89 219 89 140 l 89 793 q 110 907 89 861 q 165 979 131 953 q 242 1017 200 1006 q 324 1028 283 1028 q 508 1025 428 1028 q 651 1019 588 1022 q 768 1010 715 1015 l 768 838 l 385 838 q 318 817 342 838 q 294 753 294 796 l 294 604 l 701 593 l 701 431 l 294 419 l 294 278 q 306 222 294 242 q 338 194 318 201 q 381 186 358 186 l 768 186 l 768 14 q 633 3 707 7 q 483 -4 558 -1 q 339 -7 407 -7 z "},"Ẹ":{"ha":829,"x_min":89,"x_max":768,"o":"m 339 -7 q 263 -1 306 -7 q 180 28 219 6 q 115 95 140 50 q 89 219 89 140 l 89 793 q 110 907 89 861 q 165 979 131 953 q 242 1017 200 1006 q 324 1028 283 1028 q 508 1025 428 1028 q 651 1019 588 1022 q 768 1010 715 1015 l 768 838 l 385 838 q 318 817 342 838 q 294 753 294 796 l 294 604 l 701 593 l 701 431 l 294 419 l 294 278 q 306 222 294 242 q 338 194 318 201 q 381 186 358 186 l 768 186 l 768 14 q 633 3 707 7 q 483 -4 558 -1 q 339 -7 407 -7 z "},"È":{"ha":829,"x_min":89,"x_max":768,"o":"m 339 -7 q 263 -1 306 -7 q 180 28 219 6 q 115 95 140 50 q 89 219 89 140 l 89 793 q 110 907 89 861 q 165 979 131 953 q 242 1017 200 1006 q 324 1028 283 1028 q 508 1025 428 1028 q 651 1019 588 1022 q 768 1010 715 1015 l 768 838 l 385 838 q 318 817 342 838 q 294 753 294 796 l 294 604 l 701 593 l 701 431 l 294 419 l 294 278 q 306 222 294 242 q 338 194 318 201 q 381 186 358 186 l 768 186 l 768 14 q 633 3 707 7 q 483 -4 558 -1 q 339 -7 407 -7 z "},"Ẻ":{"ha":829,"x_min":89,"x_max":768,"o":"m 339 -7 q 263 -1 306 -7 q 180 28 219 6 q 115 95 140 50 q 89 219 89 140 l 89 793 q 110 907 89 861 q 165 979 131 953 q 242 1017 200 1006 q 324 1028 283 1028 q 508 1025 428 1028 q 651 1019 588 1022 q 768 1010 715 1015 l 768 838 l 385 838 q 318 817 342 838 q 294 753 294 796 l 294 604 l 701 593 l 701 431 l 294 419 l 294 278 q 306 222 294 242 q 338 194 318 201 q 381 186 358 186 l 768 186 l 768 14 q 633 3 707 7 q 483 -4 558 -1 q 339 -7 407 -7 z "},"Ȇ":{"ha":829,"x_min":89,"x_max":768,"o":"m 339 -7 q 263 -1 306 -7 q 180 28 219 6 q 115 95 140 50 q 89 219 89 140 l 89 793 q 110 907 89 861 q 165 979 131 953 q 242 1017 200 1006 q 324 1028 283 1028 q 508 1025 428 1028 q 651 1019 588 1022 q 768 1010 715 1015 l 768 838 l 385 838 q 318 817 342 838 q 294 753 294 796 l 294 604 l 701 593 l 701 431 l 294 419 l 294 278 q 306 222 294 242 q 338 194 318 201 q 381 186 358 186 l 768 186 l 768 14 q 633 3 707 7 q 483 -4 558 -1 q 339 -7 407 -7 z "},"Ē":{"ha":829,"x_min":89,"x_max":768,"o":"m 339 -7 q 263 -1 306 -7 q 180 28 219 6 q 115 95 140 50 q 89 219 89 140 l 89 793 q 110 907 89 861 q 165 979 131 953 q 242 1017 200 1006 q 324 1028 283 1028 q 508 1025 428 1028 q 651 1019 588 1022 q 768 1010 715 1015 l 768 838 l 385 838 q 318 817 342 838 q 294 753 294 796 l 294 604 l 701 593 l 701 431 l 294 419 l 294 278 q 306 222 294 242 q 338 194 318 201 q 381 186 358 186 l 768 186 l 768 14 q 633 3 707 7 q 483 -4 558 -1 q 339 -7 407 -7 z "},"Ḗ":{"ha":829,"x_min":89,"x_max":768,"o":"m 339 -7 q 263 -1 306 -7 q 180 28 219 6 q 115 95 140 50 q 89 219 89 140 l 89 793 q 110 907 89 861 q 165 979 131 953 q 242 1017 200 1006 q 324 1028 283 1028 q 508 1025 428 1028 q 651 1019 588 1022 q 768 1010 715 1015 l 768 838 l 385 838 q 318 817 342 838 q 294 753 294 796 l 294 604 l 701 593 l 701 431 l 294 419 l 294 278 q 306 222 294 242 q 338 194 318 201 q 381 186 358 186 l 768 186 l 768 14 q 633 3 707 7 q 483 -4 558 -1 q 339 -7 407 -7 z "},"Ḕ":{"ha":829,"x_min":89,"x_max":768,"o":"m 339 -7 q 263 -1 306 -7 q 180 28 219 6 q 115 95 140 50 q 89 219 89 140 l 89 793 q 110 907 89 861 q 165 979 131 953 q 242 1017 200 1006 q 324 1028 283 1028 q 508 1025 428 1028 q 651 1019 588 1022 q 768 1010 715 1015 l 768 838 l 385 838 q 318 817 342 838 q 294 753 294 796 l 294 604 l 701 593 l 701 431 l 294 419 l 294 278 q 306 222 294 242 q 338 194 318 201 q 381 186 358 186 l 768 186 l 768 14 q 633 3 707 7 q 483 -4 558 -1 q 339 -7 407 -7 z "},"Ę":{"ha":829,"x_min":89,"x_max":793,"o":"m 339 -7 q 263 -1 306 -7 q 180 28 219 6 q 115 95 140 50 q 89 219 89 140 l 89 793 q 110 907 89 861 q 165 979 131 953 q 242 1017 200 1006 q 324 1028 283 1028 q 508 1025 428 1028 q 651 1019 588 1022 q 768 1010 715 1015 l 768 838 l 385 838 q 318 817 342 838 q 294 753 294 796 l 294 604 l 701 593 l 701 431 l 294 419 l 294 278 q 306 222 294 242 q 338 194 318 201 q 381 186 358 186 l 768 186 l 768 14 q 633 3 707 7 q 483 -4 558 -1 q 339 -7 407 -7 z "},"Ẽ":{"ha":829,"x_min":89,"x_max":768,"o":"m 339 -7 q 263 -1 306 -7 q 180 28 219 6 q 115 95 140 50 q 89 219 89 140 l 89 793 q 110 907 89 861 q 165 979 131 953 q 242 1017 200 1006 q 324 1028 283 1028 q 508 1025 428 1028 q 651 1019 588 1022 q 768 1010 715 1015 l 768 838 l 385 838 q 318 817 342 838 q 294 753 294 796 l 294 604 l 701 593 l 701 431 l 294 419 l 294 278 q 306 222 294 242 q 338 194 318 201 q 381 186 358 186 l 768 186 l 768 14 q 633 3 707 7 q 483 -4 558 -1 q 339 -7 407 -7 z "},"F":{"ha":810,"x_min":89,"x_max":768,"o":"m 89 0 l 89 793 q 110 907 89 861 q 165 979 131 953 q 242 1017 200 1006 q 324 1028 283 1028 q 448 1027 374 1028 q 606 1022 522 1026 q 768 1010 690 1018 l 768 838 l 381 838 q 316 815 338 838 q 294 754 294 792 l 294 579 l 701 568 l 701 406 l 294 394 l 294 0 l 89 0 z "},"Ḟ":{"ha":810,"x_min":89,"x_max":768,"o":"m 89 0 l 89 793 q 110 907 89 861 q 165 979 131 953 q 242 1017 200 1006 q 324 1028 283 1028 q 448 1027 374 1028 q 606 1022 522 1026 q 768 1010 690 1018 l 768 838 l 381 838 q 316 815 338 838 q 294 754 294 792 l 294 579 l 701 568 l 701 406 l 294 394 l 294 0 l 89 0 z "},"G":{"ha":925,"x_min":63,"x_max":836,"o":"m 381 -7 q 222 30 283 -7 q 125 135 160 67 q 76 300 90 204 q 63 514 63 396 q 78 735 63 638 q 135 899 94 832 q 251 1002 176 967 q 442 1038 325 1038 q 572 1032 513 1038 q 683 1016 631 1026 q 789 992 736 1006 l 789 833 q 711 842 760 838 q 603 849 663 846 q 479 853 543 853 q 347 822 392 853 q 285 716 301 790 q 268 513 268 642 q 277 349 268 413 q 307 248 286 285 q 362 197 328 211 q 446 182 396 182 q 555 192 503 182 q 639 211 607 201 l 639 411 l 454 411 l 454 574 q 524 581 483 578 q 608 585 564 583 q 692 588 651 588 q 772 587 736 588 q 836 583 807 586 l 836 0 l 682 0 l 654 69 q 540 19 614 46 q 381 -7 467 -7 z "},"Ğ":{"ha":925,"x_min":63,"x_max":836,"o":"m 381 -7 q 222 30 283 -7 q 125 135 160 67 q 76 300 90 204 q 63 514 63 396 q 78 735 63 638 q 135 899 94 832 q 251 1002 176 967 q 442 1038 325 1038 q 572 1032 513 1038 q 683 1016 631 1026 q 789 992 736 1006 l 789 833 q 711 842 760 838 q 603 849 663 846 q 479 853 543 853 q 347 822 392 853 q 285 716 301 790 q 268 513 268 642 q 277 349 268 413 q 307 248 286 285 q 362 197 328 211 q 446 182 396 182 q 555 192 503 182 q 639 211 607 201 l 639 411 l 454 411 l 454 574 q 524 581 483 578 q 608 585 564 583 q 692 588 651 588 q 772 587 736 588 q 836 583 807 586 l 836 0 l 682 0 l 654 69 q 540 19 614 46 q 381 -7 467 -7 z "},"Ǧ":{"ha":925,"x_min":63,"x_max":836,"o":"m 381 -7 q 222 30 283 -7 q 125 135 160 67 q 76 300 90 204 q 63 514 63 396 q 78 735 63 638 q 135 899 94 832 q 251 1002 176 967 q 442 1038 325 1038 q 572 1032 513 1038 q 683 1016 631 1026 q 789 992 736 1006 l 789 833 q 711 842 760 838 q 603 849 663 846 q 479 853 543 853 q 347 822 392 853 q 285 716 301 790 q 268 513 268 642 q 277 349 268 413 q 307 248 286 285 q 362 197 328 211 q 446 182 396 182 q 555 192 503 182 q 639 211 607 201 l 639 411 l 454 411 l 454 574 q 524 581 483 578 q 608 585 564 583 q 692 588 651 588 q 772 587 736 588 q 836 583 807 586 l 836 0 l 682 0 l 654 69 q 540 19 614 46 q 381 -7 467 -7 z "},"Ĝ":{"ha":925,"x_min":63,"x_max":836,"o":"m 381 -7 q 222 30 283 -7 q 125 135 160 67 q 76 300 90 204 q 63 514 63 396 q 78 735 63 638 q 135 899 94 832 q 251 1002 176 967 q 442 1038 325 1038 q 572 1032 513 1038 q 683 1016 631 1026 q 789 992 736 1006 l 789 833 q 711 842 760 838 q 603 849 663 846 q 479 853 543 853 q 347 822 392 853 q 285 716 301 790 q 268 513 268 642 q 277 349 268 413 q 307 248 286 285 q 362 197 328 211 q 446 182 396 182 q 555 192 503 182 q 639 211 607 201 l 639 411 l 454 411 l 454 574 q 524 581 483 578 q 608 585 564 583 q 692 588 651 588 q 772 587 736 588 q 836 583 807 586 l 836 0 l 682 0 l 654 69 q 540 19 614 46 q 381 -7 467 -7 z "},"Ģ":{"ha":925,"x_min":63,"x_max":836,"o":"m 381 -7 q 222 30 283 -7 q 125 135 160 67 q 76 300 90 204 q 63 514 63 396 q 78 735 63 638 q 135 899 94 832 q 251 1002 176 967 q 442 1038 325 1038 q 572 1032 513 1038 q 683 1016 631 1026 q 789 992 736 1006 l 789 833 q 711 842 760 838 q 603 849 663 846 q 479 853 543 853 q 347 822 392 853 q 285 716 301 790 q 268 513 268 642 q 277 349 268 413 q 307 248 286 285 q 362 197 328 211 q 446 182 396 182 q 555 192 503 182 q 639 211 607 201 l 639 411 l 454 411 l 454 574 q 524 581 483 578 q 608 585 564 583 q 692 588 651 588 q 772 587 736 588 q 836 583 807 586 l 836 0 l 682 0 l 654 69 q 540 19 614 46 q 381 -7 467 -7 m 369 -300 l 369 -215 l 407 -206 q 449 -190 433 -199 q 472 -160 465 -181 q 478 -101 478 -140 l 603 -101 q 589 -215 603 -171 q 540 -279 575 -258 q 442 -300 504 -300 l 369 -300 z "},"Ġ":{"ha":925,"x_min":63,"x_max":836,"o":"m 381 -7 q 222 30 283 -7 q 125 135 160 67 q 76 300 90 204 q 63 514 63 396 q 78 735 63 638 q 135 899 94 832 q 251 1002 176 967 q 442 1038 325 1038 q 572 1032 513 1038 q 683 1016 631 1026 q 789 992 736 1006 l 789 833 q 711 842 760 838 q 603 849 663 846 q 479 853 543 853 q 347 822 392 853 q 285 716 301 790 q 268 513 268 642 q 277 349 268 413 q 307 248 286 285 q 362 197 328 211 q 446 182 396 182 q 555 192 503 182 q 639 211 607 201 l 639 411 l 454 411 l 454 574 q 524 581 483 578 q 608 585 564 583 q 692 588 651 588 q 772 587 736 588 q 836 583 807 586 l 836 0 l 682 0 l 654 69 q 540 19 614 46 q 381 -7 467 -7 z "},"Ḡ":{"ha":925,"x_min":63,"x_max":836,"o":"m 381 -7 q 222 30 283 -7 q 125 135 160 67 q 76 300 90 204 q 63 514 63 396 q 78 735 63 638 q 135 899 94 832 q 251 1002 176 967 q 442 1038 325 1038 q 572 1032 513 1038 q 683 1016 631 1026 q 789 992 736 1006 l 789 833 q 711 842 760 838 q 603 849 663 846 q 479 853 543 853 q 347 822 392 853 q 285 716 301 790 q 268 513 268 642 q 277 349 268 413 q 307 248 286 285 q 362 197 328 211 q 446 182 396 182 q 555 192 503 182 q 639 211 607 201 l 639 411 l 454 411 l 454 574 q 524 581 483 578 q 608 585 564 583 q 692 588 651 588 q 772 587 736 588 q 836 583 807 586 l 836 0 l 682 0 l 654 69 q 540 19 614 46 q 381 -7 467 -7 z "},"H":{"ha":976,"x_min":89,"x_max":889,"o":"m 89 0 l 89 1028 l 294 1028 l 294 600 l 682 600 l 682 1028 l 889 1028 l 889 0 l 682 0 l 682 415 l 294 415 l 294 0 l 89 0 z "},"Ħ":{"ha":976,"x_min":17,"x_max":961,"o":"m 17 719 l 17 822 l 961 822 l 961 719 l 17 719 m 89 0 l 89 1028 l 294 1028 l 294 600 l 682 600 l 682 1028 l 889 1028 l 889 0 l 682 0 l 682 415 l 294 415 l 294 0 l 89 0 z "},"Ḫ":{"ha":976,"x_min":89,"x_max":889,"o":"m 89 0 l 89 1028 l 294 1028 l 294 600 l 682 600 l 682 1028 l 889 1028 l 889 0 l 682 0 l 682 415 l 294 415 l 294 0 l 89 0 z "},"Ĥ":{"ha":976,"x_min":89,"x_max":889,"o":"m 89 0 l 89 1028 l 294 1028 l 294 600 l 682 600 l 682 1028 l 889 1028 l 889 0 l 682 0 l 682 415 l 294 415 l 294 0 l 89 0 z "},"Ḥ":{"ha":976,"x_min":89,"x_max":889,"o":"m 89 0 l 89 1028 l 294 1028 l 294 600 l 682 600 l 682 1028 l 889 1028 l 889 0 l 682 0 l 682 415 l 294 415 l 294 0 l 89 0 z "},"I":{"ha":383,"x_min":89,"x_max":294,"o":"m 89 0 l 89 1028 l 294 1028 l 294 0 l 89 0 z "},"Í":{"ha":383,"x_min":89,"x_max":419,"o":"m 89 0 l 89 1028 l 294 1028 l 294 0 l 89 0 z "},"Ĭ":{"ha":383,"x_min":-11,"x_max":378,"o":"m 89 0 l 89 1028 l 294 1028 l 294 0 l 89 0 z "},"Î":{"ha":383,"x_min":-25,"x_max":404,"o":"m 89 0 l 89 1028 l 294 1028 l 294 0 l 89 0 z "},"Ȉ":{"ha":383,"x_min":-131,"x_max":399,"o":"m 89 0 l 89 1028 l 294 1028 l 294 0 l 89 0 m 276 1099 l 118 1293 l 283 1293 l 399 1099 l 276 1099 m 29 1099 l -131 1293 l 36 1293 l 150 1099 l 29 1099 z "},"Ï":{"ha":383,"x_min":-42,"x_max":406,"o":"m 89 0 l 89 1028 l 294 1028 l 294 0 l 89 0 m 282 1107 q 254 1136 254 1107 l 254 1271 q 282 1301 254 1301 l 378 1301 q 399 1293 392 1301 q 406 1271 406 1285 l 406 1136 q 378 1107 406 1107 l 282 1107 m -12 1107 q -42 1136 -42 1107 l -42 1271 q -12 1301 -42 1301 l 83 1301 q 104 1293 97 1301 q 111 1271 111 1285 l 111 1136 q 83 1107 111 1107 l -12 1107 z "},"Ḯ":{"ha":383,"x_min":-42,"x_max":410,"o":"m 89 0 l 89 1028 l 294 1028 l 294 0 l 89 0 m 282 1107 q 254 1136 254 1107 l 254 1271 q 282 1301 254 1301 l 378 1301 q 399 1293 392 1301 q 406 1271 406 1285 l 406 1136 q 378 1107 406 1107 l 282 1107 m -12 1107 q -42 1136 -42 1107 l -42 1271 q -12 1301 -42 1301 l 83 1301 q 104 1293 97 1301 q 111 1271 111 1285 l 111 1136 q 83 1107 111 1107 l -12 1107 z "},"İ":{"ha":383,"x_min":89,"x_max":294,"o":"m 89 0 l 89 1028 l 294 1028 l 294 0 l 89 0 z "},"Ị":{"ha":383,"x_min":89,"x_max":294,"o":"m 89 0 l 89 1028 l 294 1028 l 294 0 l 89 0 z "},"Ì":{"ha":383,"x_min":-4,"x_max":294,"o":"m 89 0 l 89 1028 l 294 1028 l 294 0 l 89 0 z "},"Ỉ":{"ha":383,"x_min":89,"x_max":314,"o":"m 89 0 l 89 1028 l 294 1028 l 294 0 l 89 0 z "},"Ȋ":{"ha":383,"x_min":-3,"x_max":386,"o":"m 89 0 l 89 1028 l 294 1028 l 294 0 l 89 0 z "},"Ī":{"ha":383,"x_min":-11,"x_max":379,"o":"m 89 0 l 89 1028 l 294 1028 l 294 0 l 89 0 z "},"Į":{"ha":383,"x_min":89,"x_max":319,"o":"m 89 0 l 89 1028 l 294 1028 l 294 0 l 89 0 z "},"Ĩ":{"ha":383,"x_min":-68,"x_max":442,"o":"m 89 0 l 89 1028 l 294 1028 l 294 0 l 89 0 z "},"J":{"ha":561,"x_min":36,"x_max":472,"o":"m 206 -8 q 113 0 160 -8 q 36 19 67 8 l 36 183 q 97 178 65 181 q 158 176 129 176 q 219 188 194 176 q 255 222 243 199 q 267 283 267 244 l 267 1028 l 472 1028 l 472 253 q 445 107 472 165 q 359 20 418 49 q 206 -8 300 -8 z "},"Ĵ":{"ha":561,"x_min":36,"x_max":582,"o":"m 206 -8 q 113 0 160 -8 q 36 19 67 8 l 36 183 q 97 178 65 181 q 158 176 129 176 q 219 188 194 176 q 255 222 243 199 q 267 283 267 244 l 267 1028 l 472 1028 l 472 253 q 445 107 472 165 q 359 20 418 49 q 206 -8 300 -8 z "},"K":{"ha":896,"x_min":89,"x_max":869,"o":"m 89 0 l 89 1028 l 294 1028 l 294 603 l 431 603 l 642 1028 l 861 1028 l 594 511 l 869 0 l 650 0 l 431 417 l 294 417 l 294 0 l 89 0 z "},"Ķ":{"ha":896,"x_min":89,"x_max":869,"o":"m 89 0 l 89 1028 l 294 1028 l 294 603 l 431 603 l 642 1028 l 861 1028 l 594 511 l 869 0 l 650 0 l 431 417 l 294 417 l 294 0 l 89 0 m 326 -300 l 326 -215 l 364 -206 q 406 -190 390 -199 q 428 -160 422 -181 q 435 -101 435 -140 l 560 -101 q 546 -215 560 -171 q 497 -279 532 -258 q 399 -300 461 -300 l 326 -300 z "},"L":{"ha":743,"x_min":89,"x_max":711,"o":"m 332 0 q 198 24 253 0 q 116 102 143 49 q 89 243 89 156 l 89 1028 l 294 1028 l 294 276 q 306 222 294 243 q 339 194 318 201 q 386 186 360 186 l 711 186 l 711 0 l 332 0 z "},"Ĺ":{"ha":743,"x_min":89,"x_max":711,"o":"m 332 0 q 198 24 253 0 q 116 102 143 49 q 89 243 89 156 l 89 1028 l 294 1028 l 294 276 q 306 222 294 243 q 339 194 318 201 q 386 186 360 186 l 711 186 l 711 0 l 332 0 z "},"Ľ":{"ha":743,"x_min":89,"x_max":711,"o":"m 332 0 q 198 24 253 0 q 116 102 143 49 q 89 243 89 156 l 89 1028 l 294 1028 l 294 276 q 306 222 294 243 q 339 194 318 201 q 386 186 360 186 l 711 186 l 711 0 l 332 0 m 406 808 l 393 999 l 393 1088 l 579 1088 l 579 999 l 568 808 l 406 808 z "},"Ļ":{"ha":743,"x_min":89,"x_max":711,"o":"m 332 0 q 198 24 253 0 q 116 102 143 49 q 89 243 89 156 l 89 1028 l 294 1028 l 294 276 q 306 222 294 243 q 339 194 318 201 q 386 186 360 186 l 711 186 l 711 0 l 332 0 m 282 -300 l 282 -215 l 319 -206 q 362 -190 346 -199 q 384 -160 378 -181 q 390 -101 390 -140 l 515 -101 q 501 -215 515 -171 q 452 -279 488 -258 q 354 -300 417 -300 l 282 -300 z "},"Ŀ":{"ha":743,"x_min":89,"x_max":711,"o":"m 332 0 q 198 24 253 0 q 116 102 143 49 q 89 243 89 156 l 89 1028 l 294 1028 l 294 276 q 306 222 294 243 q 339 194 318 201 q 386 186 360 186 l 711 186 l 711 0 l 332 0 z "},"Ḷ":{"ha":743,"x_min":89,"x_max":711,"o":"m 332 0 q 198 24 253 0 q 116 102 143 49 q 89 243 89 156 l 89 1028 l 294 1028 l 294 276 q 306 222 294 243 q 339 194 318 201 q 386 186 360 186 l 711 186 l 711 0 l 332 0 z "},"Ḻ":{"ha":743,"x_min":89,"x_max":711,"o":"m 332 0 q 198 24 253 0 q 116 102 143 49 q 89 243 89 156 l 89 1028 l 294 1028 l 294 276 q 306 222 294 243 q 339 194 318 201 q 386 186 360 186 l 711 186 l 711 0 l 332 0 z "},"Ł":{"ha":743,"x_min":-6,"x_max":711,"o":"m -6 422 l -6 532 l 113 582 l 272 626 l 472 714 l 472 604 l 272 517 l 113 472 l -6 422 m 332 0 q 198 24 253 0 q 116 102 143 49 q 89 243 89 156 l 89 1028 l 294 1028 l 294 276 q 306 222 294 243 q 339 194 318 201 q 386 186 360 186 l 711 186 l 711 0 l 332 0 z "},"M":{"ha":1226,"x_min":61,"x_max":1165,"o":"m 61 0 l 181 1028 l 378 1028 l 614 240 l 849 1028 l 1044 1028 l 1165 0 l 967 0 l 878 757 l 910 754 l 708 0 l 515 0 l 311 754 l 346 756 l 260 0 l 61 0 z "},"Ṁ":{"ha":1226,"x_min":61,"x_max":1165,"o":"m 61 0 l 181 1028 l 378 1028 l 614 240 l 849 1028 l 1044 1028 l 1165 0 l 967 0 l 878 757 l 910 754 l 708 0 l 515 0 l 311 754 l 346 756 l 260 0 l 61 0 z "},"Ṃ":{"ha":1226,"x_min":61,"x_max":1165,"o":"m 61 0 l 181 1028 l 378 1028 l 614 240 l 849 1028 l 1044 1028 l 1165 0 l 967 0 l 878 757 l 910 754 l 708 0 l 515 0 l 311 754 l 346 756 l 260 0 l 61 0 z "},"N":{"ha":978,"x_min":96,"x_max":897,"o":"m 96 0 l 96 1028 l 261 1028 l 692 350 l 692 1028 l 897 1028 l 897 0 l 732 0 l 303 678 l 303 0 l 96 0 z "},"Ń":{"ha":978,"x_min":96,"x_max":897,"o":"m 96 0 l 96 1028 l 261 1028 l 692 350 l 692 1028 l 897 1028 l 897 0 l 732 0 l 303 678 l 303 0 l 96 0 z "},"Ň":{"ha":978,"x_min":96,"x_max":897,"o":"m 96 0 l 96 1028 l 261 1028 l 692 350 l 692 1028 l 897 1028 l 897 0 l 732 0 l 303 678 l 303 0 l 96 0 z "},"Ņ":{"ha":978,"x_min":96,"x_max":897,"o":"m 96 0 l 96 1028 l 261 1028 l 692 350 l 692 1028 l 897 1028 l 897 0 l 732 0 l 303 678 l 303 0 l 96 0 m 356 -300 l 356 -215 l 393 -206 q 435 -190 419 -199 q 458 -160 451 -181 q 464 -101 464 -140 l 589 -101 q 575 -215 589 -171 q 526 -279 561 -258 q 428 -300 490 -300 l 356 -300 z "},"Ṅ":{"ha":978,"x_min":96,"x_max":897,"o":"m 96 0 l 96 1028 l 261 1028 l 692 350 l 692 1028 l 897 1028 l 897 0 l 732 0 l 303 678 l 303 0 l 96 0 z "},"Ṇ":{"ha":978,"x_min":96,"x_max":897,"o":"m 96 0 l 96 1028 l 261 1028 l 692 350 l 692 1028 l 897 1028 l 897 0 l 732 0 l 303 678 l 303 0 l 96 0 z "},"Ŋ":{"ha":968,"x_min":96,"x_max":897,"o":"m 624 -337 q 531 -329 578 -337 q 454 -310 485 -321 l 454 -146 q 519 -151 485 -149 q 583 -153 553 -153 q 643 -142 619 -153 q 679 -108 667 -131 q 692 -46 692 -85 l 692 89 l 897 89 l 897 -76 q 869 -222 897 -164 q 781 -309 842 -281 q 624 -337 719 -337 m 96 0 l 96 1028 l 261 1028 l 692 350 l 692 1028 l 897 1028 l 897 0 l 732 0 l 303 678 l 303 0 l 96 0 z "},"Ṉ":{"ha":978,"x_min":96,"x_max":897,"o":"m 96 0 l 96 1028 l 261 1028 l 692 350 l 692 1028 l 897 1028 l 897 0 l 732 0 l 303 678 l 303 0 l 96 0 z "},"Ñ":{"ha":978,"x_min":96,"x_max":897,"o":"m 96 0 l 96 1028 l 261 1028 l 692 350 l 692 1028 l 897 1028 l 897 0 l 732 0 l 303 678 l 303 0 l 96 0 z "},"O":{"ha":971,"x_min":63,"x_max":908,"o":"m 486 -8 q 301 12 381 -8 q 169 87 222 32 q 89 244 115 142 q 63 513 63 347 q 90 781 63 678 q 169 940 117 885 q 301 1017 222 996 q 486 1038 381 1038 q 671 1017 592 1038 q 803 940 750 996 q 882 781 856 885 q 908 513 908 678 q 882 244 908 347 q 803 87 856 142 q 671 12 750 32 q 486 -8 592 -8 m 486 176 q 590 190 549 176 q 656 240 632 204 q 692 341 681 275 q 703 513 703 407 q 692 690 703 624 q 656 792 681 757 q 590 840 632 828 q 486 853 549 853 q 385 840 426 853 q 317 792 343 828 q 280 690 292 757 q 268 513 268 624 q 278 341 268 407 q 314 240 289 275 q 381 190 339 204 q 486 176 424 176 z "},"Ó":{"ha":971,"x_min":63,"x_max":908,"o":"m 486 -8 q 301 12 381 -8 q 169 87 222 32 q 89 244 115 142 q 63 513 63 347 q 90 781 63 678 q 169 940 117 885 q 301 1017 222 996 q 486 1038 381 1038 q 671 1017 592 1038 q 803 940 750 996 q 882 781 856 885 q 908 513 908 678 q 882 244 908 347 q 803 87 856 142 q 671 12 750 32 q 486 -8 592 -8 m 486 176 q 590 190 549 176 q 656 240 632 204 q 692 341 681 275 q 703 513 703 407 q 692 690 703 624 q 656 792 681 757 q 590 840 632 828 q 486 853 549 853 q 385 840 426 853 q 317 792 343 828 q 280 690 292 757 q 268 513 268 624 q 278 341 268 407 q 314 240 289 275 q 381 190 339 204 q 486 176 424 176 z "},"Ŏ":{"ha":971,"x_min":63,"x_max":908,"o":"m 486 -8 q 301 12 381 -8 q 169 87 222 32 q 89 244 115 142 q 63 513 63 347 q 90 781 63 678 q 169 940 117 885 q 301 1017 222 996 q 486 1038 381 1038 q 671 1017 592 1038 q 803 940 750 996 q 882 781 856 885 q 908 513 908 678 q 882 244 908 347 q 803 87 856 142 q 671 12 750 32 q 486 -8 592 -8 m 486 176 q 590 190 549 176 q 656 240 632 204 q 692 341 681 275 q 703 513 703 407 q 692 690 703 624 q 656 792 681 757 q 590 840 632 828 q 486 853 549 853 q 385 840 426 853 q 317 792 343 828 q 280 690 292 757 q 268 513 268 624 q 278 341 268 407 q 314 240 289 275 q 381 190 339 204 q 486 176 424 176 z "},"Ô":{"ha":971,"x_min":63,"x_max":908,"o":"m 486 -8 q 301 12 381 -8 q 169 87 222 32 q 89 244 115 142 q 63 513 63 347 q 90 781 63 678 q 169 940 117 885 q 301 1017 222 996 q 486 1038 381 1038 q 671 1017 592 1038 q 803 940 750 996 q 882 781 856 885 q 908 513 908 678 q 882 244 908 347 q 803 87 856 142 q 671 12 750 32 q 486 -8 592 -8 m 486 176 q 590 190 549 176 q 656 240 632 204 q 692 341 681 275 q 703 513 703 407 q 692 690 703 624 q 656 792 681 757 q 590 840 632 828 q 486 853 549 853 q 385 840 426 853 q 317 792 343 828 q 280 690 292 757 q 268 513 268 624 q 278 341 268 407 q 314 240 289 275 q 381 190 339 204 q 486 176 424 176 z "},"Ố":{"ha":971,"x_min":63,"x_max":908,"o":"m 486 -8 q 301 12 381 -8 q 169 87 222 32 q 89 244 115 142 q 63 513 63 347 q 90 781 63 678 q 169 940 117 885 q 301 1017 222 996 q 486 1038 381 1038 q 671 1017 592 1038 q 803 940 750 996 q 882 781 856 885 q 908 513 908 678 q 882 244 908 347 q 803 87 856 142 q 671 12 750 32 q 486 -8 592 -8 m 486 176 q 590 190 549 176 q 656 240 632 204 q 692 341 681 275 q 703 513 703 407 q 692 690 703 624 q 656 792 681 757 q 590 840 632 828 q 486 853 549 853 q 385 840 426 853 q 317 792 343 828 q 280 690 292 757 q 268 513 268 624 q 278 341 268 407 q 314 240 289 275 q 381 190 339 204 q 486 176 424 176 m 421 1250 l 561 1250 l 697 1099 l 578 1099 l 488 1158 l 390 1099 l 269 1099 l 421 1250 m 679 1390 l 846 1390 l 738 1217 l 617 1217 l 679 1390 z "},"Ộ":{"ha":971,"x_min":63,"x_max":908,"o":"m 486 -8 q 301 12 381 -8 q 169 87 222 32 q 89 244 115 142 q 63 513 63 347 q 90 781 63 678 q 169 940 117 885 q 301 1017 222 996 q 486 1038 381 1038 q 671 1017 592 1038 q 803 940 750 996 q 882 781 856 885 q 908 513 908 678 q 882 244 908 347 q 803 87 856 142 q 671 12 750 32 q 486 -8 592 -8 m 486 176 q 590 190 549 176 q 656 240 632 204 q 692 341 681 275 q 703 513 703 407 q 692 690 703 624 q 656 792 681 757 q 590 840 632 828 q 486 853 549 853 q 385 840 426 853 q 317 792 343 828 q 280 690 292 757 q 268 513 268 624 q 278 341 268 407 q 314 240 289 275 q 381 190 339 204 q 486 176 424 176 z "},"Ồ":{"ha":971,"x_min":63,"x_max":908,"o":"m 486 -8 q 301 12 381 -8 q 169 87 222 32 q 89 244 115 142 q 63 513 63 347 q 90 781 63 678 q 169 940 117 885 q 301 1017 222 996 q 486 1038 381 1038 q 671 1017 592 1038 q 803 940 750 996 q 882 781 856 885 q 908 513 908 678 q 882 244 908 347 q 803 87 856 142 q 671 12 750 32 q 486 -8 592 -8 m 486 176 q 590 190 549 176 q 656 240 632 204 q 692 341 681 275 q 703 513 703 407 q 692 690 703 624 q 656 792 681 757 q 590 840 632 828 q 486 853 549 853 q 385 840 426 853 q 317 792 343 828 q 280 690 292 757 q 268 513 268 624 q 278 341 268 407 q 314 240 289 275 q 381 190 339 204 q 486 176 424 176 m 421 1250 l 561 1250 l 697 1099 l 578 1099 l 488 1158 l 390 1099 l 269 1099 l 421 1250 m 128 1390 l 294 1390 l 358 1217 l 238 1217 l 128 1390 z "},"Ổ":{"ha":971,"x_min":63,"x_max":908,"o":"m 486 -8 q 301 12 381 -8 q 169 87 222 32 q 89 244 115 142 q 63 513 63 347 q 90 781 63 678 q 169 940 117 885 q 301 1017 222 996 q 486 1038 381 1038 q 671 1017 592 1038 q 803 940 750 996 q 882 781 856 885 q 908 513 908 678 q 882 244 908 347 q 803 87 856 142 q 671 12 750 32 q 486 -8 592 -8 m 486 176 q 590 190 549 176 q 656 240 632 204 q 692 341 681 275 q 703 513 703 407 q 692 690 703 624 q 656 792 681 757 q 590 840 632 828 q 486 853 549 853 q 385 840 426 853 q 317 792 343 828 q 280 690 292 757 q 268 513 268 624 q 278 341 268 407 q 314 240 289 275 q 381 190 339 204 q 486 176 424 176 m 269 1099 l 421 1250 l 561 1250 l 697 1099 l 578 1099 l 488 1158 l 390 1099 l 269 1099 m 650 1175 l 650 1265 q 684 1285 675 1272 q 693 1311 693 1299 q 685 1335 693 1328 q 658 1343 678 1343 q 637 1341 649 1343 q 614 1335 625 1339 l 614 1406 q 647 1414 629 1411 q 686 1417 665 1417 q 765 1392 740 1417 q 790 1325 790 1368 q 757 1233 790 1269 q 650 1175 724 1197 z "},"Ỗ":{"ha":971,"x_min":63,"x_max":908,"o":"m 486 -8 q 301 12 381 -8 q 169 87 222 32 q 89 244 115 142 q 63 513 63 347 q 90 781 63 678 q 169 940 117 885 q 301 1017 222 996 q 486 1038 381 1038 q 671 1017 592 1038 q 803 940 750 996 q 882 781 856 885 q 908 513 908 678 q 882 244 908 347 q 803 87 856 142 q 671 12 750 32 q 486 -8 592 -8 m 486 176 q 590 190 549 176 q 656 240 632 204 q 692 341 681 275 q 703 513 703 407 q 692 690 703 624 q 656 792 681 757 q 590 840 632 828 q 486 853 549 853 q 385 840 426 853 q 317 792 343 828 q 280 690 292 757 q 268 513 268 624 q 278 341 268 407 q 314 240 289 275 q 381 190 339 204 q 486 176 424 176 m 256 1307 q 277 1395 260 1365 q 321 1436 294 1425 q 378 1447 347 1447 q 440 1438 411 1447 q 493 1418 468 1428 q 542 1408 518 1408 q 582 1420 568 1408 q 596 1454 596 1432 l 699 1454 q 680 1366 694 1397 q 640 1322 665 1335 q 579 1310 615 1310 q 513 1319 546 1310 q 453 1339 481 1329 q 403 1349 425 1349 q 372 1337 383 1349 q 358 1307 360 1325 l 256 1307 m 561 1250 l 697 1099 l 578 1099 l 488 1158 l 390 1099 l 269 1099 l 421 1250 l 561 1250 z "},"Ȍ":{"ha":971,"x_min":63,"x_max":908,"o":"m 486 -8 q 301 12 381 -8 q 169 87 222 32 q 89 244 115 142 q 63 513 63 347 q 90 781 63 678 q 169 940 117 885 q 301 1017 222 996 q 486 1038 381 1038 q 671 1017 592 1038 q 803 940 750 996 q 882 781 856 885 q 908 513 908 678 q 882 244 908 347 q 803 87 856 142 q 671 12 750 32 q 486 -8 592 -8 m 486 176 q 590 190 549 176 q 656 240 632 204 q 692 341 681 275 q 703 513 703 407 q 692 690 703 624 q 656 792 681 757 q 590 840 632 828 q 486 853 549 853 q 385 840 426 853 q 317 792 343 828 q 280 690 292 757 q 268 513 268 624 q 278 341 268 407 q 314 240 289 275 q 381 190 339 204 q 486 176 424 176 m 571 1099 l 413 1293 l 578 1293 l 693 1099 l 571 1099 m 324 1099 l 164 1293 l 331 1293 l 444 1099 l 324 1099 z "},"Ö":{"ha":971,"x_min":63,"x_max":908,"o":"m 486 -8 q 301 12 381 -8 q 169 87 222 32 q 89 244 115 142 q 63 513 63 347 q 90 781 63 678 q 169 940 117 885 q 301 1017 222 996 q 486 1038 381 1038 q 671 1017 592 1038 q 803 940 750 996 q 882 781 856 885 q 908 513 908 678 q 882 244 908 347 q 803 87 856 142 q 671 12 750 32 q 486 -8 592 -8 m 486 176 q 590 190 549 176 q 656 240 632 204 q 692 341 681 275 q 703 513 703 407 q 692 690 703 624 q 656 792 681 757 q 590 840 632 828 q 486 853 549 853 q 385 840 426 853 q 317 792 343 828 q 280 690 292 757 q 268 513 268 624 q 278 341 268 407 q 314 240 289 275 q 381 190 339 204 q 486 176 424 176 m 576 1107 q 549 1136 549 1107 l 549 1271 q 576 1301 549 1301 l 672 1301 q 693 1293 686 1301 q 700 1271 700 1285 l 700 1136 q 672 1107 700 1107 l 576 1107 m 282 1107 q 253 1136 253 1107 l 253 1271 q 282 1301 253 1301 l 378 1301 q 399 1293 392 1301 q 406 1271 406 1285 l 406 1136 q 378 1107 406 1107 l 282 1107 z "},"Ȫ":{"ha":971,"x_min":63,"x_max":908,"o":"m 486 -8 q 301 12 381 -8 q 169 87 222 32 q 89 244 115 142 q 63 513 63 347 q 90 781 63 678 q 169 940 117 885 q 301 1017 222 996 q 486 1038 381 1038 q 671 1017 592 1038 q 803 940 750 996 q 882 781 856 885 q 908 513 908 678 q 882 244 908 347 q 803 87 856 142 q 671 12 750 32 q 486 -8 592 -8 m 486 176 q 590 190 549 176 q 656 240 632 204 q 692 341 681 275 q 703 513 703 407 q 692 690 703 624 q 656 792 681 757 q 590 840 632 828 q 486 853 549 853 q 385 840 426 853 q 317 792 343 828 q 280 690 292 757 q 268 513 268 624 q 278 341 268 407 q 314 240 289 275 q 381 190 339 204 q 486 176 424 176 m 583 1107 q 556 1136 556 1107 l 556 1271 q 583 1301 556 1301 l 679 1301 q 700 1293 693 1301 q 707 1271 707 1285 l 707 1136 q 679 1107 707 1107 l 583 1107 m 289 1107 q 260 1136 260 1107 l 260 1271 q 289 1301 260 1301 l 385 1301 q 406 1293 399 1301 q 413 1271 413 1285 l 413 1136 q 385 1107 413 1107 l 289 1107 z "},"Ȱ":{"ha":971,"x_min":63,"x_max":908,"o":"m 486 -8 q 301 12 381 -8 q 169 87 222 32 q 89 244 115 142 q 63 513 63 347 q 90 781 63 678 q 169 940 117 885 q 301 1017 222 996 q 486 1038 381 1038 q 671 1017 592 1038 q 803 940 750 996 q 882 781 856 885 q 908 513 908 678 q 882 244 908 347 q 803 87 856 142 q 671 12 750 32 q 486 -8 592 -8 m 486 176 q 590 190 549 176 q 656 240 632 204 q 692 341 681 275 q 703 513 703 407 q 692 690 703 624 q 656 792 681 757 q 590 840 632 828 q 486 853 549 853 q 385 840 426 853 q 317 792 343 828 q 280 690 292 757 q 268 513 268 624 q 278 341 268 407 q 314 240 289 275 q 381 190 339 204 q 486 176 424 176 z "},"Ọ":{"ha":971,"x_min":63,"x_max":908,"o":"m 486 -8 q 301 12 381 -8 q 169 87 222 32 q 89 244 115 142 q 63 513 63 347 q 90 781 63 678 q 169 940 117 885 q 301 1017 222 996 q 486 1038 381 1038 q 671 1017 592 1038 q 803 940 750 996 q 882 781 856 885 q 908 513 908 678 q 882 244 908 347 q 803 87 856 142 q 671 12 750 32 q 486 -8 592 -8 m 486 176 q 590 190 549 176 q 656 240 632 204 q 692 341 681 275 q 703 513 703 407 q 692 690 703 624 q 656 792 681 757 q 590 840 632 828 q 486 853 549 853 q 385 840 426 853 q 317 792 343 828 q 280 690 292 757 q 268 513 268 624 q 278 341 268 407 q 314 240 289 275 q 381 190 339 204 q 486 176 424 176 z "},"Ò":{"ha":971,"x_min":63,"x_max":908,"o":"m 486 -8 q 301 12 381 -8 q 169 87 222 32 q 89 244 115 142 q 63 513 63 347 q 90 781 63 678 q 169 940 117 885 q 301 1017 222 996 q 486 1038 381 1038 q 671 1017 592 1038 q 803 940 750 996 q 882 781 856 885 q 908 513 908 678 q 882 244 908 347 q 803 87 856 142 q 671 12 750 32 q 486 -8 592 -8 m 486 176 q 590 190 549 176 q 656 240 632 204 q 692 341 681 275 q 703 513 703 407 q 692 690 703 624 q 656 792 681 757 q 590 840 632 828 q 486 853 549 853 q 385 840 426 853 q 317 792 343 828 q 280 690 292 757 q 268 513 268 624 q 278 341 268 407 q 314 240 289 275 q 381 190 339 204 q 486 176 424 176 z "},"Ỏ":{"ha":971,"x_min":63,"x_max":908,"o":"m 486 -8 q 301 12 381 -8 q 169 87 222 32 q 89 244 115 142 q 63 513 63 347 q 90 781 63 678 q 169 940 117 885 q 301 1017 222 996 q 486 1038 381 1038 q 671 1017 592 1038 q 803 940 750 996 q 882 781 856 885 q 908 513 908 678 q 882 244 908 347 q 803 87 856 142 q 671 12 750 32 q 486 -8 592 -8 m 486 176 q 590 190 549 176 q 656 240 632 204 q 692 341 681 275 q 703 513 703 407 q 692 690 703 624 q 656 792 681 757 q 590 840 632 828 q 486 853 549 853 q 385 840 426 853 q 317 792 343 828 q 280 690 292 757 q 268 513 268 624 q 278 341 268 407 q 314 240 289 275 q 381 190 339 204 q 486 176 424 176 z "},"Ơ":{"ha":971,"x_min":63,"x_max":933,"o":"m 521 917 l 521 1028 l 692 1028 q 765 1061 739 1028 q 792 1181 792 1094 l 933 1181 q 908 1034 933 1093 q 836 946 882 975 q 729 917 790 917 l 521 917 m 486 -8 q 301 12 381 -8 q 169 87 222 32 q 89 244 115 142 q 63 513 63 347 q 90 781 63 678 q 169 940 117 885 q 301 1017 222 996 q 486 1038 381 1038 q 671 1017 592 1038 q 803 940 750 996 q 882 781 856 885 q 908 513 908 678 q 882 244 908 347 q 803 87 856 142 q 671 12 750 32 q 486 -8 592 -8 m 486 176 q 590 190 549 176 q 656 240 632 204 q 692 341 681 275 q 703 513 703 407 q 692 690 703 624 q 656 792 681 757 q 590 840 632 828 q 486 853 549 853 q 385 840 426 853 q 317 792 343 828 q 280 690 292 757 q 268 513 268 624 q 278 341 268 407 q 314 240 289 275 q 381 190 339 204 q 486 176 424 176 z "},"Ớ":{"ha":971,"x_min":63,"x_max":933,"o":"m 521 917 l 521 1028 l 692 1028 q 765 1061 739 1028 q 792 1181 792 1094 l 933 1181 q 908 1034 933 1093 q 836 946 882 975 q 729 917 790 917 l 521 917 m 486 -8 q 301 12 381 -8 q 169 87 222 32 q 89 244 115 142 q 63 513 63 347 q 90 781 63 678 q 169 940 117 885 q 301 1017 222 996 q 486 1038 381 1038 q 671 1017 592 1038 q 803 940 750 996 q 882 781 856 885 q 908 513 908 678 q 882 244 908 347 q 803 87 856 142 q 671 12 750 32 q 486 -8 592 -8 m 486 176 q 590 190 549 176 q 656 240 632 204 q 692 341 681 275 q 703 513 703 407 q 692 690 703 624 q 656 792 681 757 q 590 840 632 828 q 486 853 549 853 q 385 840 426 853 q 317 792 343 828 q 280 690 292 757 q 268 513 268 624 q 278 341 268 407 q 314 240 289 275 q 381 190 339 204 q 486 176 424 176 z "},"Ợ":{"ha":971,"x_min":63,"x_max":933,"o":"m 521 917 l 521 1028 l 692 1028 q 765 1061 739 1028 q 792 1181 792 1094 l 933 1181 q 908 1034 933 1093 q 836 946 882 975 q 729 917 790 917 l 521 917 m 486 -8 q 301 12 381 -8 q 169 87 222 32 q 89 244 115 142 q 63 513 63 347 q 90 781 63 678 q 169 940 117 885 q 301 1017 222 996 q 486 1038 381 1038 q 671 1017 592 1038 q 803 940 750 996 q 882 781 856 885 q 908 513 908 678 q 882 244 908 347 q 803 87 856 142 q 671 12 750 32 q 486 -8 592 -8 m 486 176 q 590 190 549 176 q 656 240 632 204 q 692 341 681 275 q 703 513 703 407 q 692 690 703 624 q 656 792 681 757 q 590 840 632 828 q 486 853 549 853 q 385 840 426 853 q 317 792 343 828 q 280 690 292 757 q 268 513 268 624 q 278 341 268 407 q 314 240 289 275 q 381 190 339 204 q 486 176 424 176 z "},"Ờ":{"ha":971,"x_min":63,"x_max":933,"o":"m 521 917 l 521 1028 l 692 1028 q 765 1061 739 1028 q 792 1181 792 1094 l 933 1181 q 908 1034 933 1093 q 836 946 882 975 q 729 917 790 917 l 521 917 m 486 -8 q 301 12 381 -8 q 169 87 222 32 q 89 244 115 142 q 63 513 63 347 q 90 781 63 678 q 169 940 117 885 q 301 1017 222 996 q 486 1038 381 1038 q 671 1017 592 1038 q 803 940 750 996 q 882 781 856 885 q 908 513 908 678 q 882 244 908 347 q 803 87 856 142 q 671 12 750 32 q 486 -8 592 -8 m 486 176 q 590 190 549 176 q 656 240 632 204 q 692 341 681 275 q 703 513 703 407 q 692 690 703 624 q 656 792 681 757 q 590 840 632 828 q 486 853 549 853 q 385 840 426 853 q 317 792 343 828 q 280 690 292 757 q 268 513 268 624 q 278 341 268 407 q 314 240 289 275 q 381 190 339 204 q 486 176 424 176 z "},"Ở":{"ha":971,"x_min":63,"x_max":933,"o":"m 521 917 l 521 1028 l 692 1028 q 765 1061 739 1028 q 792 1181 792 1094 l 933 1181 q 908 1034 933 1093 q 836 946 882 975 q 729 917 790 917 l 521 917 m 486 -8 q 301 12 381 -8 q 169 87 222 32 q 89 244 115 142 q 63 513 63 347 q 90 781 63 678 q 169 940 117 885 q 301 1017 222 996 q 486 1038 381 1038 q 671 1017 592 1038 q 803 940 750 996 q 882 781 856 885 q 908 513 908 678 q 882 244 908 347 q 803 87 856 142 q 671 12 750 32 q 486 -8 592 -8 m 486 176 q 590 190 549 176 q 656 240 632 204 q 692 341 681 275 q 703 513 703 407 q 692 690 703 624 q 656 792 681 757 q 590 840 632 828 q 486 853 549 853 q 385 840 426 853 q 317 792 343 828 q 280 690 292 757 q 268 513 268 624 q 278 341 268 407 q 314 240 289 275 q 381 190 339 204 q 486 176 424 176 z "},"Ỡ":{"ha":971,"x_min":63,"x_max":933,"o":"m 521 917 l 521 1028 l 692 1028 q 765 1061 739 1028 q 792 1181 792 1094 l 933 1181 q 908 1034 933 1093 q 836 946 882 975 q 729 917 790 917 l 521 917 m 486 -8 q 301 12 381 -8 q 169 87 222 32 q 89 244 115 142 q 63 513 63 347 q 90 781 63 678 q 169 940 117 885 q 301 1017 222 996 q 486 1038 381 1038 q 671 1017 592 1038 q 803 940 750 996 q 882 781 856 885 q 908 513 908 678 q 882 244 908 347 q 803 87 856 142 q 671 12 750 32 q 486 -8 592 -8 m 486 176 q 590 190 549 176 q 656 240 632 204 q 692 341 681 275 q 703 513 703 407 q 692 690 703 624 q 656 792 681 757 q 590 840 632 828 q 486 853 549 853 q 385 840 426 853 q 317 792 343 828 q 280 690 292 757 q 268 513 268 624 q 278 341 268 407 q 314 240 289 275 q 381 190 339 204 q 486 176 424 176 z "},"Ő":{"ha":971,"x_min":63,"x_max":908,"o":"m 486 -8 q 301 12 381 -8 q 169 87 222 32 q 89 244 115 142 q 63 513 63 347 q 90 781 63 678 q 169 940 117 885 q 301 1017 222 996 q 486 1038 381 1038 q 671 1017 592 1038 q 803 940 750 996 q 882 781 856 885 q 908 513 908 678 q 882 244 908 347 q 803 87 856 142 q 671 12 750 32 q 486 -8 592 -8 m 486 176 q 590 190 549 176 q 656 240 632 204 q 692 341 681 275 q 703 513 703 407 q 692 690 703 624 q 656 792 681 757 q 590 840 632 828 q 486 853 549 853 q 385 840 426 853 q 317 792 343 828 q 280 690 292 757 q 268 513 268 624 q 278 341 268 407 q 314 240 289 275 q 381 190 339 204 q 486 176 424 176 z "},"Ȏ":{"ha":971,"x_min":63,"x_max":908,"o":"m 486 -8 q 301 12 381 -8 q 169 87 222 32 q 89 244 115 142 q 63 513 63 347 q 90 781 63 678 q 169 940 117 885 q 301 1017 222 996 q 486 1038 381 1038 q 671 1017 592 1038 q 803 940 750 996 q 882 781 856 885 q 908 513 908 678 q 882 244 908 347 q 803 87 856 142 q 671 12 750 32 q 486 -8 592 -8 m 486 176 q 590 190 549 176 q 656 240 632 204 q 692 341 681 275 q 703 513 703 407 q 692 690 703 624 q 656 792 681 757 q 590 840 632 828 q 486 853 549 853 q 385 840 426 853 q 317 792 343 828 q 280 690 292 757 q 268 513 268 624 q 278 341 268 407 q 314 240 289 275 q 381 190 339 204 q 486 176 424 176 z "},"Ō":{"ha":971,"x_min":63,"x_max":908,"o":"m 486 -8 q 301 12 381 -8 q 169 87 222 32 q 89 244 115 142 q 63 513 63 347 q 90 781 63 678 q 169 940 117 885 q 301 1017 222 996 q 486 1038 381 1038 q 671 1017 592 1038 q 803 940 750 996 q 882 781 856 885 q 908 513 908 678 q 882 244 908 347 q 803 87 856 142 q 671 12 750 32 q 486 -8 592 -8 m 486 176 q 590 190 549 176 q 656 240 632 204 q 692 341 681 275 q 703 513 703 407 q 692 690 703 624 q 656 792 681 757 q 590 840 632 828 q 486 853 549 853 q 385 840 426 853 q 317 792 343 828 q 280 690 292 757 q 268 513 268 624 q 278 341 268 407 q 314 240 289 275 q 381 190 339 204 q 486 176 424 176 z "},"Ṓ":{"ha":971,"x_min":63,"x_max":908,"o":"m 486 -8 q 301 12 381 -8 q 169 87 222 32 q 89 244 115 142 q 63 513 63 347 q 90 781 63 678 q 169 940 117 885 q 301 1017 222 996 q 486 1038 381 1038 q 671 1017 592 1038 q 803 940 750 996 q 882 781 856 885 q 908 513 908 678 q 882 244 908 347 q 803 87 856 142 q 671 12 750 32 q 486 -8 592 -8 m 486 176 q 590 190 549 176 q 656 240 632 204 q 692 341 681 275 q 703 513 703 407 q 692 690 703 624 q 656 792 681 757 q 590 840 632 828 q 486 853 549 853 q 385 840 426 853 q 317 792 343 828 q 280 690 292 757 q 268 513 268 624 q 278 341 268 407 q 314 240 289 275 q 381 190 339 204 q 486 176 424 176 z "},"Ṑ":{"ha":971,"x_min":63,"x_max":908,"o":"m 486 -8 q 301 12 381 -8 q 169 87 222 32 q 89 244 115 142 q 63 513 63 347 q 90 781 63 678 q 169 940 117 885 q 301 1017 222 996 q 486 1038 381 1038 q 671 1017 592 1038 q 803 940 750 996 q 882 781 856 885 q 908 513 908 678 q 882 244 908 347 q 803 87 856 142 q 671 12 750 32 q 486 -8 592 -8 m 486 176 q 590 190 549 176 q 656 240 632 204 q 692 341 681 275 q 703 513 703 407 q 692 690 703 624 q 656 792 681 757 q 590 840 632 828 q 486 853 549 853 q 385 840 426 853 q 317 792 343 828 q 280 690 292 757 q 268 513 268 624 q 278 341 268 407 q 314 240 289 275 q 381 190 339 204 q 486 176 424 176 z "},"Ǫ":{"ha":971,"x_min":63,"x_max":908,"o":"m 486 -8 q 301 12 381 -8 q 169 87 222 32 q 89 244 115 142 q 63 513 63 347 q 90 781 63 678 q 169 940 117 885 q 301 1017 222 996 q 486 1038 381 1038 q 671 1017 592 1038 q 803 940 750 996 q 882 781 856 885 q 908 513 908 678 q 882 244 908 347 q 803 87 856 142 q 671 12 750 32 q 486 -8 592 -8 m 486 176 q 590 190 549 176 q 656 240 632 204 q 692 341 681 275 q 703 513 703 407 q 692 690 703 624 q 656 792 681 757 q 590 840 632 828 q 486 853 549 853 q 385 840 426 853 q 317 792 343 828 q 280 690 292 757 q 268 513 268 624 q 278 341 268 407 q 314 240 289 275 q 381 190 339 204 q 486 176 424 176 z "},"Ø":{"ha":971,"x_min":63,"x_max":908,"o":"m 78 0 l 758 1028 l 894 1028 l 214 0 l 78 0 m 486 -8 q 301 12 381 -8 q 169 87 222 32 q 89 244 115 142 q 63 513 63 347 q 90 781 63 678 q 169 940 117 885 q 301 1017 222 996 q 486 1038 381 1038 q 671 1017 592 1038 q 803 940 750 996 q 882 781 856 885 q 908 513 908 678 q 882 244 908 347 q 803 87 856 142 q 671 12 750 32 q 486 -8 592 -8 m 486 176 q 590 190 549 176 q 656 240 632 204 q 692 341 681 275 q 703 513 703 407 q 692 690 703 624 q 656 792 681 757 q 590 840 632 828 q 486 853 549 853 q 385 840 426 853 q 317 792 343 828 q 280 690 292 757 q 268 513 268 624 q 278 341 268 407 q 314 240 289 275 q 381 190 339 204 q 486 176 424 176 z "},"Ǿ":{"ha":971,"x_min":63,"x_max":908,"o":"m 78 0 l 758 1028 l 894 1028 l 214 0 l 78 0 m 486 -8 q 301 12 381 -8 q 169 87 222 32 q 89 244 115 142 q 63 513 63 347 q 90 781 63 678 q 169 940 117 885 q 301 1017 222 996 q 486 1038 381 1038 q 671 1017 592 1038 q 803 940 750 996 q 882 781 856 885 q 908 513 908 678 q 882 244 908 347 q 803 87 856 142 q 671 12 750 32 q 486 -8 592 -8 m 486 176 q 590 190 549 176 q 656 240 632 204 q 692 341 681 275 q 703 513 703 407 q 692 690 703 624 q 656 792 681 757 q 590 840 632 828 q 486 853 549 853 q 385 840 426 853 q 317 792 343 828 q 280 690 292 757 q 268 513 268 624 q 278 341 268 407 q 314 240 289 275 q 381 190 339 204 q 486 176 424 176 z "},"Õ":{"ha":971,"x_min":63,"x_max":908,"o":"m 486 -8 q 301 12 381 -8 q 169 87 222 32 q 89 244 115 142 q 63 513 63 347 q 90 781 63 678 q 169 940 117 885 q 301 1017 222 996 q 486 1038 381 1038 q 671 1017 592 1038 q 803 940 750 996 q 882 781 856 885 q 908 513 908 678 q 882 244 908 347 q 803 87 856 142 q 671 12 750 32 q 486 -8 592 -8 m 486 176 q 590 190 549 176 q 656 240 632 204 q 692 341 681 275 q 703 513 703 407 q 692 690 703 624 q 656 792 681 757 q 590 840 632 828 q 486 853 549 853 q 385 840 426 853 q 317 792 343 828 q 280 690 292 757 q 268 513 268 624 q 278 341 268 407 q 314 240 289 275 q 381 190 339 204 q 486 176 424 176 z "},"Ṍ":{"ha":971,"x_min":63,"x_max":908,"o":"m 486 -8 q 301 12 381 -8 q 169 87 222 32 q 89 244 115 142 q 63 513 63 347 q 90 781 63 678 q 169 940 117 885 q 301 1017 222 996 q 486 1038 381 1038 q 671 1017 592 1038 q 803 940 750 996 q 882 781 856 885 q 908 513 908 678 q 882 244 908 347 q 803 87 856 142 q 671 12 750 32 q 486 -8 592 -8 m 486 176 q 590 190 549 176 q 656 240 632 204 q 692 341 681 275 q 703 513 703 407 q 692 690 703 624 q 656 792 681 757 q 590 840 632 828 q 486 853 549 853 q 385 840 426 853 q 317 792 343 828 q 280 690 292 757 q 268 513 268 624 q 278 341 268 407 q 314 240 289 275 q 381 190 339 204 q 486 176 424 176 z "},"Ṏ":{"ha":971,"x_min":63,"x_max":908,"o":"m 486 -8 q 301 12 381 -8 q 169 87 222 32 q 89 244 115 142 q 63 513 63 347 q 90 781 63 678 q 169 940 117 885 q 301 1017 222 996 q 486 1038 381 1038 q 671 1017 592 1038 q 803 940 750 996 q 882 781 856 885 q 908 513 908 678 q 882 244 908 347 q 803 87 856 142 q 671 12 750 32 q 486 -8 592 -8 m 486 176 q 590 190 549 176 q 656 240 632 204 q 692 341 681 275 q 703 513 703 407 q 692 690 703 624 q 656 792 681 757 q 590 840 632 828 q 486 853 549 853 q 385 840 426 853 q 317 792 343 828 q 280 690 292 757 q 268 513 268 624 q 278 341 268 407 q 314 240 289 275 q 381 190 339 204 q 486 176 424 176 m 579 1336 q 551 1365 551 1336 l 551 1500 q 579 1531 551 1531 l 675 1531 q 696 1522 689 1531 q 703 1500 703 1514 l 703 1365 q 675 1336 703 1336 l 579 1336 m 285 1336 q 256 1365 256 1336 l 256 1500 q 285 1531 256 1531 l 381 1531 q 401 1522 394 1531 q 408 1500 408 1514 l 408 1365 q 381 1336 408 1336 l 285 1336 z "},"Ȭ":{"ha":971,"x_min":63,"x_max":908,"o":"m 486 -8 q 301 12 381 -8 q 169 87 222 32 q 89 244 115 142 q 63 513 63 347 q 90 781 63 678 q 169 940 117 885 q 301 1017 222 996 q 486 1038 381 1038 q 671 1017 592 1038 q 803 940 750 996 q 882 781 856 885 q 908 513 908 678 q 882 244 908 347 q 803 87 856 142 q 671 12 750 32 q 486 -8 592 -8 m 486 176 q 590 190 549 176 q 656 240 632 204 q 692 341 681 275 q 703 513 703 407 q 692 690 703 624 q 656 792 681 757 q 590 840 632 828 q 486 853 549 853 q 385 840 426 853 q 317 792 343 828 q 280 690 292 757 q 268 513 268 624 q 278 341 268 407 q 314 240 289 275 q 381 190 339 204 q 486 176 424 176 z "},"Œ":{"ha":1443,"x_min":63,"x_max":1382,"o":"m 486 -8 q 301 12 381 -8 q 169 87 222 32 q 89 244 115 142 q 63 513 63 347 q 90 781 63 678 q 169 940 117 885 q 301 1017 222 996 q 486 1038 381 1038 q 671 1017 592 1038 q 803 940 750 996 q 882 781 856 885 q 908 513 908 678 q 882 244 908 347 q 803 87 856 142 q 671 12 750 32 q 486 -8 592 -8 m 486 176 q 590 190 549 176 q 656 240 632 204 q 692 341 681 275 q 703 513 703 407 q 692 690 703 624 q 656 792 681 757 q 590 840 632 828 q 486 853 549 853 q 385 840 426 853 q 317 792 343 828 q 280 690 292 757 q 268 513 268 624 q 278 341 268 407 q 314 240 289 275 q 381 190 339 204 q 486 176 424 176 m 953 -7 q 876 -1 919 -7 q 794 28 833 6 q 728 95 754 50 q 703 219 703 140 l 703 793 q 724 907 703 861 q 779 979 744 953 q 856 1017 814 1006 q 938 1028 897 1028 q 1122 1025 1042 1028 q 1265 1019 1201 1022 q 1382 1010 1329 1015 l 1382 838 l 999 838 q 932 817 956 838 q 908 753 908 796 l 908 604 l 1315 593 l 1315 431 l 908 419 l 908 278 q 920 222 908 242 q 952 194 932 201 q 994 186 972 186 l 1382 186 l 1382 14 q 1247 3 1321 7 q 1097 -4 1172 -1 q 953 -7 1021 -7 z "},"P":{"ha":863,"x_min":89,"x_max":818,"o":"m 89 0 l 89 1028 l 522 1028 q 624 1016 572 1028 q 720 969 676 1004 q 791 863 764 933 q 818 675 818 792 q 791 486 818 558 q 721 376 764 414 q 628 326 678 339 q 531 314 578 314 q 472 316 506 314 q 405 322 439 318 q 342 330 371 326 q 294 336 313 333 l 294 0 l 89 0 m 294 499 l 499 499 q 560 516 535 499 q 599 572 586 533 q 611 674 611 610 q 598 773 611 736 q 560 826 585 810 q 503 843 536 843 l 294 843 l 294 499 z "},"Ṗ":{"ha":863,"x_min":89,"x_max":818,"o":"m 89 0 l 89 1028 l 522 1028 q 624 1016 572 1028 q 720 969 676 1004 q 791 863 764 933 q 818 675 818 792 q 791 486 818 558 q 721 376 764 414 q 628 326 678 339 q 531 314 578 314 q 472 316 506 314 q 405 322 439 318 q 342 330 371 326 q 294 336 313 333 l 294 0 l 89 0 m 294 499 l 499 499 q 560 516 535 499 q 599 572 586 533 q 611 674 611 610 q 598 773 611 736 q 560 826 585 810 q 503 843 536 843 l 294 843 l 294 499 z "},"Þ":{"ha":814,"x_min":89,"x_max":769,"o":"m 89 0 l 89 1028 l 294 1028 l 294 861 l 474 861 q 576 849 524 861 q 672 804 628 838 q 742 704 715 771 q 769 526 769 638 q 742 346 769 414 q 672 242 715 278 q 579 194 629 207 q 481 182 529 182 q 435 185 461 182 q 383 192 410 188 q 332 199 356 196 q 294 204 308 203 l 294 0 l 89 0 m 294 367 l 450 367 q 511 383 486 367 q 549 433 536 399 q 563 525 563 468 q 549 614 563 581 q 511 662 535 647 q 453 676 488 676 l 294 676 l 294 367 z "},"Q":{"ha":971,"x_min":63,"x_max":908,"o":"m 714 -274 q 586 -250 647 -274 q 485 -177 525 -226 q 442 -51 444 -128 l 583 -51 q 628 -109 593 -92 q 704 -126 664 -126 q 749 -122 726 -126 q 789 -112 771 -117 l 789 -264 q 752 -270 771 -267 q 714 -274 733 -274 m 486 -8 q 301 12 381 -8 q 169 87 222 32 q 89 244 115 142 q 63 513 63 347 q 90 781 63 678 q 169 940 117 885 q 301 1017 222 996 q 486 1038 381 1038 q 671 1017 592 1038 q 803 940 750 996 q 882 781 856 885 q 908 513 908 678 q 882 244 908 347 q 803 87 856 142 q 671 12 750 32 q 486 -8 592 -8 m 486 176 q 590 190 549 176 q 656 240 632 204 q 692 341 681 275 q 703 513 703 407 q 692 690 703 624 q 656 792 681 757 q 590 840 632 828 q 486 853 549 853 q 385 840 426 853 q 317 792 343 828 q 280 690 292 757 q 268 513 268 624 q 278 341 268 407 q 314 240 289 275 q 381 190 339 204 q 486 176 424 176 z "},"R":{"ha":871,"x_min":89,"x_max":836,"o":"m 89 0 l 89 1028 l 514 1028 q 628 1013 575 1028 q 721 963 681 999 q 784 863 761 926 q 807 699 807 799 q 793 578 807 628 q 756 496 779 528 q 704 444 733 464 q 644 413 675 425 l 836 0 l 626 0 l 461 381 q 423 381 444 381 q 379 382 401 382 q 335 382 357 382 q 294 383 313 382 l 294 0 l 89 0 m 294 546 l 478 546 q 528 553 506 546 q 567 577 550 560 q 592 624 583 594 q 601 699 601 653 q 592 770 601 742 q 567 815 583 799 q 528 837 550 831 q 478 843 506 843 l 294 843 l 294 546 z "},"Ŕ":{"ha":871,"x_min":89,"x_max":836,"o":"m 89 0 l 89 1028 l 514 1028 q 628 1013 575 1028 q 721 963 681 999 q 784 863 761 926 q 807 699 807 799 q 793 578 807 628 q 756 496 779 528 q 704 444 733 464 q 644 413 675 425 l 836 0 l 626 0 l 461 381 q 423 381 444 381 q 379 382 401 382 q 335 382 357 382 q 294 383 313 382 l 294 0 l 89 0 m 294 546 l 478 546 q 528 553 506 546 q 567 577 550 560 q 592 624 583 594 q 601 699 601 653 q 592 770 601 742 q 567 815 583 799 q 528 837 550 831 q 478 843 506 843 l 294 843 l 294 546 z "},"Ř":{"ha":871,"x_min":89,"x_max":836,"o":"m 89 0 l 89 1028 l 514 1028 q 628 1013 575 1028 q 721 963 681 999 q 784 863 761 926 q 807 699 807 799 q 793 578 807 628 q 756 496 779 528 q 704 444 733 464 q 644 413 675 425 l 836 0 l 626 0 l 461 381 q 423 381 444 381 q 379 382 401 382 q 335 382 357 382 q 294 383 313 382 l 294 0 l 89 0 m 294 546 l 478 546 q 528 553 506 546 q 567 577 550 560 q 592 624 583 594 q 601 699 601 653 q 592 770 601 742 q 567 815 583 799 q 528 837 550 831 q 478 843 506 843 l 294 843 l 294 546 z "},"Ŗ":{"ha":871,"x_min":89,"x_max":836,"o":"m 89 0 l 89 1028 l 514 1028 q 628 1013 575 1028 q 721 963 681 999 q 784 863 761 926 q 807 699 807 799 q 793 578 807 628 q 756 496 779 528 q 704 444 733 464 q 644 413 675 425 l 836 0 l 626 0 l 461 381 q 423 381 444 381 q 379 382 401 382 q 335 382 357 382 q 294 383 313 382 l 294 0 l 89 0 m 294 546 l 478 546 q 528 553 506 546 q 567 577 550 560 q 592 624 583 594 q 601 699 601 653 q 592 770 601 742 q 567 815 583 799 q 528 837 550 831 q 478 843 506 843 l 294 843 l 294 546 m 303 -300 l 303 -215 l 340 -206 q 383 -190 367 -199 q 405 -160 399 -181 q 411 -101 411 -140 l 536 -101 q 522 -215 536 -171 q 473 -279 508 -258 q 375 -300 438 -300 l 303 -300 z "},"Ȑ":{"ha":871,"x_min":89,"x_max":836,"o":"m 89 0 l 89 1028 l 514 1028 q 628 1013 575 1028 q 721 963 681 999 q 784 863 761 926 q 807 699 807 799 q 793 578 807 628 q 756 496 779 528 q 704 444 733 464 q 644 413 675 425 l 836 0 l 626 0 l 461 381 q 423 381 444 381 q 379 382 401 382 q 335 382 357 382 q 294 383 313 382 l 294 0 l 89 0 m 294 546 l 478 546 q 528 553 506 546 q 567 577 550 560 q 592 624 583 594 q 601 699 601 653 q 592 770 601 742 q 567 815 583 799 q 528 837 550 831 q 478 843 506 843 l 294 843 l 294 546 m 501 1099 l 343 1293 l 508 1293 l 624 1099 l 501 1099 m 254 1099 l 94 1293 l 261 1293 l 375 1099 l 254 1099 z "},"Ṛ":{"ha":871,"x_min":89,"x_max":836,"o":"m 89 0 l 89 1028 l 514 1028 q 628 1013 575 1028 q 721 963 681 999 q 784 863 761 926 q 807 699 807 799 q 793 578 807 628 q 756 496 779 528 q 704 444 733 464 q 644 413 675 425 l 836 0 l 626 0 l 461 381 q 423 381 444 381 q 379 382 401 382 q 335 382 357 382 q 294 383 313 382 l 294 0 l 89 0 m 294 546 l 478 546 q 528 553 506 546 q 567 577 550 560 q 592 624 583 594 q 601 699 601 653 q 592 770 601 742 q 567 815 583 799 q 528 837 550 831 q 478 843 506 843 l 294 843 l 294 546 z "},"Ȓ":{"ha":871,"x_min":89,"x_max":836,"o":"m 89 0 l 89 1028 l 514 1028 q 628 1013 575 1028 q 721 963 681 999 q 784 863 761 926 q 807 699 807 799 q 793 578 807 628 q 756 496 779 528 q 704 444 733 464 q 644 413 675 425 l 836 0 l 626 0 l 461 381 q 423 381 444 381 q 379 382 401 382 q 335 382 357 382 q 294 383 313 382 l 294 0 l 89 0 m 294 546 l 478 546 q 528 553 506 546 q 567 577 550 560 q 592 624 583 594 q 601 699 601 653 q 592 770 601 742 q 567 815 583 799 q 528 837 550 831 q 478 843 506 843 l 294 843 l 294 546 z "},"Ṟ":{"ha":871,"x_min":89,"x_max":836,"o":"m 89 0 l 89 1028 l 514 1028 q 628 1013 575 1028 q 721 963 681 999 q 784 863 761 926 q 807 699 807 799 q 793 578 807 628 q 756 496 779 528 q 704 444 733 464 q 644 413 675 425 l 836 0 l 626 0 l 461 381 q 423 381 444 381 q 379 382 401 382 q 335 382 357 382 q 294 383 313 382 l 294 0 l 89 0 m 294 546 l 478 546 q 528 553 506 546 q 567 577 550 560 q 592 624 583 594 q 601 699 601 653 q 592 770 601 742 q 567 815 583 799 q 528 837 550 831 q 478 843 506 843 l 294 843 l 294 546 z "},"S":{"ha":818,"x_min":64,"x_max":756,"o":"m 399 -8 q 316 -6 358 -8 q 230 1 274 -4 q 147 12 186 6 q 76 26 108 18 l 76 189 q 171 182 118 185 q 281 178 224 179 q 389 176 338 176 q 480 185 442 176 q 539 217 518 194 q 560 281 560 240 l 560 318 q 533 388 560 364 q 456 413 506 413 l 368 413 q 142 477 221 413 q 64 697 64 542 l 64 747 q 150 967 64 897 q 396 1036 236 1036 q 509 1031 453 1036 q 617 1017 565 1025 q 707 1001 669 1010 l 707 839 q 565 847 643 843 q 419 851 486 851 q 335 842 372 851 q 279 808 299 833 q 260 738 260 783 l 260 710 q 290 632 260 656 q 381 608 321 608 l 482 608 q 635 574 575 608 q 726 481 696 540 q 756 344 756 421 l 756 286 q 710 101 756 165 q 585 15 665 38 q 399 -8 506 -8 z "},"Ś":{"ha":818,"x_min":64,"x_max":756,"o":"m 399 -8 q 316 -6 358 -8 q 230 1 274 -4 q 147 12 186 6 q 76 26 108 18 l 76 189 q 171 182 118 185 q 281 178 224 179 q 389 176 338 176 q 480 185 442 176 q 539 217 518 194 q 560 281 560 240 l 560 318 q 533 388 560 364 q 456 413 506 413 l 368 413 q 142 477 221 413 q 64 697 64 542 l 64 747 q 150 967 64 897 q 396 1036 236 1036 q 509 1031 453 1036 q 617 1017 565 1025 q 707 1001 669 1010 l 707 839 q 565 847 643 843 q 419 851 486 851 q 335 842 372 851 q 279 808 299 833 q 260 738 260 783 l 260 710 q 290 632 260 656 q 381 608 321 608 l 482 608 q 635 574 575 608 q 726 481 696 540 q 756 344 756 421 l 756 286 q 710 101 756 165 q 585 15 665 38 q 399 -8 506 -8 z "},"Ṥ":{"ha":818,"x_min":64,"x_max":756,"o":"m 399 -8 q 316 -6 358 -8 q 230 1 274 -4 q 147 12 186 6 q 76 26 108 18 l 76 189 q 171 182 118 185 q 281 178 224 179 q 389 176 338 176 q 480 185 442 176 q 539 217 518 194 q 560 281 560 240 l 560 318 q 533 388 560 364 q 456 413 506 413 l 368 413 q 142 477 221 413 q 64 697 64 542 l 64 747 q 150 967 64 897 q 396 1036 236 1036 q 509 1031 453 1036 q 617 1017 565 1025 q 707 1001 669 1010 l 707 839 q 565 847 643 843 q 419 851 486 851 q 335 842 372 851 q 279 808 299 833 q 260 738 260 783 l 260 710 q 290 632 260 656 q 381 608 321 608 l 482 608 q 635 574 575 608 q 726 481 696 540 q 756 344 756 421 l 756 286 q 710 101 756 165 q 585 15 665 38 q 399 -8 506 -8 z "},"Š":{"ha":818,"x_min":64,"x_max":756,"o":"m 399 -8 q 316 -6 358 -8 q 230 1 274 -4 q 147 12 186 6 q 76 26 108 18 l 76 189 q 171 182 118 185 q 281 178 224 179 q 389 176 338 176 q 480 185 442 176 q 539 217 518 194 q 560 281 560 240 l 560 318 q 533 388 560 364 q 456 413 506 413 l 368 413 q 142 477 221 413 q 64 697 64 542 l 64 747 q 150 967 64 897 q 396 1036 236 1036 q 509 1031 453 1036 q 617 1017 565 1025 q 707 1001 669 1010 l 707 839 q 565 847 643 843 q 419 851 486 851 q 335 842 372 851 q 279 808 299 833 q 260 738 260 783 l 260 710 q 290 632 260 656 q 381 608 321 608 l 482 608 q 635 574 575 608 q 726 481 696 540 q 756 344 756 421 l 756 286 q 710 101 756 165 q 585 15 665 38 q 399 -8 506 -8 z "},"Ṧ":{"ha":818,"x_min":64,"x_max":756,"o":"m 399 -8 q 316 -6 358 -8 q 230 1 274 -4 q 147 12 186 6 q 76 26 108 18 l 76 189 q 171 182 118 185 q 281 178 224 179 q 389 176 338 176 q 480 185 442 176 q 539 217 518 194 q 560 281 560 240 l 560 318 q 533 388 560 364 q 456 413 506 413 l 368 413 q 142 477 221 413 q 64 697 64 542 l 64 747 q 150 967 64 897 q 396 1036 236 1036 q 509 1031 453 1036 q 617 1017 565 1025 q 707 1001 669 1010 l 707 839 q 565 847 643 843 q 419 851 486 851 q 335 842 372 851 q 279 808 299 833 q 260 738 260 783 l 260 710 q 290 632 260 656 q 381 608 321 608 l 482 608 q 635 574 575 608 q 726 481 696 540 q 756 344 756 421 l 756 286 q 710 101 756 165 q 585 15 665 38 q 399 -8 506 -8 z "},"Ş":{"ha":818,"x_min":64,"x_max":756,"o":"m 399 -8 q 316 -6 358 -8 q 230 1 274 -4 q 147 12 186 6 q 76 26 108 18 l 76 189 q 171 182 118 185 q 281 178 224 179 q 389 176 338 176 q 480 185 442 176 q 539 217 518 194 q 560 281 560 240 l 560 318 q 533 388 560 364 q 456 413 506 413 l 368 413 q 142 477 221 413 q 64 697 64 542 l 64 747 q 150 967 64 897 q 396 1036 236 1036 q 509 1031 453 1036 q 617 1017 565 1025 q 707 1001 669 1010 l 707 839 q 565 847 643 843 q 419 851 486 851 q 335 842 372 851 q 279 808 299 833 q 260 738 260 783 l 260 710 q 290 632 260 656 q 381 608 321 608 l 482 608 q 635 574 575 608 q 726 481 696 540 q 756 344 756 421 l 756 286 q 710 101 756 165 q 585 15 665 38 q 399 -8 506 -8 z "},"Ŝ":{"ha":818,"x_min":64,"x_max":756,"o":"m 399 -8 q 316 -6 358 -8 q 230 1 274 -4 q 147 12 186 6 q 76 26 108 18 l 76 189 q 171 182 118 185 q 281 178 224 179 q 389 176 338 176 q 480 185 442 176 q 539 217 518 194 q 560 281 560 240 l 560 318 q 533 388 560 364 q 456 413 506 413 l 368 413 q 142 477 221 413 q 64 697 64 542 l 64 747 q 150 967 64 897 q 396 1036 236 1036 q 509 1031 453 1036 q 617 1017 565 1025 q 707 1001 669 1010 l 707 839 q 565 847 643 843 q 419 851 486 851 q 335 842 372 851 q 279 808 299 833 q 260 738 260 783 l 260 710 q 290 632 260 656 q 381 608 321 608 l 482 608 q 635 574 575 608 q 726 481 696 540 q 756 344 756 421 l 756 286 q 710 101 756 165 q 585 15 665 38 q 399 -8 506 -8 z "},"Ș":{"ha":818,"x_min":64,"x_max":756,"o":"m 399 -8 q 316 -6 358 -8 q 230 1 274 -4 q 147 12 186 6 q 76 26 108 18 l 76 189 q 171 182 118 185 q 281 178 224 179 q 389 176 338 176 q 480 185 442 176 q 539 217 518 194 q 560 281 560 240 l 560 318 q 533 388 560 364 q 456 413 506 413 l 368 413 q 142 477 221 413 q 64 697 64 542 l 64 747 q 150 967 64 897 q 396 1036 236 1036 q 509 1031 453 1036 q 617 1017 565 1025 q 707 1001 669 1010 l 707 839 q 565 847 643 843 q 419 851 486 851 q 335 842 372 851 q 279 808 299 833 q 260 738 260 783 l 260 710 q 290 632 260 656 q 381 608 321 608 l 482 608 q 635 574 575 608 q 726 481 696 540 q 756 344 756 421 l 756 286 q 710 101 756 165 q 585 15 665 38 q 399 -8 506 -8 m 282 -300 l 282 -215 l 319 -206 q 362 -190 346 -199 q 384 -160 378 -181 q 390 -101 390 -140 l 515 -101 q 501 -215 515 -171 q 452 -279 488 -258 q 354 -300 417 -300 l 282 -300 z "},"Ṡ":{"ha":818,"x_min":64,"x_max":756,"o":"m 399 -8 q 316 -6 358 -8 q 230 1 274 -4 q 147 12 186 6 q 76 26 108 18 l 76 189 q 171 182 118 185 q 281 178 224 179 q 389 176 338 176 q 480 185 442 176 q 539 217 518 194 q 560 281 560 240 l 560 318 q 533 388 560 364 q 456 413 506 413 l 368 413 q 142 477 221 413 q 64 697 64 542 l 64 747 q 150 967 64 897 q 396 1036 236 1036 q 509 1031 453 1036 q 617 1017 565 1025 q 707 1001 669 1010 l 707 839 q 565 847 643 843 q 419 851 486 851 q 335 842 372 851 q 279 808 299 833 q 260 738 260 783 l 260 710 q 290 632 260 656 q 381 608 321 608 l 482 608 q 635 574 575 608 q 726 481 696 540 q 756 344 756 421 l 756 286 q 710 101 756 165 q 585 15 665 38 q 399 -8 506 -8 z "},"Ṣ":{"ha":818,"x_min":64,"x_max":756,"o":"m 399 -8 q 316 -6 358 -8 q 230 1 274 -4 q 147 12 186 6 q 76 26 108 18 l 76 189 q 171 182 118 185 q 281 178 224 179 q 389 176 338 176 q 480 185 442 176 q 539 217 518 194 q 560 281 560 240 l 560 318 q 533 388 560 364 q 456 413 506 413 l 368 413 q 142 477 221 413 q 64 697 64 542 l 64 747 q 150 967 64 897 q 396 1036 236 1036 q 509 1031 453 1036 q 617 1017 565 1025 q 707 1001 669 1010 l 707 839 q 565 847 643 843 q 419 851 486 851 q 335 842 372 851 q 279 808 299 833 q 260 738 260 783 l 260 710 q 290 632 260 656 q 381 608 321 608 l 482 608 q 635 574 575 608 q 726 481 696 540 q 756 344 756 421 l 756 286 q 710 101 756 165 q 585 15 665 38 q 399 -8 506 -8 z "},"Ṩ":{"ha":818,"x_min":64,"x_max":756,"o":"m 399 -8 q 316 -6 358 -8 q 230 1 274 -4 q 147 12 186 6 q 76 26 108 18 l 76 189 q 171 182 118 185 q 281 178 224 179 q 389 176 338 176 q 480 185 442 176 q 539 217 518 194 q 560 281 560 240 l 560 318 q 533 388 560 364 q 456 413 506 413 l 368 413 q 142 477 221 413 q 64 697 64 542 l 64 747 q 150 967 64 897 q 396 1036 236 1036 q 509 1031 453 1036 q 617 1017 565 1025 q 707 1001 669 1010 l 707 839 q 565 847 643 843 q 419 851 486 851 q 335 842 372 851 q 279 808 299 833 q 260 738 260 783 l 260 710 q 290 632 260 656 q 381 608 321 608 l 482 608 q 635 574 575 608 q 726 481 696 540 q 756 344 756 421 l 756 286 q 710 101 756 165 q 585 15 665 38 q 399 -8 506 -8 z "},"ẞ":{"ha":1004,"x_min":89,"x_max":940,"o":"m 89 0 l 89 744 q 130 911 89 849 q 240 1001 171 974 q 390 1028 310 1028 q 574 1026 493 1028 q 728 1021 656 1024 q 875 1013 800 1018 l 779 843 l 399 843 q 320 818 346 843 q 294 747 294 793 l 294 0 l 89 0 m 614 -8 q 538 -5 578 -8 q 460 4 497 -1 q 392 17 422 10 l 392 179 q 485 178 435 179 q 583 178 535 178 q 664 186 631 178 q 716 217 697 194 q 735 281 735 240 l 735 313 q 705 385 735 364 q 610 407 675 407 l 440 407 l 440 572 l 667 572 q 867 513 794 572 q 940 326 940 453 l 940 268 q 899 95 940 154 q 785 14 858 36 q 614 -8 711 -8 m 617 524 l 525 696 l 657 854 l 875 1007 l 792 731 l 617 524 z "},"Ə":{"ha":868,"x_min":54,"x_max":806,"o":"m 422 -8 q 226 38 308 -8 q 99 185 143 83 q 54 454 54 286 l 54 588 l 599 588 q 580 719 596 667 q 531 799 564 771 q 449 840 499 828 q 329 853 399 853 q 188 847 243 853 q 101 838 133 842 l 101 997 q 213 1025 146 1013 q 381 1038 279 1038 q 556 1017 478 1038 q 691 943 635 997 q 776 789 747 889 q 806 531 806 689 q 778 258 806 364 q 698 95 750 153 q 576 15 646 38 q 422 -8 507 -8 m 424 176 q 490 188 460 176 q 542 226 519 199 q 578 301 565 253 q 594 422 592 349 l 263 422 q 280 279 265 333 q 329 201 294 225 q 424 176 364 176 z "},"T":{"ha":815,"x_min":22,"x_max":793,"o":"m 304 0 l 304 843 l 22 843 l 22 1028 l 793 1028 l 793 843 l 510 843 l 510 0 l 304 0 z "},"Ŧ":{"ha":815,"x_min":22,"x_max":793,"o":"m 69 481 l 69 585 l 744 585 l 744 481 l 69 481 m 304 0 l 304 843 l 22 843 l 22 1028 l 793 1028 l 793 843 l 510 843 l 510 0 l 304 0 z "},"Ť":{"ha":815,"x_min":22,"x_max":793,"o":"m 304 0 l 304 843 l 22 843 l 22 1028 l 793 1028 l 793 843 l 510 843 l 510 0 l 304 0 z "},"Ţ":{"ha":815,"x_min":22,"x_max":793,"o":"m 304 0 l 304 843 l 22 843 l 22 1028 l 793 1028 l 793 843 l 510 843 l 510 0 l 304 0 z "},"Ț":{"ha":815,"x_min":22,"x_max":793,"o":"m 304 0 l 304 843 l 22 843 l 22 1028 l 793 1028 l 793 843 l 510 843 l 510 0 l 304 0 m 243 -300 l 243 -215 l 281 -206 q 323 -190 307 -199 q 345 -160 339 -181 q 351 -101 351 -140 l 476 -101 q 463 -215 476 -171 q 413 -279 449 -258 q 315 -300 378 -300 l 243 -300 z "},"Ṫ":{"ha":815,"x_min":22,"x_max":793,"o":"m 304 0 l 304 843 l 22 843 l 22 1028 l 793 1028 l 793 843 l 510 843 l 510 0 l 304 0 z "},"Ṭ":{"ha":815,"x_min":22,"x_max":793,"o":"m 304 0 l 304 843 l 22 843 l 22 1028 l 793 1028 l 793 843 l 510 843 l 510 0 l 304 0 z "},"Ṯ":{"ha":815,"x_min":22,"x_max":793,"o":"m 304 0 l 304 843 l 22 843 l 22 1028 l 793 1028 l 793 843 l 510 843 l 510 0 l 304 0 z "},"U":{"ha":953,"x_min":75,"x_max":878,"o":"m 476 -7 q 318 8 392 -7 q 190 59 244 22 q 105 162 135 96 q 75 331 75 228 l 75 1028 l 281 1028 l 281 332 q 303 242 281 275 q 370 193 326 208 q 476 178 414 178 q 581 193 538 178 q 648 242 625 208 q 671 332 671 275 l 671 1028 l 878 1028 l 878 331 q 847 162 878 228 q 763 59 817 96 q 635 8 708 22 q 476 -7 563 -7 z "},"Ú":{"ha":953,"x_min":75,"x_max":878,"o":"m 476 -7 q 318 8 392 -7 q 190 59 244 22 q 105 162 135 96 q 75 331 75 228 l 75 1028 l 281 1028 l 281 332 q 303 242 281 275 q 370 193 326 208 q 476 178 414 178 q 581 193 538 178 q 648 242 625 208 q 671 332 671 275 l 671 1028 l 878 1028 l 878 331 q 847 162 878 228 q 763 59 817 96 q 635 8 708 22 q 476 -7 563 -7 z "},"Ŭ":{"ha":953,"x_min":75,"x_max":878,"o":"m 476 -7 q 318 8 392 -7 q 190 59 244 22 q 105 162 135 96 q 75 331 75 228 l 75 1028 l 281 1028 l 281 332 q 303 242 281 275 q 370 193 326 208 q 476 178 414 178 q 581 193 538 178 q 648 242 625 208 q 671 332 671 275 l 671 1028 l 878 1028 l 878 331 q 847 162 878 228 q 763 59 817 96 q 635 8 708 22 q 476 -7 563 -7 z "},"Û":{"ha":953,"x_min":75,"x_max":878,"o":"m 476 -7 q 318 8 392 -7 q 190 59 244 22 q 105 162 135 96 q 75 331 75 228 l 75 1028 l 281 1028 l 281 332 q 303 242 281 275 q 370 193 326 208 q 476 178 414 178 q 581 193 538 178 q 648 242 625 208 q 671 332 671 275 l 671 1028 l 878 1028 l 878 331 q 847 162 878 228 q 763 59 817 96 q 635 8 708 22 q 476 -7 563 -7 z "},"Ȕ":{"ha":953,"x_min":75,"x_max":878,"o":"m 476 -7 q 318 8 392 -7 q 190 59 244 22 q 105 162 135 96 q 75 331 75 228 l 75 1028 l 281 1028 l 281 332 q 303 242 281 275 q 370 193 326 208 q 476 178 414 178 q 581 193 538 178 q 648 242 625 208 q 671 332 671 275 l 671 1028 l 878 1028 l 878 331 q 847 162 878 228 q 763 59 817 96 q 635 8 708 22 q 476 -7 563 -7 m 549 1099 l 390 1293 l 556 1293 l 671 1099 l 549 1099 m 301 1099 l 142 1293 l 308 1293 l 422 1099 l 301 1099 z "},"Ü":{"ha":953,"x_min":75,"x_max":878,"o":"m 476 -7 q 318 8 392 -7 q 190 59 244 22 q 105 162 135 96 q 75 331 75 228 l 75 1028 l 281 1028 l 281 332 q 303 242 281 275 q 370 193 326 208 q 476 178 414 178 q 581 193 538 178 q 648 242 625 208 q 671 332 671 275 l 671 1028 l 878 1028 l 878 331 q 847 162 878 228 q 763 59 817 96 q 635 8 708 22 q 476 -7 563 -7 m 554 1107 q 526 1136 526 1107 l 526 1271 q 554 1301 526 1301 l 650 1301 q 671 1293 664 1301 q 678 1271 678 1285 l 678 1136 q 650 1107 678 1107 l 554 1107 m 260 1107 q 231 1136 231 1107 l 231 1271 q 260 1301 231 1301 l 356 1301 q 376 1293 369 1301 q 383 1271 383 1285 l 383 1136 q 356 1107 383 1107 l 260 1107 z "},"Ụ":{"ha":953,"x_min":75,"x_max":878,"o":"m 476 -7 q 318 8 392 -7 q 190 59 244 22 q 105 162 135 96 q 75 331 75 228 l 75 1028 l 281 1028 l 281 332 q 303 242 281 275 q 370 193 326 208 q 476 178 414 178 q 581 193 538 178 q 648 242 625 208 q 671 332 671 275 l 671 1028 l 878 1028 l 878 331 q 847 162 878 228 q 763 59 817 96 q 635 8 708 22 q 476 -7 563 -7 z "},"Ù":{"ha":953,"x_min":75,"x_max":878,"o":"m 476 -7 q 318 8 392 -7 q 190 59 244 22 q 105 162 135 96 q 75 331 75 228 l 75 1028 l 281 1028 l 281 332 q 303 242 281 275 q 370 193 326 208 q 476 178 414 178 q 581 193 538 178 q 648 242 625 208 q 671 332 671 275 l 671 1028 l 878 1028 l 878 331 q 847 162 878 228 q 763 59 817 96 q 635 8 708 22 q 476 -7 563 -7 z "},"Ủ":{"ha":953,"x_min":75,"x_max":878,"o":"m 476 -7 q 318 8 392 -7 q 190 59 244 22 q 105 162 135 96 q 75 331 75 228 l 75 1028 l 281 1028 l 281 332 q 303 242 281 275 q 370 193 326 208 q 476 178 414 178 q 581 193 538 178 q 648 242 625 208 q 671 332 671 275 l 671 1028 l 878 1028 l 878 331 q 847 162 878 228 q 763 59 817 96 q 635 8 708 22 q 476 -7 563 -7 z "},"Ư":{"ha":953,"x_min":75,"x_max":1001,"o":"m 693 917 l 693 1028 l 760 1028 q 833 1061 807 1028 q 858 1181 858 1094 l 1001 1181 q 976 1034 1001 1093 q 904 946 950 975 q 797 917 858 917 l 693 917 m 476 -7 q 318 8 392 -7 q 190 59 244 22 q 105 162 135 96 q 75 331 75 228 l 75 1028 l 281 1028 l 281 332 q 303 242 281 275 q 370 193 326 208 q 476 178 414 178 q 581 193 538 178 q 648 242 625 208 q 671 332 671 275 l 671 1028 l 878 1028 l 878 331 q 847 162 878 228 q 763 59 817 96 q 635 8 708 22 q 476 -7 563 -7 z "},"Ứ":{"ha":953,"x_min":75,"x_max":1001,"o":"m 693 917 l 693 1028 l 760 1028 q 833 1061 807 1028 q 858 1181 858 1094 l 1001 1181 q 976 1034 1001 1093 q 904 946 950 975 q 797 917 858 917 l 693 917 m 476 -7 q 318 8 392 -7 q 190 59 244 22 q 105 162 135 96 q 75 331 75 228 l 75 1028 l 281 1028 l 281 332 q 303 242 281 275 q 370 193 326 208 q 476 178 414 178 q 581 193 538 178 q 648 242 625 208 q 671 332 671 275 l 671 1028 l 878 1028 l 878 331 q 847 162 878 228 q 763 59 817 96 q 635 8 708 22 q 476 -7 563 -7 z "},"Ự":{"ha":953,"x_min":75,"x_max":1001,"o":"m 693 917 l 693 1028 l 760 1028 q 833 1061 807 1028 q 858 1181 858 1094 l 1001 1181 q 976 1034 1001 1093 q 904 946 950 975 q 797 917 858 917 l 693 917 m 476 -7 q 318 8 392 -7 q 190 59 244 22 q 105 162 135 96 q 75 331 75 228 l 75 1028 l 281 1028 l 281 332 q 303 242 281 275 q 370 193 326 208 q 476 178 414 178 q 581 193 538 178 q 648 242 625 208 q 671 332 671 275 l 671 1028 l 878 1028 l 878 331 q 847 162 878 228 q 763 59 817 96 q 635 8 708 22 q 476 -7 563 -7 z "},"Ừ":{"ha":953,"x_min":75,"x_max":1001,"o":"m 693 917 l 693 1028 l 760 1028 q 833 1061 807 1028 q 858 1181 858 1094 l 1001 1181 q 976 1034 1001 1093 q 904 946 950 975 q 797 917 858 917 l 693 917 m 476 -7 q 318 8 392 -7 q 190 59 244 22 q 105 162 135 96 q 75 331 75 228 l 75 1028 l 281 1028 l 281 332 q 303 242 281 275 q 370 193 326 208 q 476 178 414 178 q 581 193 538 178 q 648 242 625 208 q 671 332 671 275 l 671 1028 l 878 1028 l 878 331 q 847 162 878 228 q 763 59 817 96 q 635 8 708 22 q 476 -7 563 -7 z "},"Ử":{"ha":953,"x_min":75,"x_max":1001,"o":"m 693 917 l 693 1028 l 760 1028 q 833 1061 807 1028 q 858 1181 858 1094 l 1001 1181 q 976 1034 1001 1093 q 904 946 950 975 q 797 917 858 917 l 693 917 m 476 -7 q 318 8 392 -7 q 190 59 244 22 q 105 162 135 96 q 75 331 75 228 l 75 1028 l 281 1028 l 281 332 q 303 242 281 275 q 370 193 326 208 q 476 178 414 178 q 581 193 538 178 q 648 242 625 208 q 671 332 671 275 l 671 1028 l 878 1028 l 878 331 q 847 162 878 228 q 763 59 817 96 q 635 8 708 22 q 476 -7 563 -7 z "},"Ữ":{"ha":953,"x_min":75,"x_max":1001,"o":"m 693 917 l 693 1028 l 760 1028 q 833 1061 807 1028 q 858 1181 858 1094 l 1001 1181 q 976 1034 1001 1093 q 904 946 950 975 q 797 917 858 917 l 693 917 m 476 -7 q 318 8 392 -7 q 190 59 244 22 q 105 162 135 96 q 75 331 75 228 l 75 1028 l 281 1028 l 281 332 q 303 242 281 275 q 370 193 326 208 q 476 178 414 178 q 581 193 538 178 q 648 242 625 208 q 671 332 671 275 l 671 1028 l 878 1028 l 878 331 q 847 162 878 228 q 763 59 817 96 q 635 8 708 22 q 476 -7 563 -7 z "},"Ű":{"ha":953,"x_min":75,"x_max":878,"o":"m 476 -7 q 318 8 392 -7 q 190 59 244 22 q 105 162 135 96 q 75 331 75 228 l 75 1028 l 281 1028 l 281 332 q 303 242 281 275 q 370 193 326 208 q 476 178 414 178 q 581 193 538 178 q 648 242 625 208 q 671 332 671 275 l 671 1028 l 878 1028 l 878 331 q 847 162 878 228 q 763 59 817 96 q 635 8 708 22 q 476 -7 563 -7 z "},"Ȗ":{"ha":953,"x_min":75,"x_max":878,"o":"m 476 -7 q 318 8 392 -7 q 190 59 244 22 q 105 162 135 96 q 75 331 75 228 l 75 1028 l 281 1028 l 281 332 q 303 242 281 275 q 370 193 326 208 q 476 178 414 178 q 581 193 538 178 q 648 242 625 208 q 671 332 671 275 l 671 1028 l 878 1028 l 878 331 q 847 162 878 228 q 763 59 817 96 q 635 8 708 22 q 476 -7 563 -7 z "},"Ū":{"ha":953,"x_min":75,"x_max":878,"o":"m 476 -7 q 318 8 392 -7 q 190 59 244 22 q 105 162 135 96 q 75 331 75 228 l 75 1028 l 281 1028 l 281 332 q 303 242 281 275 q 370 193 326 208 q 476 178 414 178 q 581 193 538 178 q 648 242 625 208 q 671 332 671 275 l 671 1028 l 878 1028 l 878 331 q 847 162 878 228 q 763 59 817 96 q 635 8 708 22 q 476 -7 563 -7 z "},"Ṻ":{"ha":953,"x_min":75,"x_max":878,"o":"m 476 -7 q 318 8 392 -7 q 190 59 244 22 q 105 162 135 96 q 75 331 75 228 l 75 1028 l 281 1028 l 281 332 q 303 242 281 275 q 370 193 326 208 q 476 178 414 178 q 581 193 538 178 q 648 242 625 208 q 671 332 671 275 l 671 1028 l 878 1028 l 878 331 q 847 162 878 228 q 763 59 817 96 q 635 8 708 22 q 476 -7 563 -7 m 554 1304 q 526 1333 526 1304 l 526 1468 q 554 1499 526 1499 l 650 1499 q 671 1490 664 1499 q 678 1468 678 1482 l 678 1333 q 650 1304 678 1304 l 554 1304 m 260 1304 q 231 1333 231 1304 l 231 1468 q 260 1499 231 1499 l 356 1499 q 376 1490 369 1499 q 383 1468 383 1482 l 383 1333 q 356 1304 383 1304 l 260 1304 z "},"Ų":{"ha":953,"x_min":75,"x_max":878,"o":"m 476 -7 q 318 8 392 -7 q 190 59 244 22 q 105 162 135 96 q 75 331 75 228 l 75 1028 l 281 1028 l 281 332 q 303 242 281 275 q 370 193 326 208 q 476 178 414 178 q 581 193 538 178 q 648 242 625 208 q 671 332 671 275 l 671 1028 l 878 1028 l 878 331 q 847 162 878 228 q 763 59 817 96 q 635 8 708 22 q 476 -7 563 -7 z "},"Ů":{"ha":953,"x_min":75,"x_max":878,"o":"m 476 -7 q 318 8 392 -7 q 190 59 244 22 q 105 162 135 96 q 75 331 75 228 l 75 1028 l 281 1028 l 281 332 q 303 242 281 275 q 370 193 326 208 q 476 178 414 178 q 581 193 538 178 q 648 242 625 208 q 671 332 671 275 l 671 1028 l 878 1028 l 878 331 q 847 162 878 228 q 763 59 817 96 q 635 8 708 22 q 476 -7 563 -7 z "},"Ũ":{"ha":953,"x_min":75,"x_max":878,"o":"m 476 -7 q 318 8 392 -7 q 190 59 244 22 q 105 162 135 96 q 75 331 75 228 l 75 1028 l 281 1028 l 281 332 q 303 242 281 275 q 370 193 326 208 q 476 178 414 178 q 581 193 538 178 q 648 242 625 208 q 671 332 671 275 l 671 1028 l 878 1028 l 878 331 q 847 162 878 228 q 763 59 817 96 q 635 8 708 22 q 476 -7 563 -7 z "},"Ṹ":{"ha":953,"x_min":75,"x_max":878,"o":"m 476 -7 q 318 8 392 -7 q 190 59 244 22 q 105 162 135 96 q 75 331 75 228 l 75 1028 l 281 1028 l 281 332 q 303 242 281 275 q 370 193 326 208 q 476 178 414 178 q 581 193 538 178 q 648 242 625 208 q 671 332 671 275 l 671 1028 l 878 1028 l 878 331 q 847 162 878 228 q 763 59 817 96 q 635 8 708 22 q 476 -7 563 -7 z "},"V":{"ha":951,"x_min":24,"x_max":928,"o":"m 346 0 l 24 1028 l 236 1028 l 476 222 l 717 1028 l 928 1028 l 606 0 l 346 0 z "},"W":{"ha":1376,"x_min":24,"x_max":1353,"o":"m 269 0 l 24 1028 l 236 1028 l 401 303 l 594 1028 l 783 1028 l 975 303 l 1140 1028 l 1353 1028 l 1107 0 l 897 0 l 689 725 l 479 0 l 269 0 z "},"Ẃ":{"ha":1376,"x_min":24,"x_max":1353,"o":"m 269 0 l 24 1028 l 236 1028 l 401 303 l 594 1028 l 783 1028 l 975 303 l 1140 1028 l 1353 1028 l 1107 0 l 897 0 l 689 725 l 479 0 l 269 0 z "},"Ŵ":{"ha":1376,"x_min":24,"x_max":1353,"o":"m 269 0 l 24 1028 l 236 1028 l 401 303 l 594 1028 l 783 1028 l 975 303 l 1140 1028 l 1353 1028 l 1107 0 l 897 0 l 689 725 l 479 0 l 269 0 z "},"Ẅ":{"ha":1376,"x_min":24,"x_max":1353,"o":"m 269 0 l 24 1028 l 236 1028 l 401 303 l 594 1028 l 783 1028 l 975 303 l 1140 1028 l 1353 1028 l 1107 0 l 897 0 l 689 725 l 479 0 l 269 0 m 817 1107 q 789 1136 789 1107 l 789 1271 q 817 1301 789 1301 l 913 1301 q 933 1293 926 1301 q 940 1271 940 1285 l 940 1136 q 913 1107 940 1107 l 817 1107 m 522 1107 q 493 1136 493 1107 l 493 1271 q 522 1301 493 1301 l 618 1301 q 639 1293 632 1301 q 646 1271 646 1285 l 646 1136 q 618 1107 646 1107 l 522 1107 z "},"Ẁ":{"ha":1376,"x_min":24,"x_max":1353,"o":"m 269 0 l 24 1028 l 236 1028 l 401 303 l 594 1028 l 783 1028 l 975 303 l 1140 1028 l 1353 1028 l 1107 0 l 897 0 l 689 725 l 479 0 l 269 0 z "},"X":{"ha":921,"x_min":24,"x_max":897,"o":"m 665 0 l 24 1028 l 251 1028 l 893 0 l 665 0 m 28 0 l 372 561 l 478 388 l 256 0 l 28 0 m 547 454 l 443 628 l 671 1028 l 897 1028 l 547 454 z "},"Y":{"ha":872,"x_min":24,"x_max":847,"o":"m 333 0 l 333 311 l 24 1028 l 238 1028 l 440 521 l 642 1028 l 847 1028 l 539 311 l 539 0 l 333 0 z "},"Ý":{"ha":872,"x_min":24,"x_max":847,"o":"m 333 0 l 333 311 l 24 1028 l 238 1028 l 440 521 l 642 1028 l 847 1028 l 539 311 l 539 0 l 333 0 z "},"Ŷ":{"ha":872,"x_min":24,"x_max":847,"o":"m 333 0 l 333 311 l 24 1028 l 238 1028 l 440 521 l 642 1028 l 847 1028 l 539 311 l 539 0 l 333 0 z "},"Ÿ":{"ha":872,"x_min":24,"x_max":847,"o":"m 333 0 l 333 311 l 24 1028 l 238 1028 l 440 521 l 642 1028 l 847 1028 l 539 311 l 539 0 l 333 0 m 531 1107 q 503 1136 503 1107 l 503 1271 q 531 1301 503 1301 l 626 1301 q 647 1293 640 1301 q 654 1271 654 1285 l 654 1136 q 626 1107 654 1107 l 531 1107 m 236 1107 q 207 1136 207 1107 l 207 1271 q 236 1301 207 1301 l 332 1301 q 353 1293 346 1301 q 360 1271 360 1285 l 360 1136 q 332 1107 360 1107 l 236 1107 z "},"Ẏ":{"ha":872,"x_min":24,"x_max":847,"o":"m 333 0 l 333 311 l 24 1028 l 238 1028 l 440 521 l 642 1028 l 847 1028 l 539 311 l 539 0 l 333 0 z "},"Ỵ":{"ha":872,"x_min":24,"x_max":847,"o":"m 333 0 l 333 311 l 24 1028 l 238 1028 l 440 521 l 642 1028 l 847 1028 l 539 311 l 539 0 l 333 0 z "},"Ỳ":{"ha":872,"x_min":24,"x_max":847,"o":"m 333 0 l 333 311 l 24 1028 l 238 1028 l 440 521 l 642 1028 l 847 1028 l 539 311 l 539 0 l 333 0 z "},"Ỷ":{"ha":872,"x_min":24,"x_max":847,"o":"m 333 0 l 333 311 l 24 1028 l 238 1028 l 440 521 l 642 1028 l 847 1028 l 539 311 l 539 0 l 333 0 z "},"Ȳ":{"ha":872,"x_min":24,"x_max":847,"o":"m 333 0 l 333 311 l 24 1028 l 238 1028 l 440 521 l 642 1028 l 847 1028 l 539 311 l 539 0 l 333 0 z "},"Ỹ":{"ha":872,"x_min":24,"x_max":847,"o":"m 333 0 l 333 311 l 24 1028 l 238 1028 l 440 521 l 642 1028 l 847 1028 l 539 311 l 539 0 l 333 0 z "},"Z":{"ha":797,"x_min":53,"x_max":747,"o":"m 53 0 l 53 165 l 496 843 l 53 843 l 53 1028 l 747 1028 l 747 864 l 304 185 l 747 185 l 747 0 l 53 0 z "},"Ź":{"ha":797,"x_min":53,"x_max":747,"o":"m 53 0 l 53 165 l 496 843 l 53 843 l 53 1028 l 747 1028 l 747 864 l 304 185 l 747 185 l 747 0 l 53 0 z "},"Ž":{"ha":797,"x_min":53,"x_max":747,"o":"m 53 0 l 53 165 l 496 843 l 53 843 l 53 1028 l 747 1028 l 747 864 l 304 185 l 747 185 l 747 0 l 53 0 z "},"Ż":{"ha":797,"x_min":53,"x_max":747,"o":"m 53 0 l 53 165 l 496 843 l 53 843 l 53 1028 l 747 1028 l 747 864 l 304 185 l 747 185 l 747 0 l 53 0 z "},"Ẓ":{"ha":797,"x_min":53,"x_max":747,"o":"m 53 0 l 53 165 l 496 843 l 53 843 l 53 1028 l 747 1028 l 747 864 l 304 185 l 747 185 l 747 0 l 53 0 z "},"a":{"ha":764,"x_min":47,"x_max":689,"o":"m 238 -8 q 100 42 153 -8 q 47 181 47 92 l 47 247 q 107 387 47 332 q 293 442 167 442 l 483 442 l 483 493 q 471 551 483 528 q 424 584 458 574 q 321 594 390 594 l 97 594 l 97 714 q 223 743 151 731 q 396 756 294 756 q 555 733 489 756 q 655 657 621 711 q 689 507 689 603 l 689 0 l 526 0 l 493 79 q 460 54 483 68 q 402 26 436 40 q 326 1 368 11 q 238 -8 283 -8 m 342 135 q 373 138 356 135 q 409 147 390 142 q 444 156 428 151 q 470 165 460 161 q 483 171 481 169 l 483 344 l 358 336 q 278 308 304 332 q 253 244 253 285 l 253 214 q 265 168 253 186 q 297 142 276 150 q 342 135 317 135 z "},"á":{"ha":764,"x_min":47,"x_max":689,"o":"m 238 -8 q 100 42 153 -8 q 47 181 47 92 l 47 247 q 107 387 47 332 q 293 442 167 442 l 483 442 l 483 493 q 471 551 483 528 q 424 584 458 574 q 321 594 390 594 l 97 594 l 97 714 q 223 743 151 731 q 396 756 294 756 q 555 733 489 756 q 655 657 621 711 q 689 507 689 603 l 689 0 l 526 0 l 493 79 q 460 54 483 68 q 402 26 436 40 q 326 1 368 11 q 238 -8 283 -8 m 342 135 q 373 138 356 135 q 409 147 390 142 q 444 156 428 151 q 470 165 460 161 q 483 171 481 169 l 483 344 l 358 336 q 278 308 304 332 q 253 244 253 285 l 253 214 q 265 168 253 186 q 297 142 276 150 q 342 135 317 135 z "},"ă":{"ha":764,"x_min":47,"x_max":689,"o":"m 238 -8 q 100 42 153 -8 q 47 181 47 92 l 47 247 q 107 387 47 332 q 293 442 167 442 l 483 442 l 483 493 q 471 551 483 528 q 424 584 458 574 q 321 594 390 594 l 97 594 l 97 714 q 223 743 151 731 q 396 756 294 756 q 555 733 489 756 q 655 657 621 711 q 689 507 689 603 l 689 0 l 526 0 l 493 79 q 460 54 483 68 q 402 26 436 40 q 326 1 368 11 q 238 -8 283 -8 m 342 135 q 373 138 356 135 q 409 147 390 142 q 444 156 428 151 q 470 165 460 161 q 483 171 481 169 l 483 344 l 358 336 q 278 308 304 332 q 253 244 253 285 l 253 214 q 265 168 253 186 q 297 142 276 150 q 342 135 317 135 z "},"ắ":{"ha":764,"x_min":47,"x_max":689,"o":"m 238 -8 q 100 42 153 -8 q 47 181 47 92 l 47 247 q 107 387 47 332 q 293 442 167 442 l 483 442 l 483 493 q 471 551 483 528 q 424 584 458 574 q 321 594 390 594 l 97 594 l 97 714 q 223 743 151 731 q 396 756 294 756 q 555 733 489 756 q 655 657 621 711 q 689 507 689 603 l 689 0 l 526 0 l 493 79 q 460 54 483 68 q 402 26 436 40 q 326 1 368 11 q 238 -8 283 -8 m 342 135 q 373 138 356 135 q 409 147 390 142 q 444 156 428 151 q 470 165 460 161 q 483 171 481 169 l 483 344 l 358 336 q 278 308 304 332 q 253 244 253 285 l 253 214 q 265 168 253 186 q 297 142 276 150 q 342 135 317 135 m 268 1014 q 299 947 268 965 q 365 929 329 929 q 435 948 408 929 q 463 1014 463 967 l 561 1014 q 537 919 561 956 q 469 864 513 882 q 365 846 426 846 q 263 864 307 846 q 196 919 219 882 q 172 1014 172 956 l 268 1014 m 306 1046 l 419 1240 l 586 1240 l 426 1046 l 306 1046 z "},"ặ":{"ha":764,"x_min":47,"x_max":689,"o":"m 238 -8 q 100 42 153 -8 q 47 181 47 92 l 47 247 q 107 387 47 332 q 293 442 167 442 l 483 442 l 483 493 q 471 551 483 528 q 424 584 458 574 q 321 594 390 594 l 97 594 l 97 714 q 223 743 151 731 q 396 756 294 756 q 555 733 489 756 q 655 657 621 711 q 689 507 689 603 l 689 0 l 526 0 l 493 79 q 460 54 483 68 q 402 26 436 40 q 326 1 368 11 q 238 -8 283 -8 m 342 135 q 373 138 356 135 q 409 147 390 142 q 444 156 428 151 q 470 165 460 161 q 483 171 481 169 l 483 344 l 358 336 q 278 308 304 332 q 253 244 253 285 l 253 214 q 265 168 253 186 q 297 142 276 150 q 342 135 317 135 m 321 -314 q 293 -285 293 -314 l 293 -150 q 321 -119 293 -119 l 417 -119 q 438 -128 431 -119 q 444 -150 444 -136 l 444 -285 q 417 -314 444 -314 l 321 -314 z "},"ằ":{"ha":764,"x_min":47,"x_max":689,"o":"m 238 -8 q 100 42 153 -8 q 47 181 47 92 l 47 247 q 107 387 47 332 q 293 442 167 442 l 483 442 l 483 493 q 471 551 483 528 q 424 584 458 574 q 321 594 390 594 l 97 594 l 97 714 q 223 743 151 731 q 396 756 294 756 q 555 733 489 756 q 655 657 621 711 q 689 507 689 603 l 689 0 l 526 0 l 493 79 q 460 54 483 68 q 402 26 436 40 q 326 1 368 11 q 238 -8 283 -8 m 342 135 q 373 138 356 135 q 409 147 390 142 q 444 156 428 151 q 470 165 460 161 q 483 171 481 169 l 483 344 l 358 336 q 278 308 304 332 q 253 244 253 285 l 253 214 q 265 168 253 186 q 297 142 276 150 q 342 135 317 135 m 268 1014 q 299 947 268 965 q 365 929 329 929 q 435 948 408 929 q 463 1014 463 967 l 561 1014 q 537 919 561 956 q 469 864 513 882 q 365 846 426 846 q 263 864 307 846 q 196 919 219 882 q 172 1014 172 956 l 268 1014 m 315 1046 l 156 1240 l 322 1240 l 436 1046 l 315 1046 z "},"ẳ":{"ha":764,"x_min":47,"x_max":689,"o":"m 238 -8 q 100 42 153 -8 q 47 181 47 92 l 47 247 q 107 387 47 332 q 293 442 167 442 l 483 442 l 483 493 q 471 551 483 528 q 424 584 458 574 q 321 594 390 594 l 97 594 l 97 714 q 223 743 151 731 q 396 756 294 756 q 555 733 489 756 q 655 657 621 711 q 689 507 689 603 l 689 0 l 526 0 l 493 79 q 460 54 483 68 q 402 26 436 40 q 326 1 368 11 q 238 -8 283 -8 m 342 135 q 373 138 356 135 q 409 147 390 142 q 444 156 428 151 q 470 165 460 161 q 483 171 481 169 l 483 344 l 358 336 q 278 308 304 332 q 253 244 253 285 l 253 214 q 265 168 253 186 q 297 142 276 150 q 342 135 317 135 m 365 846 q 263 864 307 846 q 196 919 219 882 q 172 1014 172 956 l 268 1014 q 299 947 268 965 q 365 929 329 929 q 435 948 408 929 q 463 1014 463 967 l 561 1014 q 537 919 561 956 q 469 864 513 882 q 365 846 426 846 m 336 986 l 336 1078 q 381 1103 369 1088 q 392 1133 392 1118 q 381 1160 392 1150 q 344 1171 371 1171 q 323 1169 335 1171 q 300 1163 311 1167 l 300 1243 q 333 1251 315 1249 q 372 1254 351 1254 q 468 1224 438 1254 q 499 1140 499 1193 q 460 1048 499 1085 q 336 986 422 1011 z "},"ẵ":{"ha":764,"x_min":47,"x_max":689,"o":"m 238 -8 q 100 42 153 -8 q 47 181 47 92 l 47 247 q 107 387 47 332 q 293 442 167 442 l 483 442 l 483 493 q 471 551 483 528 q 424 584 458 574 q 321 594 390 594 l 97 594 l 97 714 q 223 743 151 731 q 396 756 294 756 q 555 733 489 756 q 655 657 621 711 q 689 507 689 603 l 689 0 l 526 0 l 493 79 q 460 54 483 68 q 402 26 436 40 q 326 1 368 11 q 238 -8 283 -8 m 342 135 q 373 138 356 135 q 409 147 390 142 q 444 156 428 151 q 470 165 460 161 q 483 171 481 169 l 483 344 l 358 336 q 278 308 304 332 q 253 244 253 285 l 253 214 q 265 168 253 186 q 297 142 276 150 q 342 135 317 135 m 268 1014 q 299 947 268 965 q 365 929 329 929 q 435 948 408 929 q 463 1014 463 967 l 561 1014 q 537 919 561 956 q 469 864 513 882 q 365 846 426 846 q 263 864 307 846 q 196 919 219 882 q 172 1014 172 956 l 268 1014 m 144 1065 q 166 1153 149 1124 q 210 1194 183 1183 q 267 1204 236 1204 q 329 1194 300 1204 q 383 1175 358 1185 q 431 1165 408 1165 q 471 1177 457 1165 q 485 1211 485 1189 l 588 1211 q 569 1124 583 1156 q 529 1080 554 1093 q 468 1067 504 1067 q 406 1077 436 1067 q 349 1097 375 1088 q 303 1106 324 1106 q 264 1094 278 1106 q 247 1065 250 1083 l 144 1065 z "},"â":{"ha":764,"x_min":47,"x_max":689,"o":"m 238 -8 q 100 42 153 -8 q 47 181 47 92 l 47 247 q 107 387 47 332 q 293 442 167 442 l 483 442 l 483 493 q 471 551 483 528 q 424 584 458 574 q 321 594 390 594 l 97 594 l 97 714 q 223 743 151 731 q 396 756 294 756 q 555 733 489 756 q 655 657 621 711 q 689 507 689 603 l 689 0 l 526 0 l 493 79 q 460 54 483 68 q 402 26 436 40 q 326 1 368 11 q 238 -8 283 -8 m 342 135 q 373 138 356 135 q 409 147 390 142 q 444 156 428 151 q 470 165 460 161 q 483 171 481 169 l 483 344 l 358 336 q 278 308 304 332 q 253 244 253 285 l 253 214 q 265 168 253 186 q 297 142 276 150 q 342 135 317 135 z "},"ấ":{"ha":764,"x_min":47,"x_max":735,"o":"m 238 -8 q 100 42 153 -8 q 47 181 47 92 l 47 247 q 107 387 47 332 q 293 442 167 442 l 483 442 l 483 493 q 471 551 483 528 q 424 584 458 574 q 321 594 390 594 l 97 594 l 97 714 q 223 743 151 731 q 396 756 294 756 q 555 733 489 756 q 655 657 621 711 q 689 507 689 603 l 689 0 l 526 0 l 493 79 q 460 54 483 68 q 402 26 436 40 q 326 1 368 11 q 238 -8 283 -8 m 342 135 q 373 138 356 135 q 409 147 390 142 q 444 156 428 151 q 470 165 460 161 q 483 171 481 169 l 483 344 l 358 336 q 278 308 304 332 q 253 244 253 285 l 253 214 q 265 168 253 186 q 297 142 276 150 q 342 135 317 135 m 310 1028 l 450 1028 l 586 876 l 467 876 l 376 936 l 279 876 l 158 876 l 310 1028 m 568 1168 l 735 1168 l 626 994 l 506 994 l 568 1168 z "},"ậ":{"ha":764,"x_min":47,"x_max":689,"o":"m 238 -8 q 100 42 153 -8 q 47 181 47 92 l 47 247 q 107 387 47 332 q 293 442 167 442 l 483 442 l 483 493 q 471 551 483 528 q 424 584 458 574 q 321 594 390 594 l 97 594 l 97 714 q 223 743 151 731 q 396 756 294 756 q 555 733 489 756 q 655 657 621 711 q 689 507 689 603 l 689 0 l 526 0 l 493 79 q 460 54 483 68 q 402 26 436 40 q 326 1 368 11 q 238 -8 283 -8 m 342 135 q 373 138 356 135 q 409 147 390 142 q 444 156 428 151 q 470 165 460 161 q 483 171 481 169 l 483 344 l 358 336 q 278 308 304 332 q 253 244 253 285 l 253 214 q 265 168 253 186 q 297 142 276 150 q 342 135 317 135 m 321 -314 q 293 -285 293 -314 l 293 -150 q 321 -119 293 -119 l 417 -119 q 438 -128 431 -119 q 444 -150 444 -136 l 444 -285 q 417 -314 444 -314 l 321 -314 z "},"ầ":{"ha":764,"x_min":17,"x_max":689,"o":"m 238 -8 q 100 42 153 -8 q 47 181 47 92 l 47 247 q 107 387 47 332 q 293 442 167 442 l 483 442 l 483 493 q 471 551 483 528 q 424 584 458 574 q 321 594 390 594 l 97 594 l 97 714 q 223 743 151 731 q 396 756 294 756 q 555 733 489 756 q 655 657 621 711 q 689 507 689 603 l 689 0 l 526 0 l 493 79 q 460 54 483 68 q 402 26 436 40 q 326 1 368 11 q 238 -8 283 -8 m 342 135 q 373 138 356 135 q 409 147 390 142 q 444 156 428 151 q 470 165 460 161 q 483 171 481 169 l 483 344 l 358 336 q 278 308 304 332 q 253 244 253 285 l 253 214 q 265 168 253 186 q 297 142 276 150 q 342 135 317 135 m 310 1028 l 450 1028 l 586 876 l 467 876 l 376 936 l 279 876 l 158 876 l 310 1028 m 17 1168 l 183 1168 l 247 994 l 126 994 l 17 1168 z "},"ẩ":{"ha":764,"x_min":47,"x_max":689,"o":"m 238 -8 q 100 42 153 -8 q 47 181 47 92 l 47 247 q 107 387 47 332 q 293 442 167 442 l 483 442 l 483 493 q 471 551 483 528 q 424 584 458 574 q 321 594 390 594 l 97 594 l 97 714 q 223 743 151 731 q 396 756 294 756 q 555 733 489 756 q 655 657 621 711 q 689 507 689 603 l 689 0 l 526 0 l 493 79 q 460 54 483 68 q 402 26 436 40 q 326 1 368 11 q 238 -8 283 -8 m 342 135 q 373 138 356 135 q 409 147 390 142 q 444 156 428 151 q 470 165 460 161 q 483 171 481 169 l 483 344 l 358 336 q 278 308 304 332 q 253 244 253 285 l 253 214 q 265 168 253 186 q 297 142 276 150 q 342 135 317 135 m 158 876 l 310 1028 l 450 1028 l 586 876 l 467 876 l 376 936 l 279 876 l 158 876 m 539 953 l 539 1043 q 573 1063 564 1050 q 582 1089 582 1076 q 574 1113 582 1106 q 547 1121 567 1121 q 526 1119 538 1121 q 503 1113 514 1117 l 503 1183 q 536 1192 518 1189 q 575 1194 554 1194 q 654 1170 629 1194 q 679 1103 679 1146 q 646 1011 679 1047 q 539 953 613 975 z "},"ẫ":{"ha":764,"x_min":47,"x_max":689,"o":"m 238 -8 q 100 42 153 -8 q 47 181 47 92 l 47 247 q 107 387 47 332 q 293 442 167 442 l 483 442 l 483 493 q 471 551 483 528 q 424 584 458 574 q 321 594 390 594 l 97 594 l 97 714 q 223 743 151 731 q 396 756 294 756 q 555 733 489 756 q 655 657 621 711 q 689 507 689 603 l 689 0 l 526 0 l 493 79 q 460 54 483 68 q 402 26 436 40 q 326 1 368 11 q 238 -8 283 -8 m 342 135 q 373 138 356 135 q 409 147 390 142 q 444 156 428 151 q 470 165 460 161 q 483 171 481 169 l 483 344 l 358 336 q 278 308 304 332 q 253 244 253 285 l 253 214 q 265 168 253 186 q 297 142 276 150 q 342 135 317 135 m 144 1085 q 166 1173 149 1143 q 210 1214 183 1203 q 267 1225 236 1225 q 328 1215 300 1225 q 382 1196 357 1206 q 431 1186 407 1186 q 471 1198 457 1186 q 485 1232 485 1210 l 588 1232 q 569 1144 583 1175 q 529 1100 554 1113 q 468 1088 504 1088 q 402 1097 435 1088 q 342 1117 369 1107 q 292 1126 314 1126 q 260 1115 272 1126 q 247 1085 249 1103 l 144 1085 m 450 1028 l 586 876 l 467 876 l 376 936 l 279 876 l 158 876 l 310 1028 l 450 1028 z "},"ȁ":{"ha":764,"x_min":47,"x_max":689,"o":"m 238 -8 q 100 42 153 -8 q 47 181 47 92 l 47 247 q 107 387 47 332 q 293 442 167 442 l 483 442 l 483 493 q 471 551 483 528 q 424 584 458 574 q 321 594 390 594 l 97 594 l 97 714 q 223 743 151 731 q 396 756 294 756 q 555 733 489 756 q 655 657 621 711 q 689 507 689 603 l 689 0 l 526 0 l 493 79 q 460 54 483 68 q 402 26 436 40 q 326 1 368 11 q 238 -8 283 -8 m 342 135 q 373 138 356 135 q 409 147 390 142 q 444 156 428 151 q 470 165 460 161 q 483 171 481 169 l 483 344 l 358 336 q 278 308 304 332 q 253 244 253 285 l 253 214 q 265 168 253 186 q 297 142 276 150 q 342 135 317 135 m 463 876 l 303 1071 l 469 1071 l 583 876 l 463 876 m 215 876 l 56 1071 l 221 1071 l 336 876 l 215 876 z "},"ä":{"ha":764,"x_min":47,"x_max":689,"o":"m 238 -8 q 100 42 153 -8 q 47 181 47 92 l 47 247 q 107 387 47 332 q 293 442 167 442 l 483 442 l 483 493 q 471 551 483 528 q 424 584 458 574 q 321 594 390 594 l 97 594 l 97 714 q 223 743 151 731 q 396 756 294 756 q 555 733 489 756 q 655 657 621 711 q 689 507 689 603 l 689 0 l 526 0 l 493 79 q 460 54 483 68 q 402 26 436 40 q 326 1 368 11 q 238 -8 283 -8 m 342 135 q 373 138 356 135 q 409 147 390 142 q 444 156 428 151 q 470 165 460 161 q 483 171 481 169 l 483 344 l 358 336 q 278 308 304 332 q 253 244 253 285 l 253 214 q 265 168 253 186 q 297 142 276 150 q 342 135 317 135 m 458 885 q 429 914 429 885 l 429 1049 q 458 1079 429 1079 l 554 1079 q 574 1071 567 1079 q 582 1049 582 1063 l 582 914 q 554 885 582 885 l 458 885 m 186 885 q 157 914 157 885 l 157 1049 q 186 1079 157 1079 l 281 1079 q 301 1071 294 1079 q 308 1049 308 1063 l 308 914 q 281 885 308 885 l 186 885 z "},"ạ":{"ha":764,"x_min":47,"x_max":689,"o":"m 238 -8 q 100 42 153 -8 q 47 181 47 92 l 47 247 q 107 387 47 332 q 293 442 167 442 l 483 442 l 483 493 q 471 551 483 528 q 424 584 458 574 q 321 594 390 594 l 97 594 l 97 714 q 223 743 151 731 q 396 756 294 756 q 555 733 489 756 q 655 657 621 711 q 689 507 689 603 l 689 0 l 526 0 l 493 79 q 460 54 483 68 q 402 26 436 40 q 326 1 368 11 q 238 -8 283 -8 m 342 135 q 373 138 356 135 q 409 147 390 142 q 444 156 428 151 q 470 165 460 161 q 483 171 481 169 l 483 344 l 358 336 q 278 308 304 332 q 253 244 253 285 l 253 214 q 265 168 253 186 q 297 142 276 150 q 342 135 317 135 m 321 -314 q 293 -285 293 -314 l 293 -150 q 321 -119 293 -119 l 417 -119 q 438 -128 431 -119 q 444 -150 444 -136 l 444 -285 q 417 -314 444 -314 l 321 -314 z "},"à":{"ha":764,"x_min":47,"x_max":689,"o":"m 238 -8 q 100 42 153 -8 q 47 181 47 92 l 47 247 q 107 387 47 332 q 293 442 167 442 l 483 442 l 483 493 q 471 551 483 528 q 424 584 458 574 q 321 594 390 594 l 97 594 l 97 714 q 223 743 151 731 q 396 756 294 756 q 555 733 489 756 q 655 657 621 711 q 689 507 689 603 l 689 0 l 526 0 l 493 79 q 460 54 483 68 q 402 26 436 40 q 326 1 368 11 q 238 -8 283 -8 m 342 135 q 373 138 356 135 q 409 147 390 142 q 444 156 428 151 q 470 165 460 161 q 483 171 481 169 l 483 344 l 358 336 q 278 308 304 332 q 253 244 253 285 l 253 214 q 265 168 253 186 q 297 142 276 150 q 342 135 317 135 z "},"ả":{"ha":764,"x_min":47,"x_max":689,"o":"m 238 -8 q 100 42 153 -8 q 47 181 47 92 l 47 247 q 107 387 47 332 q 293 442 167 442 l 483 442 l 483 493 q 471 551 483 528 q 424 584 458 574 q 321 594 390 594 l 97 594 l 97 714 q 223 743 151 731 q 396 756 294 756 q 555 733 489 756 q 655 657 621 711 q 689 507 689 603 l 689 0 l 526 0 l 493 79 q 460 54 483 68 q 402 26 436 40 q 326 1 368 11 q 238 -8 283 -8 m 342 135 q 373 138 356 135 q 409 147 390 142 q 444 156 428 151 q 470 165 460 161 q 483 171 481 169 l 483 344 l 358 336 q 278 308 304 332 q 253 244 253 285 l 253 214 q 265 168 253 186 q 297 142 276 150 q 342 135 317 135 m 336 825 l 336 915 q 381 940 369 925 q 392 971 392 956 q 382 999 392 989 q 346 1010 372 1010 q 324 1007 335 1010 q 300 1001 313 1004 l 300 1082 q 334 1090 315 1088 q 372 1093 353 1093 q 469 1063 438 1093 q 500 978 500 1032 q 461 885 500 922 q 336 825 422 849 z "},"ȃ":{"ha":764,"x_min":47,"x_max":689,"o":"m 238 -8 q 100 42 153 -8 q 47 181 47 92 l 47 247 q 107 387 47 332 q 293 442 167 442 l 483 442 l 483 493 q 471 551 483 528 q 424 584 458 574 q 321 594 390 594 l 97 594 l 97 714 q 223 743 151 731 q 396 756 294 756 q 555 733 489 756 q 655 657 621 711 q 689 507 689 603 l 689 0 l 526 0 l 493 79 q 460 54 483 68 q 402 26 436 40 q 326 1 368 11 q 238 -8 283 -8 m 342 135 q 373 138 356 135 q 409 147 390 142 q 444 156 428 151 q 470 165 460 161 q 483 171 481 169 l 483 344 l 358 336 q 278 308 304 332 q 253 244 253 285 l 253 214 q 265 168 253 186 q 297 142 276 150 q 342 135 317 135 z "},"ā":{"ha":764,"x_min":47,"x_max":689,"o":"m 238 -8 q 100 42 153 -8 q 47 181 47 92 l 47 247 q 107 387 47 332 q 293 442 167 442 l 483 442 l 483 493 q 471 551 483 528 q 424 584 458 574 q 321 594 390 594 l 97 594 l 97 714 q 223 743 151 731 q 396 756 294 756 q 555 733 489 756 q 655 657 621 711 q 689 507 689 603 l 689 0 l 526 0 l 493 79 q 460 54 483 68 q 402 26 436 40 q 326 1 368 11 q 238 -8 283 -8 m 342 135 q 373 138 356 135 q 409 147 390 142 q 444 156 428 151 q 470 165 460 161 q 483 171 481 169 l 483 344 l 358 336 q 278 308 304 332 q 253 244 253 285 l 253 214 q 265 168 253 186 q 297 142 276 150 q 342 135 317 135 z "},"ą":{"ha":764,"x_min":47,"x_max":714,"o":"m 238 -8 q 100 42 153 -8 q 47 181 47 92 l 47 247 q 107 387 47 332 q 293 442 167 442 l 483 442 l 483 493 q 471 551 483 528 q 424 584 458 574 q 321 594 390 594 l 97 594 l 97 714 q 223 743 151 731 q 396 756 294 756 q 555 733 489 756 q 655 657 621 711 q 689 507 689 603 l 689 0 l 526 0 l 493 79 q 460 54 483 68 q 402 26 436 40 q 326 1 368 11 q 238 -8 283 -8 m 342 135 q 373 138 356 135 q 409 147 390 142 q 444 156 428 151 q 470 165 460 161 q 483 171 481 169 l 483 344 l 358 336 q 278 308 304 332 q 253 244 253 285 l 253 214 q 265 168 253 186 q 297 142 276 150 q 342 135 317 135 z "},"å":{"ha":764,"x_min":47,"x_max":689,"o":"m 238 -8 q 100 42 153 -8 q 47 181 47 92 l 47 247 q 107 387 47 332 q 293 442 167 442 l 483 442 l 483 493 q 471 551 483 528 q 424 584 458 574 q 321 594 390 594 l 97 594 l 97 714 q 223 743 151 731 q 396 756 294 756 q 555 733 489 756 q 655 657 621 711 q 689 507 689 603 l 689 0 l 526 0 l 493 79 q 460 54 483 68 q 402 26 436 40 q 326 1 368 11 q 238 -8 283 -8 m 342 135 q 373 138 356 135 q 409 147 390 142 q 444 156 428 151 q 470 165 460 161 q 483 171 481 169 l 483 344 l 358 336 q 278 308 304 332 q 253 244 253 285 l 253 214 q 265 168 253 186 q 297 142 276 150 q 342 135 317 135 z "},"ǻ":{"ha":764,"x_min":47,"x_max":689,"o":"m 238 -8 q 100 42 153 -8 q 47 181 47 92 l 47 247 q 107 387 47 332 q 293 442 167 442 l 483 442 l 483 493 q 471 551 483 528 q 424 584 458 574 q 321 594 390 594 l 97 594 l 97 714 q 223 743 151 731 q 396 756 294 756 q 555 733 489 756 q 655 657 621 711 q 689 507 689 603 l 689 0 l 526 0 l 493 79 q 460 54 483 68 q 402 26 436 40 q 326 1 368 11 q 238 -8 283 -8 m 342 135 q 373 138 356 135 q 409 147 390 142 q 444 156 428 151 q 470 165 460 161 q 483 171 481 169 l 483 344 l 358 336 q 278 308 304 332 q 253 244 253 285 l 253 214 q 265 168 253 186 q 297 142 276 150 q 342 135 317 135 z "},"ã":{"ha":764,"x_min":47,"x_max":689,"o":"m 238 -8 q 100 42 153 -8 q 47 181 47 92 l 47 247 q 107 387 47 332 q 293 442 167 442 l 483 442 l 483 493 q 471 551 483 528 q 424 584 458 574 q 321 594 390 594 l 97 594 l 97 714 q 223 743 151 731 q 396 756 294 756 q 555 733 489 756 q 655 657 621 711 q 689 507 689 603 l 689 0 l 526 0 l 493 79 q 460 54 483 68 q 402 26 436 40 q 326 1 368 11 q 238 -8 283 -8 m 342 135 q 373 138 356 135 q 409 147 390 142 q 444 156 428 151 q 470 165 460 161 q 483 171 481 169 l 483 344 l 358 336 q 278 308 304 332 q 253 244 253 285 l 253 214 q 265 168 253 186 q 297 142 276 150 q 342 135 317 135 z "},"æ":{"ha":1183,"x_min":50,"x_max":1117,"o":"m 247 -8 q 133 19 176 -8 q 69 90 89 46 q 50 183 50 133 l 50 244 q 75 343 50 300 q 154 413 100 386 q 297 439 208 439 l 488 439 l 488 497 q 474 552 488 531 q 428 584 460 574 q 340 594 396 594 l 101 594 l 101 714 q 222 744 163 733 q 361 756 282 756 q 502 732 440 756 q 596 668 564 708 q 687 733 631 710 q 826 757 743 757 q 992 734 928 757 q 1086 653 1056 711 q 1117 492 1117 596 q 1051 346 1117 386 q 864 306 986 306 l 688 306 q 703 224 689 256 q 743 175 717 192 q 808 152 769 158 q 893 146 846 146 l 1092 146 l 1092 25 q 946 -1 1024 6 q 792 -8 868 -8 q 684 8 733 -8 q 598 52 635 24 q 540 115 561 81 q 467 56 511 85 q 367 10 424 28 q 247 -8 311 -8 m 344 135 q 428 153 388 135 q 500 201 469 172 q 490 258 494 221 q 485 340 485 294 l 338 328 q 275 300 293 325 q 257 246 257 275 l 257 218 q 269 167 257 185 q 302 142 282 149 q 344 135 322 135 m 688 435 l 858 435 q 900 442 883 435 q 924 463 917 449 q 932 497 932 476 q 919 561 932 538 q 878 594 906 585 q 810 603 851 603 q 735 588 761 603 q 699 536 708 572 q 688 435 689 500 z "},"ǽ":{"ha":1183,"x_min":50,"x_max":1117,"o":"m 247 -8 q 133 19 176 -8 q 69 90 89 46 q 50 183 50 133 l 50 244 q 75 343 50 300 q 154 413 100 386 q 297 439 208 439 l 488 439 l 488 497 q 474 552 488 531 q 428 584 460 574 q 340 594 396 594 l 101 594 l 101 714 q 222 744 163 733 q 361 756 282 756 q 502 732 440 756 q 596 668 564 708 q 687 733 631 710 q 826 757 743 757 q 992 734 928 757 q 1086 653 1056 711 q 1117 492 1117 596 q 1051 346 1117 386 q 864 306 986 306 l 688 306 q 703 224 689 256 q 743 175 717 192 q 808 152 769 158 q 893 146 846 146 l 1092 146 l 1092 25 q 946 -1 1024 6 q 792 -8 868 -8 q 684 8 733 -8 q 598 52 635 24 q 540 115 561 81 q 467 56 511 85 q 367 10 424 28 q 247 -8 311 -8 m 344 135 q 428 153 388 135 q 500 201 469 172 q 490 258 494 221 q 485 340 485 294 l 338 328 q 275 300 293 325 q 257 246 257 275 l 257 218 q 269 167 257 185 q 302 142 282 149 q 344 135 322 135 m 688 435 l 858 435 q 900 442 883 435 q 924 463 917 449 q 932 497 932 476 q 919 561 932 538 q 878 594 906 585 q 810 603 851 603 q 735 588 761 603 q 699 536 708 572 q 688 435 689 500 z "},"b":{"ha":813,"x_min":79,"x_max":756,"o":"m 501 -8 q 414 3 453 -8 q 344 32 375 14 q 285 71 313 50 l 251 0 l 79 0 l 79 1060 l 285 1060 l 285 694 q 385 738 329 718 q 492 757 440 757 q 645 717 588 757 q 729 591 703 676 q 756 365 756 506 q 728 157 756 240 q 645 33 701 74 q 501 -8 589 -8 m 425 160 q 490 178 461 160 q 534 244 518 197 q 550 375 550 292 q 533 517 550 472 q 487 577 515 563 q 425 592 458 592 q 348 578 383 592 q 285 550 313 565 l 285 196 q 345 171 311 182 q 425 160 379 160 z "},"ḃ":{"ha":813,"x_min":79,"x_max":756,"o":"m 501 -8 q 414 3 453 -8 q 344 32 375 14 q 285 71 313 50 l 251 0 l 79 0 l 79 1060 l 285 1060 l 285 694 q 385 738 329 718 q 492 757 440 757 q 645 717 588 757 q 729 591 703 676 q 756 365 756 506 q 728 157 756 240 q 645 33 701 74 q 501 -8 589 -8 m 425 160 q 490 178 461 160 q 534 244 518 197 q 550 375 550 292 q 533 517 550 472 q 487 577 515 563 q 425 592 458 592 q 348 578 383 592 q 285 550 313 565 l 285 196 q 345 171 311 182 q 425 160 379 160 z "},"c":{"ha":681,"x_min":57,"x_max":646,"o":"m 369 -8 q 244 10 301 -8 q 144 70 186 28 q 80 185 103 113 q 57 369 57 258 q 78 558 57 483 q 140 677 99 633 q 240 739 181 721 q 375 757 300 757 q 505 749 443 757 q 635 722 567 742 l 635 604 l 439 604 q 336 585 375 604 q 280 516 297 567 q 263 371 263 465 q 280 229 263 278 q 337 164 297 181 q 442 147 376 147 l 646 147 l 646 31 q 565 10 611 19 q 469 -3 519 1 q 369 -8 418 -8 z "},"ć":{"ha":681,"x_min":57,"x_max":646,"o":"m 369 -8 q 244 10 301 -8 q 144 70 186 28 q 80 185 103 113 q 57 369 57 258 q 78 558 57 483 q 140 677 99 633 q 240 739 181 721 q 375 757 300 757 q 505 749 443 757 q 635 722 567 742 l 635 604 l 439 604 q 336 585 375 604 q 280 516 297 567 q 263 371 263 465 q 280 229 263 278 q 337 164 297 181 q 442 147 376 147 l 646 147 l 646 31 q 565 10 611 19 q 469 -3 519 1 q 369 -8 418 -8 z "},"č":{"ha":681,"x_min":57,"x_max":646,"o":"m 369 -8 q 244 10 301 -8 q 144 70 186 28 q 80 185 103 113 q 57 369 57 258 q 78 558 57 483 q 140 677 99 633 q 240 739 181 721 q 375 757 300 757 q 505 749 443 757 q 635 722 567 742 l 635 604 l 439 604 q 336 585 375 604 q 280 516 297 567 q 263 371 263 465 q 280 229 263 278 q 337 164 297 181 q 442 147 376 147 l 646 147 l 646 31 q 565 10 611 19 q 469 -3 519 1 q 369 -8 418 -8 z "},"ç":{"ha":681,"x_min":57,"x_max":646,"o":"m 369 -8 q 244 10 301 -8 q 144 70 186 28 q 80 185 103 113 q 57 369 57 258 q 78 558 57 483 q 140 677 99 633 q 240 739 181 721 q 375 757 300 757 q 505 749 443 757 q 635 722 567 742 l 635 604 l 439 604 q 336 585 375 604 q 280 516 297 567 q 263 371 263 465 q 280 229 263 278 q 337 164 297 181 q 442 147 376 147 l 646 147 l 646 31 q 565 10 611 19 q 469 -3 519 1 q 369 -8 418 -8 z "},"ḉ":{"ha":681,"x_min":57,"x_max":646,"o":"m 369 -8 q 244 10 301 -8 q 144 70 186 28 q 80 185 103 113 q 57 369 57 258 q 78 558 57 483 q 140 677 99 633 q 240 739 181 721 q 375 757 300 757 q 505 749 443 757 q 635 722 567 742 l 635 604 l 439 604 q 336 585 375 604 q 280 516 297 567 q 263 371 263 465 q 280 229 263 278 q 337 164 297 181 q 442 147 376 147 l 646 147 l 646 31 q 565 10 611 19 q 469 -3 519 1 q 369 -8 418 -8 z "},"ĉ":{"ha":681,"x_min":57,"x_max":646,"o":"m 369 -8 q 244 10 301 -8 q 144 70 186 28 q 80 185 103 113 q 57 369 57 258 q 78 558 57 483 q 140 677 99 633 q 240 739 181 721 q 375 757 300 757 q 505 749 443 757 q 635 722 567 742 l 635 604 l 439 604 q 336 585 375 604 q 280 516 297 567 q 263 371 263 465 q 280 229 263 278 q 337 164 297 181 q 442 147 376 147 l 646 147 l 646 31 q 565 10 611 19 q 469 -3 519 1 q 369 -8 418 -8 z "},"ċ":{"ha":681,"x_min":57,"x_max":646,"o":"m 369 -8 q 244 10 301 -8 q 144 70 186 28 q 80 185 103 113 q 57 369 57 258 q 78 558 57 483 q 140 677 99 633 q 240 739 181 721 q 375 757 300 757 q 505 749 443 757 q 635 722 567 742 l 635 604 l 439 604 q 336 585 375 604 q 280 516 297 567 q 263 371 263 465 q 280 229 263 278 q 337 164 297 181 q 442 147 376 147 l 646 147 l 646 31 q 565 10 611 19 q 469 -3 519 1 q 369 -8 418 -8 z "},"d":{"ha":810,"x_min":57,"x_max":735,"o":"m 324 -8 q 176 28 236 -8 q 87 148 117 65 q 57 365 57 231 q 83 590 57 504 q 169 717 108 676 q 338 757 231 757 q 439 747 389 757 q 528 722 489 736 l 528 1060 l 735 1060 l 735 0 l 561 0 l 528 71 q 470 31 504 49 q 399 2 436 13 q 324 -8 361 -8 m 396 157 q 472 171 438 157 q 528 199 506 185 l 528 574 q 469 593 500 583 q 404 603 439 603 q 322 585 353 603 q 276 517 290 567 q 263 375 263 468 q 276 241 263 289 q 318 175 289 193 q 396 157 347 157 z "},"ð":{"ha":799,"x_min":57,"x_max":742,"o":"m 399 -7 q 242 12 307 -7 q 135 73 176 31 q 76 188 94 115 q 57 364 57 260 q 78 548 57 475 q 140 661 99 621 q 239 717 181 701 q 371 733 297 733 q 476 722 429 733 q 554 685 522 710 q 603 622 586 660 q 665 552 632 585 q 719 478 697 519 q 742 375 742 436 q 724 190 742 264 q 665 72 706 115 q 559 11 625 29 q 399 -7 493 -7 m 399 157 q 462 164 436 157 q 503 192 488 171 q 528 254 519 213 q 536 365 536 296 q 528 477 536 436 q 503 538 519 518 q 462 565 488 558 q 399 572 436 572 q 337 565 363 572 q 294 538 311 558 q 270 477 278 518 q 263 365 263 436 q 270 254 263 296 q 294 192 278 213 q 337 164 311 171 q 399 157 363 157 m 742 375 l 557 449 q 535 681 557 588 q 467 829 514 774 q 349 910 421 885 q 176 939 278 935 l 176 1063 q 438 1022 331 1058 q 613 907 546 986 q 711 697 681 828 q 742 375 742 567 m 217 771 l 192 836 l 706 1035 l 732 968 l 217 771 z "},"ď":{"ha":810,"x_min":57,"x_max":992,"o":"m 324 -8 q 176 28 236 -8 q 87 148 117 65 q 57 365 57 231 q 83 590 57 504 q 169 717 108 676 q 338 757 231 757 q 439 747 389 757 q 528 722 489 736 l 528 1060 l 735 1060 l 735 0 l 561 0 l 528 71 q 470 31 504 49 q 399 2 436 13 q 324 -8 361 -8 m 396 157 q 472 171 438 157 q 528 199 506 185 l 528 574 q 469 593 500 583 q 404 603 439 603 q 322 585 353 603 q 276 517 290 567 q 263 375 263 468 q 276 241 263 289 q 318 175 289 193 q 396 157 347 157 m 818 808 l 806 999 l 806 1088 l 992 1088 l 992 999 l 981 808 l 818 808 z "},"đ":{"ha":810,"x_min":57,"x_max":815,"o":"m 365 854 l 365 936 l 815 936 l 815 854 l 365 854 m 324 -8 q 176 28 236 -8 q 87 148 117 65 q 57 365 57 231 q 83 590 57 504 q 169 717 108 676 q 338 757 231 757 q 439 747 389 757 q 528 722 489 736 l 528 1060 l 735 1060 l 735 0 l 561 0 l 528 71 q 470 31 504 49 q 399 2 436 13 q 324 -8 361 -8 m 396 157 q 472 171 438 157 q 528 199 506 185 l 528 574 q 469 593 500 583 q 404 603 439 603 q 322 585 353 603 q 276 517 290 567 q 263 375 263 468 q 276 241 263 289 q 318 175 289 193 q 396 157 347 157 z "},"ḋ":{"ha":810,"x_min":57,"x_max":735,"o":"m 324 -8 q 176 28 236 -8 q 87 148 117 65 q 57 365 57 231 q 83 590 57 504 q 169 717 108 676 q 338 757 231 757 q 439 747 389 757 q 528 722 489 736 l 528 1060 l 735 1060 l 735 0 l 561 0 l 528 71 q 470 31 504 49 q 399 2 436 13 q 324 -8 361 -8 m 396 157 q 472 171 438 157 q 528 199 506 185 l 528 574 q 469 593 500 583 q 404 603 439 603 q 322 585 353 603 q 276 517 290 567 q 263 375 263 468 q 276 241 263 289 q 318 175 289 193 q 396 157 347 157 z "},"ḍ":{"ha":810,"x_min":57,"x_max":735,"o":"m 324 -8 q 176 28 236 -8 q 87 148 117 65 q 57 365 57 231 q 83 590 57 504 q 169 717 108 676 q 338 757 231 757 q 439 747 389 757 q 528 722 489 736 l 528 1060 l 735 1060 l 735 0 l 561 0 l 528 71 q 470 31 504 49 q 399 2 436 13 q 324 -8 361 -8 m 396 157 q 472 171 438 157 q 528 199 506 185 l 528 574 q 469 593 500 583 q 404 603 439 603 q 322 585 353 603 q 276 517 290 567 q 263 375 263 468 q 276 241 263 289 q 318 175 289 193 q 396 157 347 157 m 339 -314 q 311 -285 311 -314 l 311 -150 q 339 -119 311 -119 l 435 -119 q 456 -128 449 -119 q 463 -150 463 -136 l 463 -285 q 435 -314 463 -314 l 339 -314 z "},"ḏ":{"ha":810,"x_min":57,"x_max":735,"o":"m 324 -8 q 176 28 236 -8 q 87 148 117 65 q 57 365 57 231 q 83 590 57 504 q 169 717 108 676 q 338 757 231 757 q 439 747 389 757 q 528 722 489 736 l 528 1060 l 735 1060 l 735 0 l 561 0 l 528 71 q 470 31 504 49 q 399 2 436 13 q 324 -8 361 -8 m 396 157 q 472 171 438 157 q 528 199 506 185 l 528 574 q 469 593 500 583 q 404 603 439 603 q 322 585 353 603 q 276 517 290 567 q 263 375 263 468 q 276 241 263 289 q 318 175 289 193 q 396 157 347 157 z "},"e":{"ha":746,"x_min":57,"x_max":690,"o":"m 393 -7 q 196 26 269 -7 q 90 142 122 58 q 57 372 57 225 q 88 607 57 524 q 190 724 118 690 q 386 757 263 757 q 564 735 497 757 q 660 657 631 713 q 690 500 690 601 q 660 381 690 425 q 576 319 631 338 q 449 300 522 300 l 261 300 q 278 209 264 243 q 333 160 293 175 q 447 146 372 146 l 665 146 l 665 25 q 547 3 611 14 q 393 -7 482 -7 m 258 422 l 428 422 q 489 439 469 422 q 508 499 508 456 q 496 563 508 539 q 457 598 483 588 q 386 608 431 608 q 311 592 339 608 q 271 536 283 576 q 258 422 258 496 z "},"é":{"ha":746,"x_min":57,"x_max":690,"o":"m 393 -7 q 196 26 269 -7 q 90 142 122 58 q 57 372 57 225 q 88 607 57 524 q 190 724 118 690 q 386 757 263 757 q 564 735 497 757 q 660 657 631 713 q 690 500 690 601 q 660 381 690 425 q 576 319 631 338 q 449 300 522 300 l 261 300 q 278 209 264 243 q 333 160 293 175 q 447 146 372 146 l 665 146 l 665 25 q 547 3 611 14 q 393 -7 482 -7 m 258 422 l 428 422 q 489 439 469 422 q 508 499 508 456 q 496 563 508 539 q 457 598 483 588 q 386 608 431 608 q 311 592 339 608 q 271 536 283 576 q 258 422 258 496 z "},"ĕ":{"ha":746,"x_min":57,"x_max":690,"o":"m 393 -7 q 196 26 269 -7 q 90 142 122 58 q 57 372 57 225 q 88 607 57 524 q 190 724 118 690 q 386 757 263 757 q 564 735 497 757 q 660 657 631 713 q 690 500 690 601 q 660 381 690 425 q 576 319 631 338 q 449 300 522 300 l 261 300 q 278 209 264 243 q 333 160 293 175 q 447 146 372 146 l 665 146 l 665 25 q 547 3 611 14 q 393 -7 482 -7 m 258 422 l 428 422 q 489 439 469 422 q 508 499 508 456 q 496 563 508 539 q 457 598 483 588 q 386 608 431 608 q 311 592 339 608 q 271 536 283 576 q 258 422 258 496 z "},"ě":{"ha":746,"x_min":57,"x_max":690,"o":"m 393 -7 q 196 26 269 -7 q 90 142 122 58 q 57 372 57 225 q 88 607 57 524 q 190 724 118 690 q 386 757 263 757 q 564 735 497 757 q 660 657 631 713 q 690 500 690 601 q 660 381 690 425 q 576 319 631 338 q 449 300 522 300 l 261 300 q 278 209 264 243 q 333 160 293 175 q 447 146 372 146 l 665 146 l 665 25 q 547 3 611 14 q 393 -7 482 -7 m 258 422 l 428 422 q 489 439 469 422 q 508 499 508 456 q 496 563 508 539 q 457 598 483 588 q 386 608 431 608 q 311 592 339 608 q 271 536 283 576 q 258 422 258 496 z "},"ḝ":{"ha":746,"x_min":57,"x_max":690,"o":"m 393 -7 q 196 26 269 -7 q 90 142 122 58 q 57 372 57 225 q 88 607 57 524 q 190 724 118 690 q 386 757 263 757 q 564 735 497 757 q 660 657 631 713 q 690 500 690 601 q 660 381 690 425 q 576 319 631 338 q 449 300 522 300 l 261 300 q 278 209 264 243 q 333 160 293 175 q 447 146 372 146 l 665 146 l 665 25 q 547 3 611 14 q 393 -7 482 -7 m 258 422 l 428 422 q 489 439 469 422 q 508 499 508 456 q 496 563 508 539 q 457 598 483 588 q 386 608 431 608 q 311 592 339 608 q 271 536 283 576 q 258 422 258 496 z "},"ê":{"ha":746,"x_min":57,"x_max":690,"o":"m 393 -7 q 196 26 269 -7 q 90 142 122 58 q 57 372 57 225 q 88 607 57 524 q 190 724 118 690 q 386 757 263 757 q 564 735 497 757 q 660 657 631 713 q 690 500 690 601 q 660 381 690 425 q 576 319 631 338 q 449 300 522 300 l 261 300 q 278 209 264 243 q 333 160 293 175 q 447 146 372 146 l 665 146 l 665 25 q 547 3 611 14 q 393 -7 482 -7 m 258 422 l 428 422 q 489 439 469 422 q 508 499 508 456 q 496 563 508 539 q 457 598 483 588 q 386 608 431 608 q 311 592 339 608 q 271 536 283 576 q 258 422 258 496 z "},"ế":{"ha":746,"x_min":57,"x_max":735,"o":"m 393 -7 q 196 26 269 -7 q 90 142 122 58 q 57 372 57 225 q 88 607 57 524 q 190 724 118 690 q 386 757 263 757 q 564 735 497 757 q 660 657 631 713 q 690 500 690 601 q 660 381 690 425 q 576 319 631 338 q 449 300 522 300 l 261 300 q 278 209 264 243 q 333 160 293 175 q 447 146 372 146 l 665 146 l 665 25 q 547 3 611 14 q 393 -7 482 -7 m 258 422 l 428 422 q 489 439 469 422 q 508 499 508 456 q 496 563 508 539 q 457 598 483 588 q 386 608 431 608 q 311 592 339 608 q 271 536 283 576 q 258 422 258 496 m 310 1028 l 450 1028 l 586 876 l 467 876 l 376 936 l 279 876 l 158 876 l 310 1028 m 568 1168 l 735 1168 l 626 994 l 506 994 l 568 1168 z "},"ệ":{"ha":746,"x_min":57,"x_max":690,"o":"m 393 -7 q 196 26 269 -7 q 90 142 122 58 q 57 372 57 225 q 88 607 57 524 q 190 724 118 690 q 386 757 263 757 q 564 735 497 757 q 660 657 631 713 q 690 500 690 601 q 660 381 690 425 q 576 319 631 338 q 449 300 522 300 l 261 300 q 278 209 264 243 q 333 160 293 175 q 447 146 372 146 l 665 146 l 665 25 q 547 3 611 14 q 393 -7 482 -7 m 258 422 l 428 422 q 489 439 469 422 q 508 499 508 456 q 496 563 508 539 q 457 598 483 588 q 386 608 431 608 q 311 592 339 608 q 271 536 283 576 q 258 422 258 496 m 321 -314 q 293 -285 293 -314 l 293 -150 q 321 -119 293 -119 l 417 -119 q 438 -128 431 -119 q 444 -150 444 -136 l 444 -285 q 417 -314 444 -314 l 321 -314 z "},"ề":{"ha":746,"x_min":17,"x_max":690,"o":"m 393 -7 q 196 26 269 -7 q 90 142 122 58 q 57 372 57 225 q 88 607 57 524 q 190 724 118 690 q 386 757 263 757 q 564 735 497 757 q 660 657 631 713 q 690 500 690 601 q 660 381 690 425 q 576 319 631 338 q 449 300 522 300 l 261 300 q 278 209 264 243 q 333 160 293 175 q 447 146 372 146 l 665 146 l 665 25 q 547 3 611 14 q 393 -7 482 -7 m 258 422 l 428 422 q 489 439 469 422 q 508 499 508 456 q 496 563 508 539 q 457 598 483 588 q 386 608 431 608 q 311 592 339 608 q 271 536 283 576 q 258 422 258 496 m 310 1028 l 450 1028 l 586 876 l 467 876 l 376 936 l 279 876 l 158 876 l 310 1028 m 17 1168 l 183 1168 l 247 994 l 126 994 l 17 1168 z "},"ể":{"ha":746,"x_min":57,"x_max":690,"o":"m 393 -7 q 196 26 269 -7 q 90 142 122 58 q 57 372 57 225 q 88 607 57 524 q 190 724 118 690 q 386 757 263 757 q 564 735 497 757 q 660 657 631 713 q 690 500 690 601 q 660 381 690 425 q 576 319 631 338 q 449 300 522 300 l 261 300 q 278 209 264 243 q 333 160 293 175 q 447 146 372 146 l 665 146 l 665 25 q 547 3 611 14 q 393 -7 482 -7 m 258 422 l 428 422 q 489 439 469 422 q 508 499 508 456 q 496 563 508 539 q 457 598 483 588 q 386 608 431 608 q 311 592 339 608 q 271 536 283 576 q 258 422 258 496 m 158 876 l 310 1028 l 450 1028 l 586 876 l 467 876 l 376 936 l 279 876 l 158 876 m 539 953 l 539 1043 q 573 1063 564 1050 q 582 1089 582 1076 q 574 1113 582 1106 q 547 1121 567 1121 q 526 1119 538 1121 q 503 1113 514 1117 l 503 1183 q 536 1192 518 1189 q 575 1194 554 1194 q 654 1170 629 1194 q 679 1103 679 1146 q 646 1011 679 1047 q 539 953 613 975 z "},"ễ":{"ha":746,"x_min":57,"x_max":690,"o":"m 393 -7 q 196 26 269 -7 q 90 142 122 58 q 57 372 57 225 q 88 607 57 524 q 190 724 118 690 q 386 757 263 757 q 564 735 497 757 q 660 657 631 713 q 690 500 690 601 q 660 381 690 425 q 576 319 631 338 q 449 300 522 300 l 261 300 q 278 209 264 243 q 333 160 293 175 q 447 146 372 146 l 665 146 l 665 25 q 547 3 611 14 q 393 -7 482 -7 m 258 422 l 428 422 q 489 439 469 422 q 508 499 508 456 q 496 563 508 539 q 457 598 483 588 q 386 608 431 608 q 311 592 339 608 q 271 536 283 576 q 258 422 258 496 m 144 1085 q 166 1173 149 1143 q 210 1214 183 1203 q 267 1225 236 1225 q 328 1215 300 1225 q 382 1196 357 1206 q 431 1186 407 1186 q 471 1198 457 1186 q 485 1232 485 1210 l 588 1232 q 569 1144 583 1175 q 529 1100 554 1113 q 468 1088 504 1088 q 402 1097 435 1088 q 342 1117 369 1107 q 292 1126 314 1126 q 260 1115 272 1126 q 247 1085 249 1103 l 144 1085 m 450 1028 l 586 876 l 467 876 l 376 936 l 279 876 l 158 876 l 310 1028 l 450 1028 z "},"ȅ":{"ha":746,"x_min":56,"x_max":690,"o":"m 393 -7 q 196 26 269 -7 q 90 142 122 58 q 57 372 57 225 q 88 607 57 524 q 190 724 118 690 q 386 757 263 757 q 564 735 497 757 q 660 657 631 713 q 690 500 690 601 q 660 381 690 425 q 576 319 631 338 q 449 300 522 300 l 261 300 q 278 209 264 243 q 333 160 293 175 q 447 146 372 146 l 665 146 l 665 25 q 547 3 611 14 q 393 -7 482 -7 m 258 422 l 428 422 q 489 439 469 422 q 508 499 508 456 q 496 563 508 539 q 457 598 483 588 q 386 608 431 608 q 311 592 339 608 q 271 536 283 576 q 258 422 258 496 m 463 876 l 303 1071 l 469 1071 l 583 876 l 463 876 m 215 876 l 56 1071 l 221 1071 l 336 876 l 215 876 z "},"ë":{"ha":746,"x_min":57,"x_max":690,"o":"m 393 -7 q 196 26 269 -7 q 90 142 122 58 q 57 372 57 225 q 88 607 57 524 q 190 724 118 690 q 386 757 263 757 q 564 735 497 757 q 660 657 631 713 q 690 500 690 601 q 660 381 690 425 q 576 319 631 338 q 449 300 522 300 l 261 300 q 278 209 264 243 q 333 160 293 175 q 447 146 372 146 l 665 146 l 665 25 q 547 3 611 14 q 393 -7 482 -7 m 258 422 l 428 422 q 489 439 469 422 q 508 499 508 456 q 496 563 508 539 q 457 598 483 588 q 386 608 431 608 q 311 592 339 608 q 271 536 283 576 q 258 422 258 496 m 458 885 q 429 914 429 885 l 429 1049 q 458 1079 429 1079 l 554 1079 q 574 1071 567 1079 q 582 1049 582 1063 l 582 914 q 554 885 582 885 l 458 885 m 186 885 q 157 914 157 885 l 157 1049 q 186 1079 157 1079 l 281 1079 q 301 1071 294 1079 q 308 1049 308 1063 l 308 914 q 281 885 308 885 l 186 885 z "},"ė":{"ha":746,"x_min":57,"x_max":690,"o":"m 393 -7 q 196 26 269 -7 q 90 142 122 58 q 57 372 57 225 q 88 607 57 524 q 190 724 118 690 q 386 757 263 757 q 564 735 497 757 q 660 657 631 713 q 690 500 690 601 q 660 381 690 425 q 576 319 631 338 q 449 300 522 300 l 261 300 q 278 209 264 243 q 333 160 293 175 q 447 146 372 146 l 665 146 l 665 25 q 547 3 611 14 q 393 -7 482 -7 m 258 422 l 428 422 q 489 439 469 422 q 508 499 508 456 q 496 563 508 539 q 457 598 483 588 q 386 608 431 608 q 311 592 339 608 q 271 536 283 576 q 258 422 258 496 z "},"ẹ":{"ha":746,"x_min":57,"x_max":690,"o":"m 393 -7 q 196 26 269 -7 q 90 142 122 58 q 57 372 57 225 q 88 607 57 524 q 190 724 118 690 q 386 757 263 757 q 564 735 497 757 q 660 657 631 713 q 690 500 690 601 q 660 381 690 425 q 576 319 631 338 q 449 300 522 300 l 261 300 q 278 209 264 243 q 333 160 293 175 q 447 146 372 146 l 665 146 l 665 25 q 547 3 611 14 q 393 -7 482 -7 m 258 422 l 428 422 q 489 439 469 422 q 508 499 508 456 q 496 563 508 539 q 457 598 483 588 q 386 608 431 608 q 311 592 339 608 q 271 536 283 576 q 258 422 258 496 m 321 -314 q 293 -285 293 -314 l 293 -150 q 321 -119 293 -119 l 417 -119 q 438 -128 431 -119 q 444 -150 444 -136 l 444 -285 q 417 -314 444 -314 l 321 -314 z "},"è":{"ha":746,"x_min":57,"x_max":690,"o":"m 393 -7 q 196 26 269 -7 q 90 142 122 58 q 57 372 57 225 q 88 607 57 524 q 190 724 118 690 q 386 757 263 757 q 564 735 497 757 q 660 657 631 713 q 690 500 690 601 q 660 381 690 425 q 576 319 631 338 q 449 300 522 300 l 261 300 q 278 209 264 243 q 333 160 293 175 q 447 146 372 146 l 665 146 l 665 25 q 547 3 611 14 q 393 -7 482 -7 m 258 422 l 428 422 q 489 439 469 422 q 508 499 508 456 q 496 563 508 539 q 457 598 483 588 q 386 608 431 608 q 311 592 339 608 q 271 536 283 576 q 258 422 258 496 z "},"ẻ":{"ha":746,"x_min":57,"x_max":690,"o":"m 393 -7 q 196 26 269 -7 q 90 142 122 58 q 57 372 57 225 q 88 607 57 524 q 190 724 118 690 q 386 757 263 757 q 564 735 497 757 q 660 657 631 713 q 690 500 690 601 q 660 381 690 425 q 576 319 631 338 q 449 300 522 300 l 261 300 q 278 209 264 243 q 333 160 293 175 q 447 146 372 146 l 665 146 l 665 25 q 547 3 611 14 q 393 -7 482 -7 m 258 422 l 428 422 q 489 439 469 422 q 508 499 508 456 q 496 563 508 539 q 457 598 483 588 q 386 608 431 608 q 311 592 339 608 q 271 536 283 576 q 258 422 258 496 m 336 825 l 336 915 q 381 940 369 925 q 392 971 392 956 q 382 999 392 989 q 346 1010 372 1010 q 324 1007 335 1010 q 300 1001 313 1004 l 300 1082 q 334 1090 315 1088 q 372 1093 353 1093 q 469 1063 438 1093 q 500 978 500 1032 q 461 885 500 922 q 336 825 422 849 z "},"ȇ":{"ha":746,"x_min":57,"x_max":690,"o":"m 393 -7 q 196 26 269 -7 q 90 142 122 58 q 57 372 57 225 q 88 607 57 524 q 190 724 118 690 q 386 757 263 757 q 564 735 497 757 q 660 657 631 713 q 690 500 690 601 q 660 381 690 425 q 576 319 631 338 q 449 300 522 300 l 261 300 q 278 209 264 243 q 333 160 293 175 q 447 146 372 146 l 665 146 l 665 25 q 547 3 611 14 q 393 -7 482 -7 m 258 422 l 428 422 q 489 439 469 422 q 508 499 508 456 q 496 563 508 539 q 457 598 483 588 q 386 608 431 608 q 311 592 339 608 q 271 536 283 576 q 258 422 258 496 z "},"ē":{"ha":746,"x_min":57,"x_max":690,"o":"m 393 -7 q 196 26 269 -7 q 90 142 122 58 q 57 372 57 225 q 88 607 57 524 q 190 724 118 690 q 386 757 263 757 q 564 735 497 757 q 660 657 631 713 q 690 500 690 601 q 660 381 690 425 q 576 319 631 338 q 449 300 522 300 l 261 300 q 278 209 264 243 q 333 160 293 175 q 447 146 372 146 l 665 146 l 665 25 q 547 3 611 14 q 393 -7 482 -7 m 258 422 l 428 422 q 489 439 469 422 q 508 499 508 456 q 496 563 508 539 q 457 598 483 588 q 386 608 431 608 q 311 592 339 608 q 271 536 283 576 q 258 422 258 496 z "},"ḗ":{"ha":746,"x_min":57,"x_max":690,"o":"m 393 -7 q 196 26 269 -7 q 90 142 122 58 q 57 372 57 225 q 88 607 57 524 q 190 724 118 690 q 386 757 263 757 q 564 735 497 757 q 660 657 631 713 q 690 500 690 601 q 660 381 690 425 q 576 319 631 338 q 449 300 522 300 l 261 300 q 278 209 264 243 q 333 160 293 175 q 447 146 372 146 l 665 146 l 665 25 q 547 3 611 14 q 393 -7 482 -7 m 258 422 l 428 422 q 489 439 469 422 q 508 499 508 456 q 496 563 508 539 q 457 598 483 588 q 386 608 431 608 q 311 592 339 608 q 271 536 283 576 q 258 422 258 496 z "},"ḕ":{"ha":746,"x_min":57,"x_max":690,"o":"m 393 -7 q 196 26 269 -7 q 90 142 122 58 q 57 372 57 225 q 88 607 57 524 q 190 724 118 690 q 386 757 263 757 q 564 735 497 757 q 660 657 631 713 q 690 500 690 601 q 660 381 690 425 q 576 319 631 338 q 449 300 522 300 l 261 300 q 278 209 264 243 q 333 160 293 175 q 447 146 372 146 l 665 146 l 665 25 q 547 3 611 14 q 393 -7 482 -7 m 258 422 l 428 422 q 489 439 469 422 q 508 499 508 456 q 496 563 508 539 q 457 598 483 588 q 386 608 431 608 q 311 592 339 608 q 271 536 283 576 q 258 422 258 496 z "},"ę":{"ha":746,"x_min":57,"x_max":690,"o":"m 393 -7 q 196 26 269 -7 q 90 142 122 58 q 57 372 57 225 q 88 607 57 524 q 190 724 118 690 q 386 757 263 757 q 564 735 497 757 q 660 657 631 713 q 690 500 690 601 q 660 381 690 425 q 576 319 631 338 q 449 300 522 300 l 261 300 q 278 209 264 243 q 333 160 293 175 q 447 146 372 146 l 665 146 l 665 25 q 547 3 611 14 q 393 -7 482 -7 m 258 422 l 428 422 q 489 439 469 422 q 508 499 508 456 q 496 563 508 539 q 457 598 483 588 q 386 608 431 608 q 311 592 339 608 q 271 536 283 576 q 258 422 258 496 z "},"ẽ":{"ha":746,"x_min":57,"x_max":690,"o":"m 393 -7 q 196 26 269 -7 q 90 142 122 58 q 57 372 57 225 q 88 607 57 524 q 190 724 118 690 q 386 757 263 757 q 564 735 497 757 q 660 657 631 713 q 690 500 690 601 q 660 381 690 425 q 576 319 631 338 q 449 300 522 300 l 261 300 q 278 209 264 243 q 333 160 293 175 q 447 146 372 146 l 665 146 l 665 25 q 547 3 611 14 q 393 -7 482 -7 m 258 422 l 428 422 q 489 439 469 422 q 508 499 508 456 q 496 563 508 539 q 457 598 483 588 q 386 608 431 608 q 311 592 339 608 q 271 536 283 576 q 258 422 258 496 z "},"ə":{"ha":746,"x_min":57,"x_max":690,"o":"m 353 756 q 550 723 476 756 q 656 607 624 690 q 689 376 689 524 q 658 142 689 225 q 556 25 628 58 q 360 -8 483 -8 q 182 14 249 -8 q 85 92 115 36 q 56 249 56 147 q 85 367 56 324 q 169 430 115 411 q 297 449 224 449 l 485 449 q 467 540 482 506 q 413 588 453 574 q 299 603 374 603 l 81 603 l 81 724 q 199 745 135 735 q 353 756 264 756 m 488 326 l 318 326 q 257 310 276 326 q 238 250 238 293 q 250 185 238 210 q 289 151 263 161 q 360 140 315 140 q 435 156 407 140 q 475 213 463 172 q 488 326 488 253 z "},"f":{"ha":546,"x_min":25,"x_max":533,"o":"m 131 0 l 131 581 l 25 581 l 25 713 l 131 746 l 131 796 q 156 951 131 890 q 236 1040 182 1011 q 379 1068 290 1068 q 467 1061 428 1068 q 533 1047 507 1054 l 533 900 l 419 900 q 369 890 388 900 q 344 860 351 881 q 338 807 338 840 l 338 746 l 526 746 l 526 581 l 338 581 l 338 0 l 131 0 z "},"ḟ":{"ha":546,"x_min":25,"x_max":533,"o":"m 131 0 l 131 581 l 25 581 l 25 713 l 131 746 l 131 796 q 156 951 131 890 q 236 1040 182 1011 q 379 1068 290 1068 q 467 1061 428 1068 q 533 1047 507 1054 l 533 900 l 419 900 q 369 890 388 900 q 344 860 351 881 q 338 807 338 840 l 338 746 l 526 746 l 526 581 l 338 581 l 338 0 l 131 0 z "},"g":{"ha":808,"x_min":28,"x_max":783,"o":"m 272 -344 q 147 -324 201 -344 q 60 -263 92 -303 q 28 -165 28 -224 l 28 -143 q 62 -41 28 -83 q 150 24 96 1 q 265 46 204 46 l 326 -18 q 272 -28 296 -18 q 235 -56 249 -37 q 222 -103 222 -75 l 222 -118 q 250 -179 222 -158 q 329 -200 278 -200 l 471 -200 q 553 -180 522 -200 q 585 -119 585 -160 l 585 -97 q 573 -55 585 -72 q 538 -28 561 -37 q 476 -18 515 -18 l 311 -18 q 126 28 186 -18 q 65 143 65 75 q 98 238 65 200 q 189 289 131 276 q 118 347 144 313 q 81 420 92 381 q 69 503 69 460 q 103 639 69 585 q 206 719 138 693 q 379 746 275 746 l 783 746 l 783 633 l 669 613 q 694 580 682 599 q 716 531 707 561 q 725 457 725 501 q 698 342 725 393 q 612 260 671 290 q 456 229 553 229 l 324 229 q 263 218 286 229 q 239 178 239 207 q 259 145 239 154 q 304 136 279 136 l 510 136 q 656 114 596 136 q 747 42 715 92 q 779 -87 779 -7 l 779 -108 q 710 -281 779 -218 q 496 -344 640 -344 l 272 -344 m 353 383 l 432 383 q 498 397 475 383 q 530 433 521 410 q 539 486 539 456 q 527 549 539 525 q 493 582 515 572 q 438 592 471 592 l 360 592 q 281 569 307 592 q 254 489 254 546 q 279 409 254 435 q 353 383 304 383 z "},"ğ":{"ha":808,"x_min":28,"x_max":783,"o":"m 272 -344 q 147 -324 201 -344 q 60 -263 92 -303 q 28 -165 28 -224 l 28 -143 q 62 -41 28 -83 q 150 24 96 1 q 265 46 204 46 l 326 -18 q 272 -28 296 -18 q 235 -56 249 -37 q 222 -103 222 -75 l 222 -118 q 250 -179 222 -158 q 329 -200 278 -200 l 471 -200 q 553 -180 522 -200 q 585 -119 585 -160 l 585 -97 q 573 -55 585 -72 q 538 -28 561 -37 q 476 -18 515 -18 l 311 -18 q 126 28 186 -18 q 65 143 65 75 q 98 238 65 200 q 189 289 131 276 q 118 347 144 313 q 81 420 92 381 q 69 503 69 460 q 103 639 69 585 q 206 719 138 693 q 379 746 275 746 l 783 746 l 783 633 l 669 613 q 694 580 682 599 q 716 531 707 561 q 725 457 725 501 q 698 342 725 393 q 612 260 671 290 q 456 229 553 229 l 324 229 q 263 218 286 229 q 239 178 239 207 q 259 145 239 154 q 304 136 279 136 l 510 136 q 656 114 596 136 q 747 42 715 92 q 779 -87 779 -7 l 779 -108 q 710 -281 779 -218 q 496 -344 640 -344 l 272 -344 m 353 383 l 432 383 q 498 397 475 383 q 530 433 521 410 q 539 486 539 456 q 527 549 539 525 q 493 582 515 572 q 438 592 471 592 l 360 592 q 281 569 307 592 q 254 489 254 546 q 279 409 254 435 q 353 383 304 383 z "},"ǧ":{"ha":808,"x_min":28,"x_max":783,"o":"m 272 -344 q 147 -324 201 -344 q 60 -263 92 -303 q 28 -165 28 -224 l 28 -143 q 62 -41 28 -83 q 150 24 96 1 q 265 46 204 46 l 326 -18 q 272 -28 296 -18 q 235 -56 249 -37 q 222 -103 222 -75 l 222 -118 q 250 -179 222 -158 q 329 -200 278 -200 l 471 -200 q 553 -180 522 -200 q 585 -119 585 -160 l 585 -97 q 573 -55 585 -72 q 538 -28 561 -37 q 476 -18 515 -18 l 311 -18 q 126 28 186 -18 q 65 143 65 75 q 98 238 65 200 q 189 289 131 276 q 118 347 144 313 q 81 420 92 381 q 69 503 69 460 q 103 639 69 585 q 206 719 138 693 q 379 746 275 746 l 783 746 l 783 633 l 669 613 q 694 580 682 599 q 716 531 707 561 q 725 457 725 501 q 698 342 725 393 q 612 260 671 290 q 456 229 553 229 l 324 229 q 263 218 286 229 q 239 178 239 207 q 259 145 239 154 q 304 136 279 136 l 510 136 q 656 114 596 136 q 747 42 715 92 q 779 -87 779 -7 l 779 -108 q 710 -281 779 -218 q 496 -344 640 -344 l 272 -344 m 353 383 l 432 383 q 498 397 475 383 q 530 433 521 410 q 539 486 539 456 q 527 549 539 525 q 493 582 515 572 q 438 592 471 592 l 360 592 q 281 569 307 592 q 254 489 254 546 q 279 409 254 435 q 353 383 304 383 z "},"ĝ":{"ha":808,"x_min":28,"x_max":783,"o":"m 272 -344 q 147 -324 201 -344 q 60 -263 92 -303 q 28 -165 28 -224 l 28 -143 q 62 -41 28 -83 q 150 24 96 1 q 265 46 204 46 l 326 -18 q 272 -28 296 -18 q 235 -56 249 -37 q 222 -103 222 -75 l 222 -118 q 250 -179 222 -158 q 329 -200 278 -200 l 471 -200 q 553 -180 522 -200 q 585 -119 585 -160 l 585 -97 q 573 -55 585 -72 q 538 -28 561 -37 q 476 -18 515 -18 l 311 -18 q 126 28 186 -18 q 65 143 65 75 q 98 238 65 200 q 189 289 131 276 q 118 347 144 313 q 81 420 92 381 q 69 503 69 460 q 103 639 69 585 q 206 719 138 693 q 379 746 275 746 l 783 746 l 783 633 l 669 613 q 694 580 682 599 q 716 531 707 561 q 725 457 725 501 q 698 342 725 393 q 612 260 671 290 q 456 229 553 229 l 324 229 q 263 218 286 229 q 239 178 239 207 q 259 145 239 154 q 304 136 279 136 l 510 136 q 656 114 596 136 q 747 42 715 92 q 779 -87 779 -7 l 779 -108 q 710 -281 779 -218 q 496 -344 640 -344 l 272 -344 m 353 383 l 432 383 q 498 397 475 383 q 530 433 521 410 q 539 486 539 456 q 527 549 539 525 q 493 582 515 572 q 438 592 471 592 l 360 592 q 281 569 307 592 q 254 489 254 546 q 279 409 254 435 q 353 383 304 383 z "},"ģ":{"ha":808,"x_min":28,"x_max":783,"o":"m 272 -344 q 147 -324 201 -344 q 60 -263 92 -303 q 28 -165 28 -224 l 28 -143 q 62 -41 28 -83 q 150 24 96 1 q 265 46 204 46 l 326 -18 q 272 -28 296 -18 q 235 -56 249 -37 q 222 -103 222 -75 l 222 -118 q 250 -179 222 -158 q 329 -200 278 -200 l 471 -200 q 553 -180 522 -200 q 585 -119 585 -160 l 585 -97 q 573 -55 585 -72 q 538 -28 561 -37 q 476 -18 515 -18 l 311 -18 q 126 28 186 -18 q 65 143 65 75 q 98 238 65 200 q 189 289 131 276 q 118 347 144 313 q 81 420 92 381 q 69 503 69 460 q 103 639 69 585 q 206 719 138 693 q 379 746 275 746 l 783 746 l 783 633 l 669 613 q 694 580 682 599 q 716 531 707 561 q 725 457 725 501 q 698 342 725 393 q 612 260 671 290 q 456 229 553 229 l 324 229 q 263 218 286 229 q 239 178 239 207 q 259 145 239 154 q 304 136 279 136 l 510 136 q 656 114 596 136 q 747 42 715 92 q 779 -87 779 -7 l 779 -108 q 710 -281 779 -218 q 496 -344 640 -344 l 272 -344 m 353 383 l 432 383 q 498 397 475 383 q 530 433 521 410 q 539 486 539 456 q 527 549 539 525 q 493 582 515 572 q 438 592 471 592 l 360 592 q 281 569 307 592 q 254 489 254 546 q 279 409 254 435 q 353 383 304 383 m 308 863 q 322 976 308 932 q 372 1041 336 1021 q 469 1061 407 1061 l 542 1061 l 542 978 l 503 967 q 462 951 478 961 q 439 922 446 942 q 433 863 432 901 l 308 863 z "},"ġ":{"ha":808,"x_min":28,"x_max":783,"o":"m 272 -344 q 147 -324 201 -344 q 60 -263 92 -303 q 28 -165 28 -224 l 28 -143 q 62 -41 28 -83 q 150 24 96 1 q 265 46 204 46 l 326 -18 q 272 -28 296 -18 q 235 -56 249 -37 q 222 -103 222 -75 l 222 -118 q 250 -179 222 -158 q 329 -200 278 -200 l 471 -200 q 553 -180 522 -200 q 585 -119 585 -160 l 585 -97 q 573 -55 585 -72 q 538 -28 561 -37 q 476 -18 515 -18 l 311 -18 q 126 28 186 -18 q 65 143 65 75 q 98 238 65 200 q 189 289 131 276 q 118 347 144 313 q 81 420 92 381 q 69 503 69 460 q 103 639 69 585 q 206 719 138 693 q 379 746 275 746 l 783 746 l 783 633 l 669 613 q 694 580 682 599 q 716 531 707 561 q 725 457 725 501 q 698 342 725 393 q 612 260 671 290 q 456 229 553 229 l 324 229 q 263 218 286 229 q 239 178 239 207 q 259 145 239 154 q 304 136 279 136 l 510 136 q 656 114 596 136 q 747 42 715 92 q 779 -87 779 -7 l 779 -108 q 710 -281 779 -218 q 496 -344 640 -344 l 272 -344 m 353 383 l 432 383 q 498 397 475 383 q 530 433 521 410 q 539 486 539 456 q 527 549 539 525 q 493 582 515 572 q 438 592 471 592 l 360 592 q 281 569 307 592 q 254 489 254 546 q 279 409 254 435 q 353 383 304 383 z "},"ḡ":{"ha":808,"x_min":28,"x_max":783,"o":"m 272 -344 q 147 -324 201 -344 q 60 -263 92 -303 q 28 -165 28 -224 l 28 -143 q 62 -41 28 -83 q 150 24 96 1 q 265 46 204 46 l 326 -18 q 272 -28 296 -18 q 235 -56 249 -37 q 222 -103 222 -75 l 222 -118 q 250 -179 222 -158 q 329 -200 278 -200 l 471 -200 q 553 -180 522 -200 q 585 -119 585 -160 l 585 -97 q 573 -55 585 -72 q 538 -28 561 -37 q 476 -18 515 -18 l 311 -18 q 126 28 186 -18 q 65 143 65 75 q 98 238 65 200 q 189 289 131 276 q 118 347 144 313 q 81 420 92 381 q 69 503 69 460 q 103 639 69 585 q 206 719 138 693 q 379 746 275 746 l 783 746 l 783 633 l 669 613 q 694 580 682 599 q 716 531 707 561 q 725 457 725 501 q 698 342 725 393 q 612 260 671 290 q 456 229 553 229 l 324 229 q 263 218 286 229 q 239 178 239 207 q 259 145 239 154 q 304 136 279 136 l 510 136 q 656 114 596 136 q 747 42 715 92 q 779 -87 779 -7 l 779 -108 q 710 -281 779 -218 q 496 -344 640 -344 l 272 -344 m 353 383 l 432 383 q 498 397 475 383 q 530 433 521 410 q 539 486 539 456 q 527 549 539 525 q 493 582 515 572 q 438 592 471 592 l 360 592 q 281 569 307 592 q 254 489 254 546 q 279 409 254 435 q 353 383 304 383 z "},"h":{"ha":826,"x_min":79,"x_max":751,"o":"m 79 0 l 79 1058 l 285 1058 l 285 669 q 390 731 325 703 q 522 758 454 758 q 657 725 607 758 q 729 632 707 692 q 751 493 751 572 l 751 0 l 546 0 l 546 467 q 532 526 546 503 q 494 562 518 550 q 439 574 471 574 q 383 566 410 574 q 331 546 356 558 q 285 518 307 533 l 285 0 l 79 0 z "},"ħ":{"ha":826,"x_min":-7,"x_max":751,"o":"m -7 854 l -7 936 l 443 936 l 443 854 l -7 854 m 79 0 l 79 1058 l 285 1058 l 285 669 q 390 731 325 703 q 522 758 454 758 q 657 725 607 758 q 729 632 707 692 q 751 493 751 572 l 751 0 l 546 0 l 546 467 q 532 526 546 503 q 494 562 518 550 q 439 574 471 574 q 383 566 410 574 q 331 546 356 558 q 285 518 307 533 l 285 0 l 79 0 z "},"ḫ":{"ha":826,"x_min":79,"x_max":751,"o":"m 79 0 l 79 1058 l 285 1058 l 285 669 q 390 731 325 703 q 522 758 454 758 q 657 725 607 758 q 729 632 707 692 q 751 493 751 572 l 751 0 l 546 0 l 546 467 q 532 526 546 503 q 494 562 518 550 q 439 574 471 574 q 383 566 410 574 q 331 546 356 558 q 285 518 307 533 l 285 0 l 79 0 z "},"ĥ":{"ha":826,"x_min":-8,"x_max":751,"o":"m 79 0 l 79 1058 l 285 1058 l 285 669 q 390 731 325 703 q 522 758 454 758 q 657 725 607 758 q 729 632 707 692 q 751 493 751 572 l 751 0 l 546 0 l 546 467 q 532 526 546 503 q 494 562 518 550 q 439 574 471 574 q 383 566 410 574 q 331 546 356 558 q 285 518 307 533 l 285 0 l 79 0 z "},"ḥ":{"ha":826,"x_min":79,"x_max":751,"o":"m 79 0 l 79 1058 l 285 1058 l 285 669 q 390 731 325 703 q 522 758 454 758 q 657 725 607 758 q 729 632 707 692 q 751 493 751 572 l 751 0 l 546 0 l 546 467 q 532 526 546 503 q 494 562 518 550 q 439 574 471 574 q 383 566 410 574 q 331 546 356 558 q 285 518 307 533 l 285 0 l 79 0 m 358 -314 q 331 -285 331 -314 l 331 -150 q 358 -119 331 -119 l 454 -119 q 475 -128 468 -119 q 482 -150 482 -136 l 482 -285 q 454 -314 482 -314 l 358 -314 z "},"i":{"ha":364,"x_min":75,"x_max":289,"o":"m 104 856 q 75 883 75 856 l 75 1019 q 104 1049 75 1049 l 263 1049 q 282 1040 275 1049 q 289 1019 289 1032 l 289 883 q 263 856 289 856 l 104 856 m 79 0 l 79 746 l 285 746 l 285 0 l 79 0 z "},"ı":{"ha":363,"x_min":79,"x_max":285,"o":"m 79 0 l 79 746 l 285 746 l 285 0 l 79 0 z "},"í":{"ha":363,"x_min":79,"x_max":403,"o":"m 79 0 l 79 746 l 285 746 l 285 0 l 79 0 z "},"ĭ":{"ha":363,"x_min":-21,"x_max":367,"o":"m 79 0 l 79 746 l 285 746 l 285 0 l 79 0 z "},"î":{"ha":363,"x_min":-35,"x_max":393,"o":"m 79 0 l 79 746 l 285 746 l 285 0 l 79 0 z "},"ȉ":{"ha":363,"x_min":-137,"x_max":390,"o":"m 79 0 l 79 746 l 285 746 l 285 0 l 79 0 m 269 876 l 110 1071 l 276 1071 l 390 876 l 269 876 m 22 876 l -137 1071 l 28 1071 l 143 876 l 22 876 z "},"ï":{"ha":363,"x_min":-36,"x_max":388,"o":"m 79 0 l 79 746 l 285 746 l 285 0 l 79 0 m 265 885 q 236 914 236 885 l 236 1049 q 265 1079 236 1079 l 361 1079 q 381 1071 374 1079 q 389 1049 389 1063 l 389 914 q 361 885 389 885 l 265 885 m -7 885 q -36 914 -36 885 l -36 1049 q -7 1079 -36 1079 l 88 1079 q 108 1071 101 1079 q 115 1049 115 1063 l 115 914 q 88 885 115 885 l -7 885 z "},"ḯ":{"ha":363,"x_min":-36,"x_max":392,"o":"m 79 0 l 79 746 l 285 746 l 285 0 l 79 0 m 265 885 q 236 914 236 885 l 236 1049 q 265 1079 236 1079 l 361 1079 q 381 1071 374 1079 q 389 1049 389 1063 l 389 914 q 361 885 389 885 l 265 885 m -7 885 q -36 914 -36 885 l -36 1049 q -7 1079 -36 1079 l 88 1079 q 108 1071 101 1079 q 115 1049 115 1063 l 115 914 q 88 885 115 885 l -7 885 z "},"ị":{"ha":364,"x_min":75,"x_max":289,"o":"m 104 856 q 75 883 75 856 l 75 1019 q 104 1049 75 1049 l 263 1049 q 282 1040 275 1049 q 289 1019 289 1032 l 289 883 q 263 856 289 856 l 104 856 m 79 0 l 79 746 l 285 746 l 285 0 l 79 0 m 128 -314 q 100 -285 100 -314 l 100 -150 q 128 -119 100 -119 l 224 -119 q 244 -128 238 -119 q 251 -150 251 -136 l 251 -285 q 224 -314 251 -314 l 128 -314 z "},"ì":{"ha":363,"x_min":-7,"x_max":285,"o":"m 79 0 l 79 746 l 285 746 l 285 0 l 79 0 z "},"ỉ":{"ha":363,"x_min":79,"x_max":306,"o":"m 79 0 l 79 746 l 285 746 l 285 0 l 79 0 m 143 825 l 143 915 q 188 940 176 925 q 199 971 199 956 q 189 999 199 989 q 153 1010 179 1010 q 131 1007 142 1010 q 107 1001 119 1004 l 107 1082 q 141 1090 122 1088 q 179 1093 160 1093 q 276 1063 244 1093 q 307 978 307 1032 q 268 885 307 922 q 143 825 229 849 z "},"ȋ":{"ha":363,"x_min":-11,"x_max":378,"o":"m 79 0 l 79 746 l 285 746 l 285 0 l 79 0 z "},"ī":{"ha":363,"x_min":-19,"x_max":371,"o":"m 79 0 l 79 746 l 285 746 l 285 0 l 79 0 z "},"į":{"ha":364,"x_min":75,"x_max":310,"o":"m 104 856 q 75 883 75 856 l 75 1019 q 104 1049 75 1049 l 263 1049 q 282 1040 275 1049 q 289 1019 289 1032 l 289 883 q 263 856 289 856 l 104 856 m 79 0 l 79 746 l 285 746 l 285 0 l 79 0 z "},"ĩ":{"ha":363,"x_min":-67,"x_max":444,"o":"m 79 0 l 79 746 l 285 746 l 285 0 l 79 0 z "},"j":{"ha":364,"x_min":74,"x_max":288,"o":"m 103 856 q 74 883 74 856 l 74 1019 q 103 1049 74 1049 l 261 1049 q 281 1040 275 1049 q 288 1019 288 1032 l 288 883 q 261 856 288 856 l 103 856 m 79 -329 l 79 746 l 285 746 l 285 6 q 272 -173 285 -82 q 235 -329 258 -264 l 79 -329 z "},"ȷ":{"ha":364,"x_min":79,"x_max":285,"o":"m 79 -329 l 79 746 l 285 746 l 285 6 q 272 -173 285 -82 q 235 -329 258 -264 l 79 -329 z "},"ĵ":{"ha":364,"x_min":-35,"x_max":393,"o":"m 79 -329 l 79 746 l 285 746 l 285 6 q 272 -173 285 -82 q 235 -329 258 -264 l 79 -329 z "},"k":{"ha":769,"x_min":79,"x_max":767,"o":"m 79 0 l 79 1060 l 285 1060 l 285 488 l 372 488 l 536 746 l 744 746 l 525 394 l 767 0 l 558 0 l 369 301 l 285 301 l 285 0 l 79 0 z "},"ķ":{"ha":769,"x_min":79,"x_max":767,"o":"m 79 0 l 79 1060 l 285 1060 l 285 488 l 372 488 l 536 746 l 744 746 l 525 394 l 767 0 l 558 0 l 369 301 l 285 301 l 285 0 l 79 0 m 264 -300 l 264 -215 l 301 -206 q 344 -190 328 -199 q 366 -160 360 -181 q 372 -101 372 -140 l 497 -101 q 483 -215 497 -171 q 434 -279 469 -258 q 336 -300 399 -300 l 264 -300 z "},"ĸ":{"ha":769,"x_min":79,"x_max":767,"o":"m 79 0 l 79 750 l 285 750 l 285 472 l 365 472 l 529 746 l 744 746 l 525 381 l 767 0 l 557 0 l 371 288 l 285 288 l 285 0 l 79 0 z "},"l":{"ha":435,"x_min":79,"x_max":419,"o":"m 313 -3 q 181 23 233 -3 q 104 102 129 49 q 79 240 79 156 l 79 1060 l 285 1060 l 285 271 q 293 205 285 229 q 319 169 301 181 q 363 154 336 158 l 419 146 l 419 -3 l 313 -3 z "},"ĺ":{"ha":435,"x_min":79,"x_max":419,"o":"m 313 -3 q 181 23 233 -3 q 104 102 129 49 q 79 240 79 156 l 79 1060 l 285 1060 l 285 271 q 293 205 285 229 q 319 169 301 181 q 363 154 336 158 l 419 146 l 419 -3 l 313 -3 z "},"ľ":{"ha":435,"x_min":79,"x_max":542,"o":"m 313 -3 q 181 23 233 -3 q 104 102 129 49 q 79 240 79 156 l 79 1060 l 285 1060 l 285 271 q 293 205 285 229 q 319 169 301 181 q 363 154 336 158 l 419 146 l 419 -3 l 313 -3 m 368 808 l 356 999 l 356 1088 l 542 1088 l 542 999 l 531 808 l 368 808 z "},"ļ":{"ha":435,"x_min":79,"x_max":419,"o":"m 313 -3 q 181 23 233 -3 q 104 102 129 49 q 79 240 79 156 l 79 1060 l 285 1060 l 285 271 q 293 205 285 229 q 319 169 301 181 q 363 154 336 158 l 419 146 l 419 -3 l 313 -3 m 138 -300 l 138 -215 l 175 -206 q 217 -190 201 -199 q 240 -160 233 -181 q 246 -101 246 -140 l 371 -101 q 357 -215 371 -171 q 308 -279 343 -258 q 210 -300 272 -300 l 138 -300 z "},"ŀ":{"ha":522,"x_min":79,"x_max":536,"o":"m 313 -3 q 181 23 233 -3 q 104 102 129 49 q 79 240 79 156 l 79 1060 l 285 1060 l 285 271 q 293 205 285 229 q 319 169 301 181 q 363 154 336 158 l 419 146 l 419 -3 l 313 -3 z "},"ḷ":{"ha":435,"x_min":79,"x_max":419,"o":"m 313 -3 q 181 23 233 -3 q 104 102 129 49 q 79 240 79 156 l 79 1060 l 285 1060 l 285 271 q 293 205 285 229 q 319 169 301 181 q 363 154 336 158 l 419 146 l 419 -3 l 313 -3 m 203 -314 q 175 -285 175 -314 l 175 -150 q 203 -119 175 -119 l 299 -119 q 319 -128 313 -119 q 326 -150 326 -136 l 326 -285 q 299 -314 326 -314 l 203 -314 z "},"ḻ":{"ha":435,"x_min":64,"x_max":456,"o":"m 313 -3 q 181 23 233 -3 q 104 102 129 49 q 79 240 79 156 l 79 1060 l 285 1060 l 285 271 q 293 205 285 229 q 319 169 301 181 q 363 154 336 158 l 419 146 l 419 -3 l 313 -3 z "},"ł":{"ha":435,"x_min":-4,"x_max":419,"o":"m -4 469 l -4 581 l 79 614 l 285 681 l 407 729 l 407 618 l 285 571 l 79 503 l -4 469 m 313 -3 q 181 23 233 -3 q 104 102 129 49 q 79 240 79 156 l 79 1060 l 285 1060 l 285 271 q 293 205 285 229 q 319 169 301 181 q 363 154 336 158 l 419 146 l 419 -3 l 313 -3 z "},"m":{"ha":1293,"x_min":79,"x_max":1218,"o":"m 79 0 l 79 746 l 249 746 l 285 669 q 391 732 333 706 q 533 758 449 758 q 651 729 604 758 q 721 653 697 700 q 795 701 753 678 q 886 742 838 725 q 982 758 935 758 q 1124 724 1072 758 q 1197 628 1176 690 q 1218 483 1218 567 l 1218 0 l 1013 0 l 1013 465 q 999 525 1013 501 q 963 561 986 549 q 906 574 939 574 q 822 556 864 574 q 746 515 779 539 q 750 488 749 501 q 751 461 751 475 l 751 0 l 546 0 l 546 465 q 533 525 546 501 q 496 561 519 549 q 439 574 472 574 q 383 567 410 574 q 331 547 356 560 q 285 518 307 535 l 285 0 l 79 0 z "},"ṁ":{"ha":1293,"x_min":79,"x_max":1218,"o":"m 79 0 l 79 746 l 249 746 l 285 669 q 391 732 333 706 q 533 758 449 758 q 651 729 604 758 q 721 653 697 700 q 795 701 753 678 q 886 742 838 725 q 982 758 935 758 q 1124 724 1072 758 q 1197 628 1176 690 q 1218 483 1218 567 l 1218 0 l 1013 0 l 1013 465 q 999 525 1013 501 q 963 561 986 549 q 906 574 939 574 q 822 556 864 574 q 746 515 779 539 q 750 488 749 501 q 751 461 751 475 l 751 0 l 546 0 l 546 465 q 533 525 546 501 q 496 561 519 549 q 439 574 472 574 q 383 567 410 574 q 331 547 356 560 q 285 518 307 535 l 285 0 l 79 0 z "},"ṃ":{"ha":1293,"x_min":79,"x_max":1218,"o":"m 79 0 l 79 746 l 249 746 l 285 669 q 391 732 333 706 q 533 758 449 758 q 651 729 604 758 q 721 653 697 700 q 795 701 753 678 q 886 742 838 725 q 982 758 935 758 q 1124 724 1072 758 q 1197 628 1176 690 q 1218 483 1218 567 l 1218 0 l 1013 0 l 1013 465 q 999 525 1013 501 q 963 561 986 549 q 906 574 939 574 q 822 556 864 574 q 746 515 779 539 q 750 488 749 501 q 751 461 751 475 l 751 0 l 546 0 l 546 465 q 533 525 546 501 q 496 561 519 549 q 439 574 472 574 q 383 567 410 574 q 331 547 356 560 q 285 518 307 535 l 285 0 l 79 0 m 593 -314 q 565 -285 565 -314 l 565 -150 q 593 -119 565 -119 l 689 -119 q 710 -128 703 -119 q 717 -150 717 -136 l 717 -285 q 689 -314 717 -314 l 593 -314 z "},"n":{"ha":826,"x_min":79,"x_max":751,"o":"m 79 0 l 79 746 l 249 746 l 285 669 q 390 731 326 704 q 519 758 453 758 q 661 722 611 758 q 731 626 711 686 q 751 492 751 565 l 751 0 l 546 0 l 546 465 q 533 525 546 501 q 496 561 519 549 q 439 574 472 574 q 383 567 410 574 q 331 547 356 560 q 285 518 307 535 l 285 0 l 79 0 z "},"ń":{"ha":826,"x_min":79,"x_max":751,"o":"m 79 0 l 79 746 l 249 746 l 285 669 q 390 731 326 704 q 519 758 453 758 q 661 722 611 758 q 731 626 711 686 q 751 492 751 565 l 751 0 l 546 0 l 546 465 q 533 525 546 501 q 496 561 519 549 q 439 574 472 574 q 383 567 410 574 q 331 547 356 560 q 285 518 307 535 l 285 0 l 79 0 z "},"ň":{"ha":826,"x_min":79,"x_max":751,"o":"m 79 0 l 79 746 l 249 746 l 285 669 q 390 731 326 704 q 519 758 453 758 q 661 722 611 758 q 731 626 711 686 q 751 492 751 565 l 751 0 l 546 0 l 546 465 q 533 525 546 501 q 496 561 519 549 q 439 574 472 574 q 383 567 410 574 q 331 547 356 560 q 285 518 307 535 l 285 0 l 79 0 z "},"ņ":{"ha":826,"x_min":79,"x_max":751,"o":"m 79 0 l 79 746 l 249 746 l 285 669 q 390 731 326 704 q 519 758 453 758 q 661 722 611 758 q 731 626 711 686 q 751 492 751 565 l 751 0 l 546 0 l 546 465 q 533 525 546 501 q 496 561 519 549 q 439 574 472 574 q 383 567 410 574 q 331 547 356 560 q 285 518 307 535 l 285 0 l 79 0 m 293 -300 l 293 -215 l 331 -206 q 373 -190 357 -199 q 395 -160 389 -181 q 401 -101 401 -140 l 526 -101 q 513 -215 526 -171 q 463 -279 499 -258 q 365 -300 428 -300 l 293 -300 z "},"ṅ":{"ha":826,"x_min":79,"x_max":751,"o":"m 79 0 l 79 746 l 249 746 l 285 669 q 390 731 326 704 q 519 758 453 758 q 661 722 611 758 q 731 626 711 686 q 751 492 751 565 l 751 0 l 546 0 l 546 465 q 533 525 546 501 q 496 561 519 549 q 439 574 472 574 q 383 567 410 574 q 331 547 356 560 q 285 518 307 535 l 285 0 l 79 0 m 358 -314 q 331 -285 331 -314 l 331 -150 q 358 -119 331 -119 l 454 -119 q 475 -128 468 -119 q 482 -150 482 -136 l 482 -285 q 454 -314 482 -314 l 358 -314 z "},"ṇ":{"ha":826,"x_min":79,"x_max":751,"o":"m 79 0 l 79 746 l 249 746 l 285 669 q 390 731 326 704 q 519 758 453 758 q 661 722 611 758 q 731 626 711 686 q 751 492 751 565 l 751 0 l 546 0 l 546 465 q 533 525 546 501 q 496 561 519 549 q 439 574 472 574 q 383 567 410 574 q 331 547 356 560 q 285 518 307 535 l 285 0 l 79 0 m 358 -314 q 331 -285 331 -314 l 331 -150 q 358 -119 331 -119 l 454 -119 q 475 -128 468 -119 q 482 -150 482 -136 l 482 -285 q 454 -314 482 -314 l 358 -314 z "},"ŋ":{"ha":826,"x_min":79,"x_max":751,"o":"m 431 -329 q 485 -267 458 -304 q 528 -176 511 -231 q 546 -43 546 -121 l 546 219 l 751 219 l 751 -39 q 730 -172 751 -115 q 673 -267 708 -229 q 594 -329 638 -306 l 431 -329 m 79 0 l 79 746 l 249 746 l 285 669 q 390 731 326 704 q 519 758 453 758 q 661 722 611 758 q 731 626 711 686 q 751 492 751 565 l 751 0 l 546 0 l 546 465 q 533 525 546 501 q 496 561 519 549 q 439 574 472 574 q 383 567 410 574 q 331 547 356 560 q 285 518 307 535 l 285 0 l 79 0 z "},"ṉ":{"ha":826,"x_min":79,"x_max":751,"o":"m 79 0 l 79 746 l 249 746 l 285 669 q 390 731 326 704 q 519 758 453 758 q 661 722 611 758 q 731 626 711 686 q 751 492 751 565 l 751 0 l 546 0 l 546 465 q 533 525 546 501 q 496 561 519 549 q 439 574 472 574 q 383 567 410 574 q 331 547 356 560 q 285 518 307 535 l 285 0 l 79 0 z "},"ñ":{"ha":826,"x_min":79,"x_max":751,"o":"m 79 0 l 79 746 l 249 746 l 285 669 q 390 731 326 704 q 519 758 453 758 q 661 722 611 758 q 731 626 711 686 q 751 492 751 565 l 751 0 l 546 0 l 546 465 q 533 525 546 501 q 496 561 519 549 q 439 574 472 574 q 383 567 410 574 q 331 547 356 560 q 285 518 307 535 l 285 0 l 79 0 z "},"o":{"ha":799,"x_min":57,"x_max":742,"o":"m 399 -7 q 242 12 307 -7 q 135 75 176 31 q 76 193 94 119 q 57 375 57 267 q 76 563 57 489 q 135 680 94 638 q 242 740 176 722 q 399 757 308 757 q 557 739 492 757 q 663 678 622 721 q 723 562 704 636 q 742 375 742 488 q 724 190 742 264 q 665 72 706 115 q 559 11 625 29 q 399 -7 493 -7 m 399 157 q 462 164 436 157 q 503 192 488 171 q 528 258 519 214 q 536 375 536 303 q 528 492 536 449 q 503 558 519 536 q 462 586 488 579 q 399 593 436 593 q 337 586 363 593 q 294 558 311 579 q 270 492 278 536 q 263 375 263 449 q 270 258 263 303 q 294 192 278 214 q 337 164 311 171 q 399 157 363 157 z "},"ó":{"ha":799,"x_min":57,"x_max":742,"o":"m 399 -7 q 242 12 307 -7 q 135 75 176 31 q 76 193 94 119 q 57 375 57 267 q 76 563 57 489 q 135 680 94 638 q 242 740 176 722 q 399 757 308 757 q 557 739 492 757 q 663 678 622 721 q 723 562 704 636 q 742 375 742 488 q 724 190 742 264 q 665 72 706 115 q 559 11 625 29 q 399 -7 493 -7 m 399 157 q 462 164 436 157 q 503 192 488 171 q 528 258 519 214 q 536 375 536 303 q 528 492 536 449 q 503 558 519 536 q 462 586 488 579 q 399 593 436 593 q 337 586 363 593 q 294 558 311 579 q 270 492 278 536 q 263 375 263 449 q 270 258 263 303 q 294 192 278 214 q 337 164 311 171 q 399 157 363 157 z "},"ŏ":{"ha":799,"x_min":57,"x_max":742,"o":"m 399 -7 q 242 12 307 -7 q 135 75 176 31 q 76 193 94 119 q 57 375 57 267 q 76 563 57 489 q 135 680 94 638 q 242 740 176 722 q 399 757 308 757 q 557 739 492 757 q 663 678 622 721 q 723 562 704 636 q 742 375 742 488 q 724 190 742 264 q 665 72 706 115 q 559 11 625 29 q 399 -7 493 -7 m 399 157 q 462 164 436 157 q 503 192 488 171 q 528 258 519 214 q 536 375 536 303 q 528 492 536 449 q 503 558 519 536 q 462 586 488 579 q 399 593 436 593 q 337 586 363 593 q 294 558 311 579 q 270 492 278 536 q 263 375 263 449 q 270 258 263 303 q 294 192 278 214 q 337 164 311 171 q 399 157 363 157 z "},"ô":{"ha":799,"x_min":57,"x_max":742,"o":"m 399 -7 q 242 12 307 -7 q 135 75 176 31 q 76 193 94 119 q 57 375 57 267 q 76 563 57 489 q 135 680 94 638 q 242 740 176 722 q 399 757 308 757 q 557 739 492 757 q 663 678 622 721 q 723 562 704 636 q 742 375 742 488 q 724 190 742 264 q 665 72 706 115 q 559 11 625 29 q 399 -7 493 -7 m 399 157 q 462 164 436 157 q 503 192 488 171 q 528 258 519 214 q 536 375 536 303 q 528 492 536 449 q 503 558 519 536 q 462 586 488 579 q 399 593 436 593 q 337 586 363 593 q 294 558 311 579 q 270 492 278 536 q 263 375 263 449 q 270 258 263 303 q 294 192 278 214 q 337 164 311 171 q 399 157 363 157 z "},"ố":{"ha":799,"x_min":57,"x_max":758,"o":"m 399 -7 q 242 12 307 -7 q 135 75 176 31 q 76 193 94 119 q 57 375 57 267 q 76 563 57 489 q 135 680 94 638 q 242 740 176 722 q 399 757 308 757 q 557 739 492 757 q 663 678 622 721 q 723 562 704 636 q 742 375 742 488 q 724 190 742 264 q 665 72 706 115 q 559 11 625 29 q 399 -7 493 -7 m 399 157 q 462 164 436 157 q 503 192 488 171 q 528 258 519 214 q 536 375 536 303 q 528 492 536 449 q 503 558 519 536 q 462 586 488 579 q 399 593 436 593 q 337 586 363 593 q 294 558 311 579 q 270 492 278 536 q 263 375 263 449 q 270 258 263 303 q 294 192 278 214 q 337 164 311 171 q 399 157 363 157 m 333 1028 l 474 1028 l 610 876 l 490 876 l 400 936 l 303 876 l 182 876 l 333 1028 m 592 1168 l 758 1168 l 650 994 l 529 994 l 592 1168 z "},"ộ":{"ha":799,"x_min":57,"x_max":742,"o":"m 399 -7 q 242 12 307 -7 q 135 75 176 31 q 76 193 94 119 q 57 375 57 267 q 76 563 57 489 q 135 680 94 638 q 242 740 176 722 q 399 757 308 757 q 557 739 492 757 q 663 678 622 721 q 723 562 704 636 q 742 375 742 488 q 724 190 742 264 q 665 72 706 115 q 559 11 625 29 q 399 -7 493 -7 m 399 157 q 462 164 436 157 q 503 192 488 171 q 528 258 519 214 q 536 375 536 303 q 528 492 536 449 q 503 558 519 536 q 462 586 488 579 q 399 593 436 593 q 337 586 363 593 q 294 558 311 579 q 270 492 278 536 q 263 375 263 449 q 270 258 263 303 q 294 192 278 214 q 337 164 311 171 q 399 157 363 157 m 344 -314 q 317 -285 317 -314 l 317 -150 q 344 -119 317 -119 l 440 -119 q 461 -128 454 -119 q 468 -150 468 -136 l 468 -285 q 440 -314 468 -314 l 344 -314 z "},"ồ":{"ha":799,"x_min":42,"x_max":742,"o":"m 399 -7 q 242 12 307 -7 q 135 75 176 31 q 76 193 94 119 q 57 375 57 267 q 76 563 57 489 q 135 680 94 638 q 242 740 176 722 q 399 757 308 757 q 557 739 492 757 q 663 678 622 721 q 723 562 704 636 q 742 375 742 488 q 724 190 742 264 q 665 72 706 115 q 559 11 625 29 q 399 -7 493 -7 m 399 157 q 462 164 436 157 q 503 192 488 171 q 528 258 519 214 q 536 375 536 303 q 528 492 536 449 q 503 558 519 536 q 462 586 488 579 q 399 593 436 593 q 337 586 363 593 q 294 558 311 579 q 270 492 278 536 q 263 375 263 449 q 270 258 263 303 q 294 192 278 214 q 337 164 311 171 q 399 157 363 157 m 333 1028 l 474 1028 l 610 876 l 490 876 l 400 936 l 303 876 l 182 876 l 333 1028 m 40 1168 l 207 1168 l 271 994 l 150 994 l 40 1168 z "},"ổ":{"ha":799,"x_min":57,"x_max":742,"o":"m 399 -7 q 242 12 307 -7 q 135 75 176 31 q 76 193 94 119 q 57 375 57 267 q 76 563 57 489 q 135 680 94 638 q 242 740 176 722 q 399 757 308 757 q 557 739 492 757 q 663 678 622 721 q 723 562 704 636 q 742 375 742 488 q 724 190 742 264 q 665 72 706 115 q 559 11 625 29 q 399 -7 493 -7 m 399 157 q 462 164 436 157 q 503 192 488 171 q 528 258 519 214 q 536 375 536 303 q 528 492 536 449 q 503 558 519 536 q 462 586 488 579 q 399 593 436 593 q 337 586 363 593 q 294 558 311 579 q 270 492 278 536 q 263 375 263 449 q 270 258 263 303 q 294 192 278 214 q 337 164 311 171 q 399 157 363 157 m 182 876 l 333 1028 l 474 1028 l 610 876 l 490 876 l 400 936 l 303 876 l 182 876 m 563 953 l 563 1043 q 597 1063 588 1050 q 606 1089 606 1076 q 598 1113 606 1106 q 571 1121 590 1121 q 549 1119 561 1121 q 526 1113 538 1117 l 526 1183 q 560 1192 542 1189 q 599 1194 578 1194 q 678 1170 653 1194 q 703 1103 703 1146 q 669 1011 703 1047 q 563 953 636 975 z "},"ỗ":{"ha":799,"x_min":57,"x_max":742,"o":"m 399 -7 q 242 12 307 -7 q 135 75 176 31 q 76 193 94 119 q 57 375 57 267 q 76 563 57 489 q 135 680 94 638 q 242 740 176 722 q 399 757 308 757 q 557 739 492 757 q 663 678 622 721 q 723 562 704 636 q 742 375 742 488 q 724 190 742 264 q 665 72 706 115 q 559 11 625 29 q 399 -7 493 -7 m 399 157 q 462 164 436 157 q 503 192 488 171 q 528 258 519 214 q 536 375 536 303 q 528 492 536 449 q 503 558 519 536 q 462 586 488 579 q 399 593 436 593 q 337 586 363 593 q 294 558 311 579 q 270 492 278 536 q 263 375 263 449 q 270 258 263 303 q 294 192 278 214 q 337 164 311 171 q 399 157 363 157 m 168 1085 q 190 1173 172 1143 q 233 1214 207 1203 q 290 1225 260 1225 q 352 1215 324 1225 q 406 1196 381 1206 q 454 1186 431 1186 q 494 1198 481 1186 q 508 1232 508 1210 l 611 1232 q 592 1144 607 1175 q 553 1100 578 1113 q 492 1088 528 1088 q 426 1097 458 1088 q 365 1117 393 1107 q 315 1126 338 1126 q 284 1115 296 1126 q 271 1085 272 1103 l 168 1085 m 474 1028 l 610 876 l 490 876 l 400 936 l 303 876 l 182 876 l 333 1028 l 474 1028 z "},"ȍ":{"ha":799,"x_min":57,"x_max":742,"o":"m 399 -7 q 242 12 307 -7 q 135 75 176 31 q 76 193 94 119 q 57 375 57 267 q 76 563 57 489 q 135 680 94 638 q 242 740 176 722 q 399 757 308 757 q 557 739 492 757 q 663 678 622 721 q 723 562 704 636 q 742 375 742 488 q 724 190 742 264 q 665 72 706 115 q 559 11 625 29 q 399 -7 493 -7 m 399 157 q 462 164 436 157 q 503 192 488 171 q 528 258 519 214 q 536 375 536 303 q 528 492 536 449 q 503 558 519 536 q 462 586 488 579 q 399 593 436 593 q 337 586 363 593 q 294 558 311 579 q 270 492 278 536 q 263 375 263 449 q 270 258 263 303 q 294 192 278 214 q 337 164 311 171 q 399 157 363 157 m 488 876 l 328 1071 l 494 1071 l 608 876 l 488 876 m 240 876 l 81 1071 l 246 1071 l 361 876 l 240 876 z "},"ö":{"ha":799,"x_min":57,"x_max":742,"o":"m 399 -7 q 242 12 307 -7 q 135 75 176 31 q 76 193 94 119 q 57 375 57 267 q 76 563 57 489 q 135 680 94 638 q 242 740 176 722 q 399 757 308 757 q 557 739 492 757 q 663 678 622 721 q 723 562 704 636 q 742 375 742 488 q 724 190 742 264 q 665 72 706 115 q 559 11 625 29 q 399 -7 493 -7 m 399 157 q 462 164 436 157 q 503 192 488 171 q 528 258 519 214 q 536 375 536 303 q 528 492 536 449 q 503 558 519 536 q 462 586 488 579 q 399 593 436 593 q 337 586 363 593 q 294 558 311 579 q 270 492 278 536 q 263 375 263 449 q 270 258 263 303 q 294 192 278 214 q 337 164 311 171 q 399 157 363 157 m 482 885 q 453 914 453 885 l 453 1049 q 482 1079 453 1079 l 578 1079 q 598 1071 590 1079 q 606 1049 606 1063 l 606 914 q 578 885 606 885 l 482 885 m 210 885 q 181 914 181 885 l 181 1049 q 210 1079 181 1079 l 304 1079 q 325 1071 318 1079 q 332 1049 332 1063 l 332 914 q 304 885 332 885 l 210 885 z "},"ȫ":{"ha":799,"x_min":57,"x_max":742,"o":"m 399 -7 q 242 12 307 -7 q 135 75 176 31 q 76 193 94 119 q 57 375 57 267 q 76 563 57 489 q 135 680 94 638 q 242 740 176 722 q 399 757 308 757 q 557 739 492 757 q 663 678 622 721 q 723 562 704 636 q 742 375 742 488 q 724 190 742 264 q 665 72 706 115 q 559 11 625 29 q 399 -7 493 -7 m 399 157 q 462 164 436 157 q 503 192 488 171 q 528 258 519 214 q 536 375 536 303 q 528 492 536 449 q 503 558 519 536 q 462 586 488 579 q 399 593 436 593 q 337 586 363 593 q 294 558 311 579 q 270 492 278 536 q 263 375 263 449 q 270 258 263 303 q 294 192 278 214 q 337 164 311 171 q 399 157 363 157 m 482 885 q 453 914 453 885 l 453 1049 q 482 1079 453 1079 l 578 1079 q 598 1071 590 1079 q 606 1049 606 1063 l 606 914 q 578 885 606 885 l 482 885 m 210 885 q 181 914 181 885 l 181 1049 q 210 1079 181 1079 l 304 1079 q 325 1071 318 1079 q 332 1049 332 1063 l 332 914 q 304 885 332 885 l 210 885 z "},"ȱ":{"ha":799,"x_min":57,"x_max":742,"o":"m 399 -7 q 242 12 307 -7 q 135 75 176 31 q 76 193 94 119 q 57 375 57 267 q 76 563 57 489 q 135 680 94 638 q 242 740 176 722 q 399 757 308 757 q 557 739 492 757 q 663 678 622 721 q 723 562 704 636 q 742 375 742 488 q 724 190 742 264 q 665 72 706 115 q 559 11 625 29 q 399 -7 493 -7 m 399 157 q 462 164 436 157 q 503 192 488 171 q 528 258 519 214 q 536 375 536 303 q 528 492 536 449 q 503 558 519 536 q 462 586 488 579 q 399 593 436 593 q 337 586 363 593 q 294 558 311 579 q 270 492 278 536 q 263 375 263 449 q 270 258 263 303 q 294 192 278 214 q 337 164 311 171 q 399 157 363 157 z "},"ọ":{"ha":799,"x_min":57,"x_max":742,"o":"m 399 -7 q 242 12 307 -7 q 135 75 176 31 q 76 193 94 119 q 57 375 57 267 q 76 563 57 489 q 135 680 94 638 q 242 740 176 722 q 399 757 308 757 q 557 739 492 757 q 663 678 622 721 q 723 562 704 636 q 742 375 742 488 q 724 190 742 264 q 665 72 706 115 q 559 11 625 29 q 399 -7 493 -7 m 399 157 q 462 164 436 157 q 503 192 488 171 q 528 258 519 214 q 536 375 536 303 q 528 492 536 449 q 503 558 519 536 q 462 586 488 579 q 399 593 436 593 q 337 586 363 593 q 294 558 311 579 q 270 492 278 536 q 263 375 263 449 q 270 258 263 303 q 294 192 278 214 q 337 164 311 171 q 399 157 363 157 m 344 -314 q 317 -285 317 -314 l 317 -150 q 344 -119 317 -119 l 440 -119 q 461 -128 454 -119 q 468 -150 468 -136 l 468 -285 q 440 -314 468 -314 l 344 -314 z "},"ò":{"ha":799,"x_min":57,"x_max":742,"o":"m 399 -7 q 242 12 307 -7 q 135 75 176 31 q 76 193 94 119 q 57 375 57 267 q 76 563 57 489 q 135 680 94 638 q 242 740 176 722 q 399 757 308 757 q 557 739 492 757 q 663 678 622 721 q 723 562 704 636 q 742 375 742 488 q 724 190 742 264 q 665 72 706 115 q 559 11 625 29 q 399 -7 493 -7 m 399 157 q 462 164 436 157 q 503 192 488 171 q 528 258 519 214 q 536 375 536 303 q 528 492 536 449 q 503 558 519 536 q 462 586 488 579 q 399 593 436 593 q 337 586 363 593 q 294 558 311 579 q 270 492 278 536 q 263 375 263 449 q 270 258 263 303 q 294 192 278 214 q 337 164 311 171 q 399 157 363 157 z "},"ỏ":{"ha":799,"x_min":57,"x_max":742,"o":"m 399 -7 q 242 12 307 -7 q 135 75 176 31 q 76 193 94 119 q 57 375 57 267 q 76 563 57 489 q 135 680 94 638 q 242 740 176 722 q 399 757 308 757 q 557 739 492 757 q 663 678 622 721 q 723 562 704 636 q 742 375 742 488 q 724 190 742 264 q 665 72 706 115 q 559 11 625 29 q 399 -7 493 -7 m 399 157 q 462 164 436 157 q 503 192 488 171 q 528 258 519 214 q 536 375 536 303 q 528 492 536 449 q 503 558 519 536 q 462 586 488 579 q 399 593 436 593 q 337 586 363 593 q 294 558 311 579 q 270 492 278 536 q 263 375 263 449 q 270 258 263 303 q 294 192 278 214 q 337 164 311 171 q 399 157 363 157 m 360 825 l 360 915 q 404 940 393 925 q 415 971 415 956 q 406 999 415 989 q 369 1010 396 1010 q 347 1007 358 1010 q 324 1001 336 1004 l 324 1082 q 358 1090 339 1088 q 396 1093 376 1093 q 492 1063 461 1093 q 524 978 524 1032 q 485 885 524 922 q 360 825 446 849 z "},"ơ":{"ha":799,"x_min":57,"x_max":785,"o":"m 399 -7 q 242 12 307 -7 q 135 75 176 31 q 76 193 94 119 q 57 375 57 267 q 76 563 57 489 q 135 680 94 638 q 242 740 176 722 q 399 757 308 757 q 557 739 492 757 q 663 678 622 721 q 723 562 704 636 q 742 375 742 488 q 724 190 742 264 q 665 72 706 115 q 559 11 625 29 q 399 -7 493 -7 m 399 157 q 462 164 436 157 q 503 192 488 171 q 528 258 519 214 q 536 375 536 303 q 528 492 536 449 q 503 558 519 536 q 462 586 488 579 q 399 593 436 593 q 337 586 363 593 q 294 558 311 579 q 270 492 278 536 q 263 375 263 449 q 270 258 263 303 q 294 192 278 214 q 337 164 311 171 q 399 157 363 157 m 432 633 l 432 746 l 543 746 q 616 779 590 746 q 642 899 642 813 l 785 899 q 759 751 785 810 q 688 663 733 693 q 581 633 642 633 l 432 633 z "},"ớ":{"ha":799,"x_min":57,"x_max":785,"o":"m 399 -7 q 242 12 307 -7 q 135 75 176 31 q 76 193 94 119 q 57 375 57 267 q 76 563 57 489 q 135 680 94 638 q 242 740 176 722 q 399 757 308 757 q 557 739 492 757 q 663 678 622 721 q 723 562 704 636 q 742 375 742 488 q 724 190 742 264 q 665 72 706 115 q 559 11 625 29 q 399 -7 493 -7 m 399 157 q 462 164 436 157 q 503 192 488 171 q 528 258 519 214 q 536 375 536 303 q 528 492 536 449 q 503 558 519 536 q 462 586 488 579 q 399 593 436 593 q 337 586 363 593 q 294 558 311 579 q 270 492 278 536 q 263 375 263 449 q 270 258 263 303 q 294 192 278 214 q 337 164 311 171 q 399 157 363 157 m 432 633 l 432 746 l 543 746 q 616 779 590 746 q 642 899 642 813 l 785 899 q 759 751 785 810 q 688 663 733 693 q 581 633 642 633 l 432 633 z "},"ợ":{"ha":799,"x_min":57,"x_max":785,"o":"m 399 -7 q 242 12 307 -7 q 135 75 176 31 q 76 193 94 119 q 57 375 57 267 q 76 563 57 489 q 135 680 94 638 q 242 740 176 722 q 399 757 308 757 q 557 739 492 757 q 663 678 622 721 q 723 562 704 636 q 742 375 742 488 q 724 190 742 264 q 665 72 706 115 q 559 11 625 29 q 399 -7 493 -7 m 399 157 q 462 164 436 157 q 503 192 488 171 q 528 258 519 214 q 536 375 536 303 q 528 492 536 449 q 503 558 519 536 q 462 586 488 579 q 399 593 436 593 q 337 586 363 593 q 294 558 311 579 q 270 492 278 536 q 263 375 263 449 q 270 258 263 303 q 294 192 278 214 q 337 164 311 171 q 399 157 363 157 m 432 633 l 432 746 l 543 746 q 616 779 590 746 q 642 899 642 813 l 785 899 q 759 751 785 810 q 688 663 733 693 q 581 633 642 633 l 432 633 m 354 -314 q 326 -285 326 -314 l 326 -150 q 354 -119 326 -119 l 450 -119 q 471 -128 464 -119 q 478 -150 478 -136 l 478 -285 q 450 -314 478 -314 l 354 -314 z "},"ờ":{"ha":799,"x_min":57,"x_max":785,"o":"m 399 -7 q 242 12 307 -7 q 135 75 176 31 q 76 193 94 119 q 57 375 57 267 q 76 563 57 489 q 135 680 94 638 q 242 740 176 722 q 399 757 308 757 q 557 739 492 757 q 663 678 622 721 q 723 562 704 636 q 742 375 742 488 q 724 190 742 264 q 665 72 706 115 q 559 11 625 29 q 399 -7 493 -7 m 399 157 q 462 164 436 157 q 503 192 488 171 q 528 258 519 214 q 536 375 536 303 q 528 492 536 449 q 503 558 519 536 q 462 586 488 579 q 399 593 436 593 q 337 586 363 593 q 294 558 311 579 q 270 492 278 536 q 263 375 263 449 q 270 258 263 303 q 294 192 278 214 q 337 164 311 171 q 399 157 363 157 m 432 633 l 432 746 l 543 746 q 616 779 590 746 q 642 899 642 813 l 785 899 q 759 751 785 810 q 688 663 733 693 q 581 633 642 633 l 432 633 z "},"ở":{"ha":799,"x_min":57,"x_max":785,"o":"m 399 -7 q 242 12 307 -7 q 135 75 176 31 q 76 193 94 119 q 57 375 57 267 q 76 563 57 489 q 135 680 94 638 q 242 740 176 722 q 399 757 308 757 q 557 739 492 757 q 663 678 622 721 q 723 562 704 636 q 742 375 742 488 q 724 190 742 264 q 665 72 706 115 q 559 11 625 29 q 399 -7 493 -7 m 399 157 q 462 164 436 157 q 503 192 488 171 q 528 258 519 214 q 536 375 536 303 q 528 492 536 449 q 503 558 519 536 q 462 586 488 579 q 399 593 436 593 q 337 586 363 593 q 294 558 311 579 q 270 492 278 536 q 263 375 263 449 q 270 258 263 303 q 294 192 278 214 q 337 164 311 171 q 399 157 363 157 m 432 633 l 432 746 l 543 746 q 616 779 590 746 q 642 899 642 813 l 785 899 q 759 751 785 810 q 688 663 733 693 q 581 633 642 633 l 432 633 m 364 825 l 364 915 q 408 940 397 925 q 419 971 419 956 q 410 999 419 989 q 374 1010 400 1010 q 351 1007 363 1010 q 328 1001 340 1004 l 328 1082 q 362 1090 343 1088 q 400 1093 381 1093 q 497 1063 465 1093 q 528 978 528 1032 q 489 885 528 922 q 364 825 450 849 z "},"ỡ":{"ha":799,"x_min":57,"x_max":785,"o":"m 399 -7 q 242 12 307 -7 q 135 75 176 31 q 76 193 94 119 q 57 375 57 267 q 76 563 57 489 q 135 680 94 638 q 242 740 176 722 q 399 757 308 757 q 557 739 492 757 q 663 678 622 721 q 723 562 704 636 q 742 375 742 488 q 724 190 742 264 q 665 72 706 115 q 559 11 625 29 q 399 -7 493 -7 m 399 157 q 462 164 436 157 q 503 192 488 171 q 528 258 519 214 q 536 375 536 303 q 528 492 536 449 q 503 558 519 536 q 462 586 488 579 q 399 593 436 593 q 337 586 363 593 q 294 558 311 579 q 270 492 278 536 q 263 375 263 449 q 270 258 263 303 q 294 192 278 214 q 337 164 311 171 q 399 157 363 157 m 432 633 l 432 746 l 543 746 q 616 779 590 746 q 642 899 642 813 l 785 899 q 759 751 785 810 q 688 663 733 693 q 581 633 642 633 l 432 633 z "},"ő":{"ha":799,"x_min":57,"x_max":742,"o":"m 399 -7 q 242 12 307 -7 q 135 75 176 31 q 76 193 94 119 q 57 375 57 267 q 76 563 57 489 q 135 680 94 638 q 242 740 176 722 q 399 757 308 757 q 557 739 492 757 q 663 678 622 721 q 723 562 704 636 q 742 375 742 488 q 724 190 742 264 q 665 72 706 115 q 559 11 625 29 q 399 -7 493 -7 m 399 157 q 462 164 436 157 q 503 192 488 171 q 528 258 519 214 q 536 375 536 303 q 528 492 536 449 q 503 558 519 536 q 462 586 488 579 q 399 593 436 593 q 337 586 363 593 q 294 558 311 579 q 270 492 278 536 q 263 375 263 449 q 270 258 263 303 q 294 192 278 214 q 337 164 311 171 q 399 157 363 157 z "},"ȏ":{"ha":799,"x_min":57,"x_max":742,"o":"m 399 -7 q 242 12 307 -7 q 135 75 176 31 q 76 193 94 119 q 57 375 57 267 q 76 563 57 489 q 135 680 94 638 q 242 740 176 722 q 399 757 308 757 q 557 739 492 757 q 663 678 622 721 q 723 562 704 636 q 742 375 742 488 q 724 190 742 264 q 665 72 706 115 q 559 11 625 29 q 399 -7 493 -7 m 399 157 q 462 164 436 157 q 503 192 488 171 q 528 258 519 214 q 536 375 536 303 q 528 492 536 449 q 503 558 519 536 q 462 586 488 579 q 399 593 436 593 q 337 586 363 593 q 294 558 311 579 q 270 492 278 536 q 263 375 263 449 q 270 258 263 303 q 294 192 278 214 q 337 164 311 171 q 399 157 363 157 z "},"ō":{"ha":799,"x_min":57,"x_max":742,"o":"m 399 -7 q 242 12 307 -7 q 135 75 176 31 q 76 193 94 119 q 57 375 57 267 q 76 563 57 489 q 135 680 94 638 q 242 740 176 722 q 399 757 308 757 q 557 739 492 757 q 663 678 622 721 q 723 562 704 636 q 742 375 742 488 q 724 190 742 264 q 665 72 706 115 q 559 11 625 29 q 399 -7 493 -7 m 399 157 q 462 164 436 157 q 503 192 488 171 q 528 258 519 214 q 536 375 536 303 q 528 492 536 449 q 503 558 519 536 q 462 586 488 579 q 399 593 436 593 q 337 586 363 593 q 294 558 311 579 q 270 492 278 536 q 263 375 263 449 q 270 258 263 303 q 294 192 278 214 q 337 164 311 171 q 399 157 363 157 z "},"ṓ":{"ha":799,"x_min":57,"x_max":742,"o":"m 399 -7 q 242 12 307 -7 q 135 75 176 31 q 76 193 94 119 q 57 375 57 267 q 76 563 57 489 q 135 680 94 638 q 242 740 176 722 q 399 757 308 757 q 557 739 492 757 q 663 678 622 721 q 723 562 704 636 q 742 375 742 488 q 724 190 742 264 q 665 72 706 115 q 559 11 625 29 q 399 -7 493 -7 m 399 157 q 462 164 436 157 q 503 192 488 171 q 528 258 519 214 q 536 375 536 303 q 528 492 536 449 q 503 558 519 536 q 462 586 488 579 q 399 593 436 593 q 337 586 363 593 q 294 558 311 579 q 270 492 278 536 q 263 375 263 449 q 270 258 263 303 q 294 192 278 214 q 337 164 311 171 q 399 157 363 157 z "},"ṑ":{"ha":799,"x_min":57,"x_max":742,"o":"m 399 -7 q 242 12 307 -7 q 135 75 176 31 q 76 193 94 119 q 57 375 57 267 q 76 563 57 489 q 135 680 94 638 q 242 740 176 722 q 399 757 308 757 q 557 739 492 757 q 663 678 622 721 q 723 562 704 636 q 742 375 742 488 q 724 190 742 264 q 665 72 706 115 q 559 11 625 29 q 399 -7 493 -7 m 399 157 q 462 164 436 157 q 503 192 488 171 q 528 258 519 214 q 536 375 536 303 q 528 492 536 449 q 503 558 519 536 q 462 586 488 579 q 399 593 436 593 q 337 586 363 593 q 294 558 311 579 q 270 492 278 536 q 263 375 263 449 q 270 258 263 303 q 294 192 278 214 q 337 164 311 171 q 399 157 363 157 z "},"ǫ":{"ha":799,"x_min":57,"x_max":742,"o":"m 399 -7 q 242 12 307 -7 q 135 75 176 31 q 76 193 94 119 q 57 375 57 267 q 76 563 57 489 q 135 680 94 638 q 242 740 176 722 q 399 757 308 757 q 557 739 492 757 q 663 678 622 721 q 723 562 704 636 q 742 375 742 488 q 724 190 742 264 q 665 72 706 115 q 559 11 625 29 q 399 -7 493 -7 m 399 157 q 462 164 436 157 q 503 192 488 171 q 528 258 519 214 q 536 375 536 303 q 528 492 536 449 q 503 558 519 536 q 462 586 488 579 q 399 593 436 593 q 337 586 363 593 q 294 558 311 579 q 270 492 278 536 q 263 375 263 449 q 270 258 263 303 q 294 192 278 214 q 337 164 311 171 q 399 157 363 157 z "},"ø":{"ha":799,"x_min":39,"x_max":760,"o":"m 39 0 l 664 746 l 760 746 l 135 0 l 39 0 m 399 -7 q 242 12 307 -7 q 135 75 176 31 q 76 193 94 119 q 57 375 57 267 q 76 563 57 489 q 135 680 94 638 q 242 740 176 722 q 399 757 308 757 q 557 739 492 757 q 663 678 622 721 q 723 562 704 636 q 742 375 742 488 q 724 190 742 264 q 665 72 706 115 q 559 11 625 29 q 399 -7 493 -7 m 399 157 q 462 164 436 157 q 503 192 488 171 q 528 258 519 214 q 536 375 536 303 q 528 492 536 449 q 503 558 519 536 q 462 586 488 579 q 399 593 436 593 q 337 586 363 593 q 294 558 311 579 q 270 492 278 536 q 263 375 263 449 q 270 258 263 303 q 294 192 278 214 q 337 164 311 171 q 399 157 363 157 z "},"ǿ":{"ha":799,"x_min":39,"x_max":760,"o":"m 39 0 l 664 746 l 760 746 l 135 0 l 39 0 m 399 -7 q 242 12 307 -7 q 135 75 176 31 q 76 193 94 119 q 57 375 57 267 q 76 563 57 489 q 135 680 94 638 q 242 740 176 722 q 399 757 308 757 q 557 739 492 757 q 663 678 622 721 q 723 562 704 636 q 742 375 742 488 q 724 190 742 264 q 665 72 706 115 q 559 11 625 29 q 399 -7 493 -7 m 399 157 q 462 164 436 157 q 503 192 488 171 q 528 258 519 214 q 536 375 536 303 q 528 492 536 449 q 503 558 519 536 q 462 586 488 579 q 399 593 436 593 q 337 586 363 593 q 294 558 311 579 q 270 492 278 536 q 263 375 263 449 q 270 258 263 303 q 294 192 278 214 q 337 164 311 171 q 399 157 363 157 z "},"õ":{"ha":799,"x_min":57,"x_max":742,"o":"m 399 -7 q 242 12 307 -7 q 135 75 176 31 q 76 193 94 119 q 57 375 57 267 q 76 563 57 489 q 135 680 94 638 q 242 740 176 722 q 399 757 308 757 q 557 739 492 757 q 663 678 622 721 q 723 562 704 636 q 742 375 742 488 q 724 190 742 264 q 665 72 706 115 q 559 11 625 29 q 399 -7 493 -7 m 399 157 q 462 164 436 157 q 503 192 488 171 q 528 258 519 214 q 536 375 536 303 q 528 492 536 449 q 503 558 519 536 q 462 586 488 579 q 399 593 436 593 q 337 586 363 593 q 294 558 311 579 q 270 492 278 536 q 263 375 263 449 q 270 258 263 303 q 294 192 278 214 q 337 164 311 171 q 399 157 363 157 z "},"ṍ":{"ha":799,"x_min":57,"x_max":742,"o":"m 399 -7 q 242 12 307 -7 q 135 75 176 31 q 76 193 94 119 q 57 375 57 267 q 76 563 57 489 q 135 680 94 638 q 242 740 176 722 q 399 757 308 757 q 557 739 492 757 q 663 678 622 721 q 723 562 704 636 q 742 375 742 488 q 724 190 742 264 q 665 72 706 115 q 559 11 625 29 q 399 -7 493 -7 m 399 157 q 462 164 436 157 q 503 192 488 171 q 528 258 519 214 q 536 375 536 303 q 528 492 536 449 q 503 558 519 536 q 462 586 488 579 q 399 593 436 593 q 337 586 363 593 q 294 558 311 579 q 270 492 278 536 q 263 375 263 449 q 270 258 263 303 q 294 192 278 214 q 337 164 311 171 q 399 157 363 157 z "},"ṏ":{"ha":799,"x_min":57,"x_max":742,"o":"m 399 -7 q 242 12 307 -7 q 135 75 176 31 q 76 193 94 119 q 57 375 57 267 q 76 563 57 489 q 135 680 94 638 q 242 740 176 722 q 399 757 308 757 q 557 739 492 757 q 663 678 622 721 q 723 562 704 636 q 742 375 742 488 q 724 190 742 264 q 665 72 706 115 q 559 11 625 29 q 399 -7 493 -7 m 399 157 q 462 164 436 157 q 503 192 488 171 q 528 258 519 214 q 536 375 536 303 q 528 492 536 449 q 503 558 519 536 q 462 586 488 579 q 399 593 436 593 q 337 586 363 593 q 294 558 311 579 q 270 492 278 536 q 263 375 263 449 q 270 258 263 303 q 294 192 278 214 q 337 164 311 171 q 399 157 363 157 m 496 1114 q 467 1143 467 1114 l 467 1278 q 496 1308 467 1308 l 592 1308 q 612 1300 604 1308 q 619 1278 619 1292 l 619 1143 q 592 1114 619 1114 l 496 1114 m 224 1114 q 194 1143 194 1114 l 194 1278 q 224 1308 194 1308 l 318 1308 q 339 1300 332 1308 q 346 1278 346 1292 l 346 1143 q 318 1114 346 1114 l 224 1114 z "},"ȭ":{"ha":799,"x_min":57,"x_max":742,"o":"m 399 -7 q 242 12 307 -7 q 135 75 176 31 q 76 193 94 119 q 57 375 57 267 q 76 563 57 489 q 135 680 94 638 q 242 740 176 722 q 399 757 308 757 q 557 739 492 757 q 663 678 622 721 q 723 562 704 636 q 742 375 742 488 q 724 190 742 264 q 665 72 706 115 q 559 11 625 29 q 399 -7 493 -7 m 399 157 q 462 164 436 157 q 503 192 488 171 q 528 258 519 214 q 536 375 536 303 q 528 492 536 449 q 503 558 519 536 q 462 586 488 579 q 399 593 436 593 q 337 586 363 593 q 294 558 311 579 q 270 492 278 536 q 263 375 263 449 q 270 258 263 303 q 294 192 278 214 q 337 164 311 171 q 399 157 363 157 z "},"œ":{"ha":1217,"x_min":57,"x_max":1161,"o":"m 397 -7 q 240 12 306 -7 q 135 75 175 31 q 76 193 94 119 q 57 375 57 267 q 76 563 57 489 q 135 680 94 638 q 242 740 176 722 q 399 757 308 757 q 542 739 483 757 q 638 678 601 721 q 692 561 675 635 q 710 375 710 488 q 693 190 710 264 q 640 72 676 115 q 543 11 603 29 q 397 -7 483 -7 m 399 147 q 462 154 436 147 q 503 184 488 161 q 528 253 519 207 q 536 375 536 299 q 528 498 536 453 q 503 565 519 543 q 462 595 488 588 q 399 603 436 603 q 337 595 363 603 q 294 565 311 588 q 270 498 278 543 q 263 375 263 453 q 270 253 263 299 q 294 184 278 207 q 337 154 311 161 q 399 147 363 147 m 847 -7 q 685 33 749 -7 q 590 156 621 72 q 560 372 560 240 q 587 591 560 506 q 678 717 614 676 q 853 757 742 757 q 1031 734 964 757 q 1130 651 1099 711 q 1161 479 1161 592 q 1131 377 1161 417 q 1052 319 1101 338 q 942 300 1003 300 l 731 300 q 774 181 733 217 q 908 146 815 146 l 1136 146 l 1136 25 q 1007 3 1078 13 q 847 -7 936 -7 m 729 422 l 901 422 q 944 430 926 422 q 970 455 961 438 q 979 501 979 472 q 966 566 979 543 q 925 599 953 589 q 854 608 897 608 q 779 590 807 608 q 740 531 751 571 q 729 422 729 490 z "},"p":{"ha":813,"x_min":79,"x_max":756,"o":"m 79 -329 l 79 746 l 251 746 l 285 675 q 343 715 311 696 q 413 745 375 733 q 492 757 450 757 q 610 731 560 757 q 693 654 661 704 q 740 533 725 604 q 756 372 756 461 q 732 167 756 253 q 651 35 708 81 q 492 -10 593 -10 q 384 3 439 -10 q 285 39 329 15 l 285 -329 l 79 -329 m 425 160 q 486 177 457 160 q 533 240 515 194 q 550 372 550 286 q 534 503 550 456 q 490 572 518 551 q 425 592 463 592 q 346 578 382 592 q 285 550 310 564 l 285 196 q 350 169 313 179 q 425 160 388 160 z "},"ṗ":{"ha":813,"x_min":79,"x_max":756,"o":"m 79 -329 l 79 746 l 251 746 l 285 675 q 343 715 311 696 q 413 745 375 733 q 492 757 450 757 q 610 731 560 757 q 693 654 661 704 q 740 533 725 604 q 756 372 756 461 q 732 167 756 253 q 651 35 708 81 q 492 -10 593 -10 q 384 3 439 -10 q 285 39 329 15 l 285 -329 l 79 -329 m 425 160 q 486 177 457 160 q 533 240 515 194 q 550 372 550 286 q 534 503 550 456 q 490 572 518 551 q 425 592 463 592 q 346 578 382 592 q 285 550 310 564 l 285 196 q 350 169 313 179 q 425 160 388 160 z "},"þ":{"ha":813,"x_min":79,"x_max":756,"o":"m 79 -329 l 79 1060 l 285 1060 l 285 675 q 343 715 311 696 q 413 745 375 733 q 492 757 450 757 q 606 731 557 757 q 689 654 656 704 q 739 533 722 604 q 756 372 756 461 q 730 167 756 253 q 646 35 704 81 q 492 -10 588 -10 q 384 3 439 -10 q 285 39 329 15 l 285 -329 l 79 -329 m 425 160 q 486 176 457 160 q 533 237 515 193 q 550 363 550 281 q 534 500 550 450 q 490 571 518 550 q 425 592 463 592 q 346 578 382 592 q 285 550 310 564 l 285 196 q 350 169 313 179 q 425 160 388 160 z "},"q":{"ha":810,"x_min":57,"x_max":735,"o":"m 528 -329 l 528 71 q 435 15 489 39 q 329 -8 381 -8 q 167 33 228 -8 q 82 158 107 74 q 57 372 57 242 q 88 600 57 515 q 181 721 118 685 q 342 757 244 757 q 481 753 408 757 q 619 742 553 749 q 735 728 685 735 l 735 -329 l 528 -329 m 389 157 q 462 169 422 157 q 528 199 501 182 l 528 603 l 404 603 q 320 578 351 603 q 276 505 289 554 q 263 379 263 456 q 275 242 263 290 q 315 176 288 194 q 389 157 343 157 z "},"r":{"ha":588,"x_min":79,"x_max":557,"o":"m 79 0 l 79 746 l 238 746 l 285 632 q 376 719 325 683 q 496 756 426 756 q 527 754 511 756 q 557 749 543 753 l 557 538 q 513 542 536 540 q 469 544 490 544 q 397 535 429 544 q 337 509 364 526 q 285 464 310 492 l 285 0 l 79 0 z "},"ŕ":{"ha":588,"x_min":79,"x_max":557,"o":"m 79 0 l 79 746 l 238 746 l 285 632 q 376 719 325 683 q 496 756 426 756 q 527 754 511 756 q 557 749 543 753 l 557 538 q 513 542 536 540 q 469 544 490 544 q 397 535 429 544 q 337 509 364 526 q 285 464 310 492 l 285 0 l 79 0 z "}}}
